<mxfile host="app.diagrams.net" modified="2022-07-22T10:30:22.262Z" agent="5.0 (Windows NT 10.0; Win64; x64) AppleWebKit/537.36 (KHTML, like Gecko) Chrome/94.0.4606.81 Safari/537.36" etag="6k-iNgJvqX-K097cEtWD" version="20.0.4" type="github">
  <diagram id="C5RBs43oDa-KdzZeNtuy" name="Page-1">
    <mxGraphModel dx="1146" dy="542" grid="1" gridSize="10" guides="1" tooltips="1" connect="1" arrows="1" fold="1" page="1" pageScale="1" pageWidth="827" pageHeight="1169" math="0" shadow="0">
      <root>
        <mxCell id="WIyWlLk6GJQsqaUBKTNV-0" />
        <mxCell id="WIyWlLk6GJQsqaUBKTNV-1" parent="WIyWlLk6GJQsqaUBKTNV-0" />
        <mxCell id="VKCGDPAT1vk8IowQwXdB-28" value="" style="rounded=0;whiteSpace=wrap;html=1;labelBackgroundColor=#FF0000;fontSize=24;fontColor=#FF0000;" vertex="1" parent="WIyWlLk6GJQsqaUBKTNV-1">
          <mxGeometry x="410" y="320" width="327" height="160" as="geometry" />
        </mxCell>
        <mxCell id="VKCGDPAT1vk8IowQwXdB-27" value="" style="rounded=0;whiteSpace=wrap;html=1;labelBackgroundColor=#FF0000;fontSize=24;fontColor=#FF0000;" vertex="1" parent="WIyWlLk6GJQsqaUBKTNV-1">
          <mxGeometry x="48" y="320" width="271" height="160" as="geometry" />
        </mxCell>
        <mxCell id="VKCGDPAT1vk8IowQwXdB-6" style="edgeStyle=orthogonalEdgeStyle;rounded=0;orthogonalLoop=1;jettySize=auto;html=1;" edge="1" parent="WIyWlLk6GJQsqaUBKTNV-1" source="WIyWlLk6GJQsqaUBKTNV-3" target="WIyWlLk6GJQsqaUBKTNV-7">
          <mxGeometry relative="1" as="geometry" />
        </mxCell>
        <mxCell id="WIyWlLk6GJQsqaUBKTNV-3" value="&lt;br&gt;&lt;br&gt;&lt;br&gt;DevOps Team" style="rounded=1;whiteSpace=wrap;html=1;fontSize=12;glass=0;strokeWidth=1;shadow=0;" parent="WIyWlLk6GJQsqaUBKTNV-1" vertex="1">
          <mxGeometry x="9" y="150" width="110" height="80" as="geometry" />
        </mxCell>
        <mxCell id="WIyWlLk6GJQsqaUBKTNV-7" value="&lt;br&gt;&lt;br&gt;&lt;br&gt;ChatRoom" style="rounded=1;whiteSpace=wrap;html=1;fontSize=12;glass=0;strokeWidth=1;shadow=0;" parent="WIyWlLk6GJQsqaUBKTNV-1" vertex="1">
          <mxGeometry x="219" y="150" width="120" height="80" as="geometry" />
        </mxCell>
        <mxCell id="WIyWlLk6GJQsqaUBKTNV-11" value="&lt;br&gt;&lt;br&gt;&lt;br&gt;Infrastructure" style="rounded=1;whiteSpace=wrap;html=1;fontSize=12;glass=0;strokeWidth=1;shadow=0;" parent="WIyWlLk6GJQsqaUBKTNV-1" vertex="1">
          <mxGeometry x="689" y="150" width="130" height="80" as="geometry" />
        </mxCell>
        <mxCell id="WIyWlLk6GJQsqaUBKTNV-12" value="&lt;br&gt;&lt;br&gt;&lt;br&gt;Bot" style="rounded=1;whiteSpace=wrap;html=1;fontSize=12;glass=0;strokeWidth=1;shadow=0;" parent="WIyWlLk6GJQsqaUBKTNV-1" vertex="1">
          <mxGeometry x="459" y="150" width="120" height="80" as="geometry" />
        </mxCell>
        <mxCell id="VKCGDPAT1vk8IowQwXdB-3" value="" style="endArrow=classic;startArrow=classic;html=1;rounded=0;entryX=0;entryY=0.5;entryDx=0;entryDy=0;" edge="1" parent="WIyWlLk6GJQsqaUBKTNV-1" source="WIyWlLk6GJQsqaUBKTNV-12" target="WIyWlLk6GJQsqaUBKTNV-11">
          <mxGeometry width="50" height="50" relative="1" as="geometry">
            <mxPoint x="499" y="290" as="sourcePoint" />
            <mxPoint x="549" y="240" as="targetPoint" />
          </mxGeometry>
        </mxCell>
        <mxCell id="VKCGDPAT1vk8IowQwXdB-5" value="" style="endArrow=classic;startArrow=classic;html=1;rounded=0;entryX=0;entryY=0.5;entryDx=0;entryDy=0;" edge="1" parent="WIyWlLk6GJQsqaUBKTNV-1" source="WIyWlLk6GJQsqaUBKTNV-7" target="WIyWlLk6GJQsqaUBKTNV-12">
          <mxGeometry width="50" height="50" relative="1" as="geometry">
            <mxPoint x="329" y="159.5" as="sourcePoint" />
            <mxPoint x="399" y="159.5" as="targetPoint" />
          </mxGeometry>
        </mxCell>
        <mxCell id="VKCGDPAT1vk8IowQwXdB-7" value="&lt;h1&gt;&lt;font style=&quot;font-size: 24px;&quot;&gt;ChatOps WorkFlow&lt;/font&gt;&lt;/h1&gt;" style="text;html=1;strokeColor=none;fillColor=none;align=center;verticalAlign=middle;whiteSpace=wrap;rounded=0;" vertex="1" parent="WIyWlLk6GJQsqaUBKTNV-1">
          <mxGeometry x="19" y="50" width="261" height="30" as="geometry" />
        </mxCell>
        <mxCell id="VKCGDPAT1vk8IowQwXdB-13" value="" style="aspect=fixed;perimeter=ellipsePerimeter;html=1;align=center;shadow=0;dashed=0;spacingTop=3;image;image=img/lib/active_directory/community_discussion.svg;fontSize=24;" vertex="1" parent="WIyWlLk6GJQsqaUBKTNV-1">
          <mxGeometry x="254" y="157.5" width="50" height="45" as="geometry" />
        </mxCell>
        <mxCell id="VKCGDPAT1vk8IowQwXdB-19" value="" style="aspect=fixed;perimeter=ellipsePerimeter;html=1;align=center;shadow=0;dashed=0;spacingTop=3;image;image=img/lib/active_directory/users.svg;fontSize=24;" vertex="1" parent="WIyWlLk6GJQsqaUBKTNV-1">
          <mxGeometry x="48" y="158" width="33" height="50" as="geometry" />
        </mxCell>
        <mxCell id="VKCGDPAT1vk8IowQwXdB-21" value="" style="aspect=fixed;perimeter=ellipsePerimeter;html=1;align=center;shadow=0;dashed=0;spacingTop=3;image;image=img/lib/active_directory/cluster_server.svg;fontSize=24;" vertex="1" parent="WIyWlLk6GJQsqaUBKTNV-1">
          <mxGeometry x="729" y="158" width="50" height="50" as="geometry" />
        </mxCell>
        <mxCell id="VKCGDPAT1vk8IowQwXdB-22" value="" style="dashed=0;outlineConnect=0;html=1;align=center;labelPosition=center;verticalLabelPosition=bottom;verticalAlign=top;shape=mxgraph.weblogos.android;fillColor=#A4CA39;strokeColor=none;fontSize=24;" vertex="1" parent="WIyWlLk6GJQsqaUBKTNV-1">
          <mxGeometry x="502.5" y="152.5" width="33" height="50" as="geometry" />
        </mxCell>
        <mxCell id="VKCGDPAT1vk8IowQwXdB-23" value="&lt;h1&gt;&lt;font style=&quot;font-size: 24px;&quot;&gt;ChatRoom&lt;/font&gt;&lt;/h1&gt;" style="text;html=1;align=center;verticalAlign=middle;resizable=0;points=[];autosize=1;strokeColor=none;fillColor=none;fontSize=24;" vertex="1" parent="WIyWlLk6GJQsqaUBKTNV-1">
          <mxGeometry x="123" y="270" width="140" height="130" as="geometry" />
        </mxCell>
        <mxCell id="VKCGDPAT1vk8IowQwXdB-24" value="&lt;font style=&quot;&quot;&gt;&lt;font style=&quot;font-size: 12px;&quot; color=&quot;#ff0000&quot;&gt;Slack:&amp;nbsp;&lt;/font&gt;&lt;span style=&quot;font-size: 12px;&quot;&gt;International&lt;font color=&quot;#ff0000&quot;&gt;&amp;nbsp;&lt;/font&gt;&lt;/span&gt;&lt;br&gt;&lt;span style=&quot;font-size: 12px;&quot;&gt;Rocket.Chat:&amp;nbsp;&lt;/span&gt;&lt;span style=&quot;font-size: 12px;&quot;&gt;International&lt;br&gt;&lt;/span&gt;&lt;span style=&quot;font-size: 12px;&quot;&gt;BearyChat:&amp;nbsp;&lt;/span&gt;&lt;span style=&quot;font-size: 12px;&quot;&gt;Domestic&lt;/span&gt;&lt;br&gt;&lt;span style=&quot;font-size: 12px;&quot;&gt;dingTalk:&amp;nbsp;&lt;/span&gt;&lt;/font&gt;&lt;span style=&quot;font-size: 12px;&quot;&gt;Domestic&lt;/span&gt;" style="text;html=1;strokeColor=none;fillColor=none;align=left;verticalAlign=middle;whiteSpace=wrap;rounded=0;fontSize=24;" vertex="1" parent="WIyWlLk6GJQsqaUBKTNV-1">
          <mxGeometry x="60" y="370" width="160" height="110" as="geometry" />
        </mxCell>
        <mxCell id="VKCGDPAT1vk8IowQwXdB-25" value="&lt;h1&gt;&lt;span style=&quot;font-weight: 400;&quot;&gt;&lt;font style=&quot;font-size: 24px;&quot;&gt;Bot&lt;/font&gt;&lt;/span&gt;&lt;br&gt;&lt;/h1&gt;" style="text;html=1;align=center;verticalAlign=middle;resizable=0;points=[];autosize=1;strokeColor=none;fillColor=none;fontSize=24;" vertex="1" parent="WIyWlLk6GJQsqaUBKTNV-1">
          <mxGeometry x="543.5" y="270" width="60" height="130" as="geometry" />
        </mxCell>
        <mxCell id="VKCGDPAT1vk8IowQwXdB-26" value="&lt;font style=&quot;font-size: 12px;&quot;&gt;&lt;font color=&quot;#ff0000&quot;&gt;Hubot:&lt;/font&gt; JavaScript/CoffeeScript (https://hubot.github.com)&lt;br&gt;Lita: Ruby (https://www.lita.io)&lt;br&gt;Err: Python (https://errbot.readthedocs.io)&lt;br&gt;&lt;/font&gt;" style="text;html=1;strokeColor=none;fillColor=none;align=left;verticalAlign=middle;whiteSpace=wrap;rounded=0;fontSize=24;" vertex="1" parent="WIyWlLk6GJQsqaUBKTNV-1">
          <mxGeometry x="422" y="370" width="382" height="80" as="geometry" />
        </mxCell>
        <mxCell id="VKCGDPAT1vk8IowQwXdB-29" value="" style="endArrow=none;dashed=1;html=1;dashPattern=1 3;strokeWidth=2;rounded=0;fontSize=24;fontColor=#FF0000;exitX=0.565;exitY=0.005;exitDx=0;exitDy=0;exitPerimeter=0;" edge="1" parent="WIyWlLk6GJQsqaUBKTNV-1" source="VKCGDPAT1vk8IowQwXdB-27" target="WIyWlLk6GJQsqaUBKTNV-7">
          <mxGeometry width="50" height="50" relative="1" as="geometry">
            <mxPoint x="230" y="310" as="sourcePoint" />
            <mxPoint x="280" y="260" as="targetPoint" />
          </mxGeometry>
        </mxCell>
        <mxCell id="VKCGDPAT1vk8IowQwXdB-30" value="" style="endArrow=none;dashed=1;html=1;dashPattern=1 3;strokeWidth=2;rounded=0;fontSize=24;fontColor=#FF0000;entryX=0.5;entryY=1;entryDx=0;entryDy=0;" edge="1" parent="WIyWlLk6GJQsqaUBKTNV-1" source="VKCGDPAT1vk8IowQwXdB-28" target="WIyWlLk6GJQsqaUBKTNV-12">
          <mxGeometry width="50" height="50" relative="1" as="geometry">
            <mxPoint x="480" y="290" as="sourcePoint" />
            <mxPoint x="530" y="240" as="targetPoint" />
          </mxGeometry>
        </mxCell>
        <mxCell id="VKCGDPAT1vk8IowQwXdB-33" value="&lt;span style=&quot;text-align: start;&quot;&gt;&lt;font face=&quot;PingFang SC, Microsoft YaHei, 微软雅黑, 宋体, Malgun Gothic, sans-serif&quot; color=&quot;#2a2b2e&quot;&gt;&lt;span style=&quot;font-size: 15px;&quot;&gt;Is it installed on idfvmc1a server?&amp;nbsp;&lt;/span&gt;&lt;/font&gt;&lt;/span&gt;&lt;font face=&quot;PingFang SC, Microsoft YaHei, 微软雅黑, 宋体, Malgun Gothic, sans-serif&quot; color=&quot;#2a2b2e&quot;&gt;&lt;span style=&quot;font-size: 15px;&quot;&gt;If not, Need to apply for a new server.&lt;/span&gt;&lt;/font&gt;" style="rounded=0;whiteSpace=wrap;html=1;labelBackgroundColor=#FFFFFF;fontSize=24;fontColor=#000000;shadow=1;" vertex="1" parent="WIyWlLk6GJQsqaUBKTNV-1">
          <mxGeometry x="422" y="40" width="338" height="60" as="geometry" />
        </mxCell>
        <mxCell id="VKCGDPAT1vk8IowQwXdB-34" value="" style="endArrow=none;dashed=1;html=1;dashPattern=1 3;strokeWidth=2;rounded=0;fontSize=24;fontColor=#000000;entryX=0.5;entryY=1;entryDx=0;entryDy=0;exitX=0.5;exitY=0;exitDx=0;exitDy=0;" edge="1" parent="WIyWlLk6GJQsqaUBKTNV-1" source="WIyWlLk6GJQsqaUBKTNV-12" target="VKCGDPAT1vk8IowQwXdB-33">
          <mxGeometry width="50" height="50" relative="1" as="geometry">
            <mxPoint x="420" y="110" as="sourcePoint" />
            <mxPoint x="470" y="60" as="targetPoint" />
          </mxGeometry>
        </mxCell>
        <mxCell id="VKCGDPAT1vk8IowQwXdB-35" value="" style="shape=image;verticalLabelPosition=bottom;labelBackgroundColor=default;verticalAlign=top;aspect=fixed;imageAspect=0;image=data:image/png,iVBORw0KGgoAAAANSUhEUgAABMkAAALTCAYAAAAMzVVTAAAAAXNSR0IArs4c6QAAAARnQU1BAACxjwv8YQUAAAAJcEhZcwAADsMAAA7DAcdvqGQAAP+lSURBVHhe7P17sEddXtYHvn9Y+Seo7cSZGKa0RA1xSp0AQUeNqARvSXBCGNAoGeOgWMrMKKClRktCVJICI8EQLg2CQhOIjdjRFvDCTTqDhTaBSIuitDZia9ly7aYbuhvqjJ/T/bw877e/a++99vld93meqk+d81v32957refsc84LD1EURVEURVEURVEURVH0zBWTLIqiKIqiKIqiKIqiKHr2ikkWRVEURVEURVEURVEUPXvFJIuiKIqiKIqiKIqiKIqevWKSRVEURVEURVEURVEURc9eMcmiKIqiKIqiKIqiKIqiZ6+YZFEURVEURVEURVEURdGzV0yyKIqiKIqiKIqiKIqi6NkrJlkURVEURVEURVEURVH07BWTLIqiKIqiKIqiKIqiKHr2ikkWRVEURVEURVEURVEUPXvFJIuiKIqiKIqiKIqiKIqevWKSRVEURVEURVEURVEURc9eMcmiKIqiKIqiKIqiKIqiZ6+YZFEURVEURVEURVEURdGzV0yyKIqiKIqiKIqiKIqi6NkrJlkURVEURVEURVEURVH07BWTLIqiKIqiKIqiKIqiKHr2ikkWRVEURVEURVEURVEUPXvFJIuiKIqiKIqiKIqiKIqevWKSRVEURVEURVEURVEURc9eMcmiKIqiKIqiKIqiKIqiZ6+YZFEURVEURVEURVEURdGzV0yyKIqiKIqiZ6xf+2t/7cMLL7zw8FN+yk95+Iqv+Ip3h0ZRFEVRFD0/xSSLoiiKoih6psIUwyATX/qlX/rumCiKoiiKouenmGRRFL2Hftfv+l0vHpj4PnqpMj6X1+tf//qHP/SH/tDDB37gB7449sBn5oD4KIrm5fcz+J7v+Z53x0RRFEVRFD0/xSSLoug9pF+9Ab6PXqqMz2WFOabxHsGvieVwH0Vz4prh2tF1FNM/iqIoiqLnrphkURS9h2ICLSvjczltMcjEa17zmnfniqJoi/jVSr+G8vfIoiiKoih67ro7k4wN3Kd8yqc8Hkzrr93Az/7ZP/sxjoMVm79TvllAef4T1zVIS1v4yeznfM7nPHzrt37ru0u6rBgzxoO21PYzXr/xN/7Gi7SPOrzeU84N5ansU/8knPE5V9m3KtaK+sz3t6oZA8Wvx6feG+5lfO5d3JPqHNa5wxhjTk99TzmyGDM9R+szQb++yjifS/xqLM8D6vd7N+g6pX2nfiZdq9+sS38Oe71AGHHXMHn9+cZczOia40m5lD8aT+Ji+EVRFEVRtEd3YZKxIWIjVjdhW2GzdIq/V9NtxmZhE0pfzn2Y2ztmtI/Dyzna5yYZnGrzzEbYy4VTtZ914+VyoHgO8rXO97cqn5s9cG/Ys1buZXzuXcyPz9e1ftBwBO15JvA8OKXJwf3UTZktcH09Zd6v2W/6W9fwGvT3UmZZfb5h1K3pmuPJuMyuH+qOWRZFURRF0Yxu3iTbY/SMYAP4FPOkK3Mv9Im+nUOYUU8ds3NsLOuGnMPDKdS9TXSqtrOx93JPeWC8Zd2DCcSByedmL1wrs4fSexifI8jvY6e6XzxHPfU5utdMdnHvfEob9tx7r9Vv8syaYxWe4+dW/cHVmhl5zfGcNccquX9EURRFUbRVN2uSsSnyg6hgg8ZmBxOk29Bx2GUzPdpQ8SsAezZpyMvZcjCmfbSTjWX3q6FA+Cnfjug25owZRhJtwahyUTfjNdrQn3pjifmmsmnXKdSN7anaXddRHb+j6h5MoGqSrZnOuh5Ha33mEH4P43PvYr72zk/04+K68HEE7sP69T5/HnJ/Y5z9Pi2eck+lzFoe1w3h9flHm2hbZ8bMrIFr9tvvD4LnFKYUdbvo/8h8munvHnl/ad+S7mk8Ce/qpq1RFEVRFEVrukmTjM1WZ3ywSZsxuNiodQdiyp4pR/Iy9hyM2bx15h2b43pQ2KM6ZpQ7M2ak6zbrp3orC7FJ9bKf2m/a7OUJNsinkI/F2iHiSPJDyZ61fglxOFIbgbW7Vdwb6sFr5jq8h/G5d3HI9vmph+Fom+pa3TqOnSmy5+2mep1uLYd7e/f83nuNXrLfnpc+cL9ZE/3t9gen2Bt0olyvZ62P9zie3frJfSSKoiiKojXdpElWzR4Mj6dsFDF5qvGzx/Dw/GwS94pNWm3PzAG9U90MPqW8ulmfMR/WVA9MT/3JLnPr5TlPPVzUQ8Qpx+HWVQ9Et6i6lvbMj/cTtvb1Hsbn3lUP19E+MY48Q/e8lVTngOfKjHiW1Dd6ZttRn21br7dr9ps2wh5Dxu8twLP4HKo/sFoznm5hPLeYY1XVeGQ9RVEURVEULenmTh5147b3ra8qDA82Zl42G7cZeV42bE8Rm71qBu7tKz+V9XLo557NZBWbYco69U9efR72mJUuP0DVw9jsT6ur6sb+qabbPckPak9d6+fSKUwyrrd6X9iy3u9hfO5d9fqLrqOnmFx1Dvdeo7UNp34mdXpKv58int1eL5zieV7l971zGXGuWxrPKIqiKIqiJd3UbqG+ucMm7pTGBJuyWv7M5tPznuJgTN31gD77ZlV3yL91M6e+GfCUA4BvvDHF/PNT58hNTMp9TroHE+gUJhmqB/ktbxrcw/jcu2KS3Ybqc3PmTRx/NnEP3fsDr9qGS5g6T+n3U1Wfkac2lOob2Kcuv9M1x9Pv13AJkzWKoiiKovvVTZ086kbmqW8Cdap1zJhSnu9UB+N60IcZ06hupvcaBZdU3Szv3aDXnxBjDtbx2HsoI5+Xc8kN/S3Ir5NTrfVT61QmWV1HW95uvIfxuXfFJLsN1etj63qvRsxTn031h0F77+1btbffp1B9Rp76ue6/gsi4XkLXHM96L4lJFkVRFEXRkm7m5FE3UOd6c6cerGc2iJ7vlBu8auxsNWSqkUNfzn1wOIVqu/e+FeAHCc1jPZjxeY/qIWVvOfcq1rf6fsnDzIxOZZIhfwMR1nQP43Pvikl2O/J52Lre63ONZ/xTVMu7xD3Z67vkdX7Ke1vVNX8A5PVecjxjkkVRFEVRNKObOXnUv0W29+2iLap/C2zrZtvznHKDVw1C2GJ21b9FdsqN9LnF+Knde3+S7YcmbfRPdQCoB7J7MB9PKZ+fSx5mZnTKg6T3F9Z0D+Nz74pJdjvyedi63rmvK89T//YkOvfbVZ28vkte5+c0yeo4XtIw8novOZ71XhKTLIqiKIqiJd3MyaO+yXFOU6KaS1t/5dLznHqDV/8D0xaTsJp9T/1J/SVV52DPptUPYT5ezI3C976R6GXvfdONX/9kc0576voGwll7T30jwg29upa5jmiDrxX6Rt1La8zHkO9nVP823F6jck1HMMmYe+as1q9yGbunrA8/EHdGBeuDNKxxX/NaI8zlJQxi+qi697B1jNRfxrUbc9YtY0G/n3o/9Wugto+yaYOnUd23eIBXG2HLeq8/+Nn6jF1SLXNLO56qS9cnnfLeVuXPAtbcJeV9uuR4sv687phkURRFURQt6SZMsktvfus/CNj6U27Pc+o2+mEW1oyZOmZb+3ArqnMwe4iq+RkPqRpwpJ1RLZvyZsQGnPXhZayBKbH3IOR1+bqkHW58dIzGZlTmmtywE0tm3FN0yoNkna817R0fJONybW4cDrN7DnbU4+W4WNdb2vCUtblVtZ2zrLVvz5gDczt7/5C8HG9fvT9VaOMtibHz9m1Z79X0PNU9wMs8t8Gzp9+nUh2/U11/dd9wqnK36Jrj6WY0RFEURVEULekmdgvVILrExs3rgy3y9Kfe4NXN69pBqY7ZKX5Sf2n5xnXW5PODZj0sPdXkqodYN+DWVH9iPQvjMFMfYi0qv9ZlXR8jRsZLV+aaLmmQoVOaZF7OlrW4Z3wQh996YJthdjwZE8+POKx6+7fC/J5L1RSYpb6p5eJ+8JQxh9l7CPL8WpvdNdJxS6rX2ZZnTV13ewzeTlybXu45taffp1Idv6X1PaNa7uyz5im61njWeve+GR5FURRF0fPRTezGz7UhXFI9JG55W8DTzxyMt6q+5cBhdqRqxlxizE6t2oeZDTsbXeXrDu9+KJ6dK18bM+ZddwCmLIyNur74THhdh8A6mBkLL4Pvq0lImK8PDg2MPeGjNVbLXNOlDTJUDz8yImbF2Hg5W8yg2fFB3RtErGPGqc43c0j6ztyh31tV762UW+8ztJ8x0FrgK5+9j2LvGO9Rbfsedf3lM+ufcfT1z/e6NmoeIHxGnpe+1PlnndE+pDEnbMv6u6TqPGy5ruu9Xf18quqa9Pk7tfb0+1Sq/TyVmeX3k9kfTD1V1xrPaqzO3D+jKIqiKHqeugmTrG4IL7GJcZNla52enjafWjPjUNOe6hBySVVzYuZtDT/EUk5VNW22HqZI5/m2HoxrfbRv6zomXT2UzxxgfC1wCPKy9h64vcy1td71vZuTU4tx83o5hO1Rbf+Wts+Mj+R5qHPLwZf1WNu3tT5UD6a+NrbMEwdZzw+nOrCvqbZ9Vp1BxlhuuRd04w4z69rz1YP6JQ2Xp6oatVvGz9c6nEp7ntt7taffpxDXl9d7KjOr3i8vvQavMZ71Gs5bZFEURVEUbdFNmmSXUD2AbTn8ePqZg+pW1Q3d0gGgbjjvVX6I3bqBrZv9brPNfHqarYfbmm+L+VjzMDezBwDS1zndavrU60ewnvbKy1xa63XNMp+XMmxPYZLVMpiDLdo6Pi7WN2n3jE9dG1uNqnqfExy8t7ajvhW0Z5z3qLZ9VtWY2vMrk/XtL9b31mvb8zn3ZJDV62PrPdqvDziV6ppYekY+RXv7fQrVPu5Zt53qvfoSJpV06fHk/ljXIPeDS/Y5iqIoiqL71U24K9cwfOpGdMvBz9NvPRjPaKZNng7uVWyWZ/vh4zT6KTubYS93q2HkBwkOxFtU1+9ek4h8Xs7WA3k9DMBT16eXOSrrmgYZqgevLdewi7bSZi9jq5m6ZXxOqfpG11ajpd5TYPawWK+l0TV3atW2z6iO11MO5fUetXWdeZ7ZvLciX+ew1ZSq+U6luibOZZLt7fdTxbXm96Stz4At8nIvafqhS4wn93Ou+3q9AmGnGscoiqIoio6vm3BX6obmEqqb7S2HF09/joPxTJs8Hdyr6mF2i0nhG+6lX4f0dFvfEHLDa4uxVt8i22rGjVSNpy1mSD2AnOJg5WV2a722k3G7pEGGnmKSMa7VIJuZu7XxObXqr2Bt7Wu9pzBPe9ZGPXhe4sBZ2z6j+hbZU35FtI791nuJ54FLrJNTql5fM+336wNOpbomzmG2PKXfT1Xt39brfE17nrOn0qnHs17bI7i/c986xxqJoiiKoujYikn2brZsRj39OTbOM23ydHCv4rDt/djyN8A8/dJmv/6q1JqJUw/DWwyqah485TCOaKOXR/lrqgfSUxyAvMy61qtBNvtm0qlUD19L1wvtIz1rwo1QMWtuLo3PueTt3XK/QvWestfIrNfSJQ6ete1bVa+h2bntVK/zLePo6TmwP/XecGnV62Rmzus96VSqa+Ic6/Ap/X6K6vPnFD/skHz9Uu4lderx9LKWYA1y7fMcv8bzKYqiKIqi+1VMsnez5dDp6c9xMJ5pk6eDe5b/ZHjtLQ022Fv7XQ/La3/bpRoBWzbW/jbSqX4NzcuENfmB9FRt8DJ9rd+KQYbqWtjLlmu/ajQ+55S3eavxU+8pe1XH+hLGwd621+v4FKZxLXPLmvH0W/8ByK2o/h262fb79QGnUl0Tp16HT+33U+TPQTjV217VfLtkn84xnnVtbYFn6p77fBRFURRFz1On270+QXVDcwnVzfaWDamnP8fBeOYA4OngnlX7vfTGhW+6t8yB/xR7Lb3/tH1L2dWEO9Xhox4C1t5A8fRb2r1FXZm3ZJChp5pk9Gfv2z3nGPM1edu31lmvrb26J5OsvvV1ijVa+7/FpPT09OVeVPvKPXR2DP36gFNp5hk5q1P0e69qv7a8QbxV1eDd+zbprK4xntTJm2Ncn/WHTcAza+89P4qiKIqi56ObcFfOtaFeUv0J55bNtqc/x8G4Hu6W2uTp4J4188aX/7R9y8GzGjtLm3RPt9QGqR4CtuTZotmDoF8/p1qXtcw6jny+1AFypDr+a6gfHKKeelA6x5ivqfZli+pa2qs61lt+Ffmp2tt2n5tT/mqZt2XL+Hv6LfeqWxDXdDUX9pgqPgdwKs3eG7fqVP3eo3ptndpM8mcmZV9C1xxPiTawXmo7+HzK8Y2iKIqi6Hi6CXelbqgvsZnaU6en33JImlVt09JBns2up733TZ/3ZzS29NH7vOWAxBuCnmf0xmBNt8VEOdeBbbZcXzenWpdeJocsP2gBZtO1VQ+XlzQiTjXm3HdoNwa5l7nG1jrrWtqra4z13rZ7nqfMTdVsuZ7+kmvzKarX+V4ztK7lU6ma9afaK5yq37PiOeMmDt+fcv9DWd6vU/0gZ03XGs9OjEE1yk55X4iiKIqi6Hi6CZOsbnxPZTYsqZpMW+Tpz7HJqhu5JdVDyCXG7Jyqa6Az/dzIYqy2qBprI3PH3yzc+tP2eog/1RzMlutr4VTrspbZHTQudeAa6RrGjfSUMWdN0tZ6D5pha511Le3VNcZ6b9s9z+zcLGm2XE9/ybW5V/UePLpXbpFfH3Cqe2Mt9xQ6Zb9nxH3g3GZSfWP+Er9qeK3xXFL3/LqmcRdFURRF0W3rNLvMJ6oehs59oKjGCRvVLfI8pzx8ITavM+XXze+1DYunassbX97nmb/Z4gerkQHmhxXq2aK6bo9skqFqlMA1DxrXMG6kvWNOm59ijomtdda1tFfXGOu9bfc8M3OzptlyPf0l1+YeVWPjqeNW527tHrZVtEtlbv1ByZJO3e+t6gyyc6wRv9ec8u+cjXSt8dyiuiYvMR5RFEVRFN2nbsIkqwewc29eqiGz9SednufUmz/MBi9/zaip6W/hp7VP1Vp/fMM/YwqS1suuv85SDcqtB7pzHQRny/WD46nW5ajMuu44qNbxvJTqfeMch8yR9ox5ve8A48daJ25tHD3f1jrrWtqra4z13rZ7nq3jtEWz5Xr6S67NWdX7I+YNJs5TVOfuVD/E8TKfOrfn6PdWscfxus/x/K73m3P/QOOa47lF9YejEEVRFEVR1Okmdgl183KKnxAvqb6F1b211MnznPLwheqmec0YqcbOucfsEvIxqG981f7OGDOk9bz1wObGz8w41kPBqQ6C9YB5SyYZ4kCnOGDMrnEYuieTjPXLOHl7uQ/NjJvn3TrPe42mqnsyyXycT3lf9LZsGX9Pf8m1OaNqenPfPcW1XNfL1rdzl1Tv408p81z93qJ6/zzXDwW9nnPfo685njOqb+9FURRFURR1upldQt28bDWu9qgeorZu5rx9Ww+pW0T9XnY1iEa65JhdQnWj7UbYXiNLYkyVv86dm3MzB5ZzHAQR7fNy1+TpT7Uu18qsbbzGWwP3ZJLVg/Getnr+LXWivUZT1T2ZZHVtnmJd7un/bPpLq95vua/O/PBhSfWZxv3hqart5fMenbPfa6r3gXPdN+v4U++5dM3xnFW9N0RRFEVRFHW6mV1CfSvnXJu6uqGbqcfzbT2kblE9DG49UNUxO2WbrqH6tpi/meWHiz1rw/ODH0zY1Ct85uBVDyKnGn9vz5bDpW/8T9WGtTLpezVpz/VGxEj3ZJK5Scv87pHyb60T1XvLXt2TSVbfFKbtT1W91275gYSnv+Ta3KI6n+cwNnzNw1PNIP9hBvC8mNUl+j1SXc/n/MFC3eec6wdo1xzPPfL7NkRRFEVRFHW6mV1CNRzg1Jst6qgb95mNtufbekhdU/01LL7funEmneeFUxwIryk3XnyMfd5mjCyJQ4Lygw4NdZM/e2g59UGwtnPL22m+8T/VutxSZvcrhOcytzvVubukETE75t7OvXO0p4y9RlPVNcZ6b9urQXCKNzyrIbzlOvf0l1yba+K5Wp855zA2qlm5574tMd5e1p5r6FL97lTX5DkNMuT3J55R59A1x3Ov1NZzjksURVEURfevm/pRWn3bh43kKVXLnz3Qe969B92qevia/btW9SDJxu+cm+9zq/aHvrDx9rA9bxDUQ5bm3uvbs97qQfCph2E/3MCWvnqeU63LrWXWuYGnHIZnFJNsXfV62qt7Msnqtc7h/Sn3xNr3rc8Nz3PJtbmkamwA/TuH6rg95Xle18LsPeaS/a6qBtlT1+OaeGZ4facwiauuOZ57VX8ANbv/i6IoiqLo+eimTDI2jnXjdaqNzCk2qp5/70HXRd+eWiZ9qG8znaJtiE0vZc8ad09RNV2YN/9Vp6f89JdxqeW4Sbmnn/VAwrraY+KhvZt479ep5n6mzHptwSUOTPUQfkkjYnbMvZ175mjvvWKv0VR1jbF+StvreD3FKKg/yNh6fXueS67NkWh3fb7Omk2zqs+mPfXVds8+A67Rb6ne02kHz7hzql43e59HI11zPJ8iv2eD3iaPoiiKoiiquimTDNVNJXDgecpPXuvbPrBng+T59xx0JTaZdcPGQWxvH6uxBJS/tzzy+Ub70gc834Az9/63aLYaR53q3xWqB/+9h5d6IN8zl/Un83y/9XDja+kp69I1W2a9xi5xGLwnk6yaBVvnlnVU1xdsned6YN6rezPJGF/PC3sO8nXsZ8w2z3fpe2gV66iafZcwNp5qEnXtnnl2X6vfqLunn/ueiPxeQ99PqWuMJ+PGdbj1ntmpe0ZHURRFURSNdHMmGepMLTZ+HNRmRPq6oYO9mzovY+sh1cUGk8OSb5yBNj5lA4jok5cJjNlMX2kf6euB/pJvkiHf0DJWPl5P+elvPTj72qDPe8W4dXO69UBEn2r+mXmbNWy2aE+Z9Q9rM6aMzbl0TyZZNXxYH2tjw/rp7l+wdU6eYjS57s0kQzU/bG03c1PX85Y5c3neS4zXSLS5rqO9z8A98msFuNdteZZzv67t5tmwVdfs97UMMurw/p7y2X2t8fT6mP+ZceyuY7jEXERRFEVRdL+6SZMMdQcc4OBNHJvsaiyxISKcjWHdzAEb1ads6rysLYdUNmK0h/Z2GzWVQ7tPIfrW1cGYYTzSlloXbcSkYfNZjRqYOZScSvXtA+epY1UNQDHzhkgnxnE0fvSnrlXSj9bp7Jj7IXSrebKmPWUyN7U/fD7V+q5iPXtdlzQiZseHMajrg8+sAT+wkU7XY03r95Ctc1Lvo3t1jbE+RdvrOAL3AMadPrl87Lu58nnaIs9/ybVZVa/J2fvLU9XdF9SOem8crX+YvZdcq9/0p66fS5lzddxmxmtN1xpPr1NoT9M9W/k8uo7hUnMRRVEURdH96mZNMsQhZmRqzMKhcvaQU9WVuxf6dY7NGn3sDiSz0D42mtcQG/uuTfTrqereUoRT9JWxf8p6ZUO/Z03MGjZbtLdM5q4eTM51mLonkwyxPrpD2xqsKfK6abS1zlMYTeheTTI0uua3wljvMRu8jEuuTdfoByenYKZPjN9TnkvcQ2bm4Jr9rkbVKanGbpXfXzDVT6Vrjid177lvVihjbfyiKIqiKIrQTZtkEj/132s+cMA51cbID8Z74aCwxwiZFXXsGbNLtW9N3Zt3T33bC2GG1XLhVOIgx6Z/dlPPwar+RHyrfF1uNU/W9JQyOzPoHCbBvZlkiLHxvGuw5mUO0D+Fb63T88Be3bNJhmj/zLgD98+n3Au9rEuuTVcdw1Mys+7Rnnsjc7DnBxjX7PfsOpthaR3VZ9spn+PXXkdaO3v2NKw38s6YrFEURVEUPW/dhUkm6W0KDJTup9JshthwYTiwQdxrOoxEmTMbfNpIezjonqM9W6Qxox3dmBHGeGJEXqN9I7Hh9w0x39OXU8gNOG2gTy025Mw5a7E7NJ1y3P3NBb4/hfztmz1l0nefv1O1y8UYqw7m8RRvA27VU8cH04Yy6tqgH6N1wZgqHfFb5HkYq72iLT7Wp/rBw5K87YzTKeT3Q1+f6hfhzMsp1pKXT1+uIeaNfnk/T8Xe+6bujaPn+Cnm4Jr9rmbVKVm67upz7ZS6pXXENcz9j/7W+yec+jqOoiiKouj56a5MsiiKoiiKoujHhfHoRtE5figRRVEURVH0XBSTLIqiKIqi6E7Fm1Vukp3qresoiqIoiqLnqJhkURRFURRFdyr/tdWn/Fp1FEVRFEVRFJMsiqIoiqLoLsXfC/O3yM7xNzajKIqiKIqek2KSRVEURVEU3aH8n4gAplkURVEURVG0XzHJoiiKoiiK7lD+X1T5r45RFEVRFEXR0xSTLIqiKIqi6M70mte85iVvkX3pl37pu2OiKIqiKIqivYpJFkVRFEVRdGfCJPspP+WnvPgW2fd8z/e8OyaKoiiKoijaq5hkURRFURRFURRFURRF0bNXTLIoiqIoiqIoiqIoiqLo2SsmWRRFURRFURRFURRFUfTsFZMsiqIoiqIoiqIoiqIoevaKSRZFURRFURRFURRFURQ9e8Uki6IoiqIoiqIoiqIoip69YpJFURRFURRFURRFURRFz14xyaIoiqIoiqIoiqIoiqJnr5hkURRFURRFURRFURRF0bNXTLIoiqIoiqIoiqIoiqLo2SsmWRRFURRFURRFURRFUfTsFZMsiqIoiqIoiqIoiqIoevaKSRZFURRFURRFURRFURQ9e8Uki6IoiqIoiqIoiqIoip69YpJFURRFURRFURRFURRFz14xyaIoiqIoiqIoiqIoiqJnr5OYZG9605seXvWqVz28/OUvf/isz/qsx69f/uVf/vDGN77x3SmiKIqiKIqOo+x9oiiKoih6Tnoue58nm2Sve93rHj7ncz7nxUF6xSte8eKgEf7a17723SmjKIqiKIruX9n7RFEURVH0nPSc9j5PMslwEhkQ+JZv+ZZ3h75L3/Zt3/bweZ/3eY+Dlp+qRlEURVF0BGXvE0VRFEXRc9Jz2/s8ySTjVTsGow6U9Pf+3t97jH/lK1/57pAoiqIoiqL7VfY+URRFURQ9Jz23vc+TTDJer4MlfcEXfMHjgEVRFEVRFN27sveJoiiKoug56bntfZ5kkjEI/C7qkvhDbqQLIYQQQjgC2fuEEEII4Tmxde9zBF3sTbKP+ry/Gy4IevnfeGMbF0IIIYR9/I+f9TnZ+9wY3/7Pfujhb3zH97dx4fmSdRGOzB//y294fN583P/8D9r4EE7JzN7nCHqSSSa3kD/W1uk7v/M7H+P/u8/6M+1gh/OBYpKFEEIIp+VTPvuLs/e5MWKGhI6si3BkYpKFS7J17/MlX/Il7w65bz3JJOO/F/AfDvhvBvyxNhcD9bnv/i8H/9/PfU072OF8oJhkIYQQwmn52M/9xofP+uzPftzjZO9zG8QMCR1ZF+HIxCQLl2Rt76P/bvmGN7xrXd67nmSSode+9rWPAwK8YsfbZXrVDv7Q57y6HehwXlBMshBCCOH0/MGXf2X2PjdEzJDQkXURjkxMsnBp1vY+f/Nv/s3HNXkEPdkkQ7xRxqt1GiDg1wzyU9TrgWKShRBCCOeBn6qy18ne5/rEDAkdWRfhyMQkC9eg2/vgAx3lDTLpJCaZi4HqBjRcFhSTLIQQQghHJ2ZI6Mi6CEcmJlm4Jgjf56iKSXZQUEyyEEIIIRydmCGhI+siHJmYZOGaoJhkE4pJdhugmGQhhBBCODoxQ0JH1kU4MjHJwjVBMckmFJPsNkAxyUIIIYRwdGKGhI6si3BkYpKFa4Jikk0oJtltgGKShRBCCOHoxAwJHVkX4cjEJAvXBMUkm9AtmGSv+t/e9O7WPDy87o0/1KY5JX/01f/44e3v/LHH+r73h97Rprk06N5Msrf8yI8+tpuxZEy7NCGEEEIIzr2YIbe4X7wWf+3vfu/jOKBz7dVjkv3dx7GVOB91acJ9EpPsduB+juoZ9h/+i7c9hqOt198l7o2nAMUkm9CMSeZmVtU//4G3P3zzG9788Hu+dP7CJ6/E912aU0I7XV2aS4O2mmQzwsjqyjgFri/6xn/epgkhhBBCcGbNEDerRiK+y/sUbnG/eC18LM61Vz/luiD8u773hx8PsF3eW8XFmHdpwn2yxyRz07QKo4f4vKgwB2dWl59h3ZPYev1d4t54ClBMsgnNmGR1s9CJh9JnfM13t/lH/K//8AfenfsyDwQuBj1U62Le4yCfAhSTLIQQQghHZ9YMqYeaTntMMvar2g92b4ot7RevzVrbT80lDoLnWBeIvX2X/xbB2EPMbd4kG3OPv82yxyRz02YkxmD27P2c4YUerR+++vrx8Y5Jdl+6GZPMFwEPKS02dE5j5tzsuThOAdr765bXbLMUkyyEEEIIW3iqGdKl2cO5yr0El277JQ6Cp1oXHIL9B/Do3t4oC8u47uUM8lSTzM94mGL6lUF0z2fvW2LPmfoS98ZTgGKSTegUJhnUX8W8V0d7z8VxClBMshBCCCEcnZhkT+fSbb/EQfDU68J/O+Se3iYL67ju5QxySpMMeAPKlV+7fDp7ztSXuDeeAhSTbEKnMsnApRuW/yQH44wy9Hq4fqqz9gfvKIuHm/IhHPPu97CpQ6JuzDu95aYHJGlUll5R9zZ0Io9egUaU7fWC97WLXwKdyyRjjBgr/4kDoj/dq9z8BI70/nZgl9blDyhfJ+TzPCGEEEJ43lzCJGPP4vs27Rv1t3N9j1OlvUu3XxQKJ632TQqjbO3HiON71Ueabq8G7EUpT+Wg2m7Y0nbBHpD9r+ehL6M3q6jH99zkI63v7c51EDz1ulhrM/3yPTR9pu8js4E15Xtpxpq02v+T3/NqDPnq5QB5Jd9fU7/k4X7GGJ2nQOvN28kcEuZrqCuT8az9I5y0xHmbGTfFVWbWnMrUGJGmG2Ol9/Gp6sb5lji1SQYuP4vBzDwA68HHnu/reVZrjnL5TJtUPnGE13UmaB/xKgORl/ubzzGwtiTaoL4oL/lq28SWfnibve463t01X9c96aTuPqNrx/vN5zpf5wbFJJvQqUwyLgiXJt7z+CJDxK2Vy4W8JBacL1bqlWp9KtvTIMK4eJZEHbUvqlPoRo9GN6AR6Bwmmd9kRvKHMPNYx83lZbs035TluvQNIIQQQgi3zblNsqW9o/ZJfmCpYj9HmqV6JQ5bOnBVcagb7ak4GHp5vofs5PvOLW0H9oBLaXXQFUt7QC+nOwieglOvCx/Tuj+m7yPVswWM1hRpvR7f97q8LBjt3UfhfC/VOVK6tT08cW5geJler4v+eToXcZ254Wulqq45r3fUBq4vtXvpOqFeL/vWOLVJVs94NW5mHpauh25Ns5ZGa62uM3jqeX7Ul2p+zfYDebiP96hOwn3d1+tI4bDW71m/4CmgmGQTOpVJVheBLo7RjRXpYh+V6xcIC1JmDmX7RcDNs8tTpbJrGuUFvzjUPsEF4fILhDa56s1hDXQuk4yxYzPmNx8+Sz5+bhbqBkpfmF9PBy7GlPHwG8olL/wQQggh3AfnNsm0F+Gr9j58ZV/j+6S1cpfiq3RY8z2tpLi6V/Z9JId/9nOk0R5yaV+11nbK8LxqA2X64ZZylMf31qQhLeXUw7Dv1U/JqdYFbfZ5YBx8rD1O/STc98DeR+Jdo/lEPp4uhYnR3n0U3q0rSek8L3PJOIDP61KZGguoxu9oPeisAMTNrjlvM1K7axtUlnB5ebfMKU0y+uxj6qb77Dxwb5SIJz/hnLupf7Smkdqk86bk80V+iTR7zvPkUzt83RKuPHv74eGj9Qg+dv7DCG8P+RVe+616+Kqx4qvaeW5QTLIJncIkY/FpspFfqJ4H+c0Plsr1nxZUw4UyvE5feC4WNPWQXhulmsbL9YuDdnkc+AXiNwB/UPqFsxV0yb9Jxni4FO5zUce84mJMfWy2tiOEEEIIz4unmiGdtKcEqf5wr7K0H1yLd9UDvO9Pa5zvlSjf4zr8h5q+t1pru+9L3cgA9u2Sx3X7amDP6IaF79VPyTnWBe3W/l94X3zdgM+P4phDqfbd45CPm8vzwGjvPgr3/Tmq5ymQ6rr3Pb/HeZmEk05x3q8a5+vHx2PPmvP+1vOTt6HGubZcR7fAU02ykfzcDbPz4NdRTV9x1bS+nriOFH6K83y9hj1Pd76f6YevHx9v+uDrvrZJcd5vvx5og1T77ff1GncuUEyyCe01yUZicfiCGl0wzmhxuepDDHwhUwZhowXs1DQe15Xp+I1n6w1gC+jSf7jfpTB/IHED4iLuxh5cvqlYuzGFEEII4flyDjPED1F+gGKPNNqXLe0H1+JdpPM435ctxW3ZL/oe2fd4a21f25dKtIfPa+V5O5Tn1Jx6XbAO6uGaz1I1k8D7qbnzsez22S6fb5enB18HXuYo3NvVnad8/97tw71chXmZdU59bJfifAxn1xyM+gtLbXD5mN8y5zDJurmenQe/JhBljsbUVdP4fKEuz97z/FIeteMU/eja4riUb3Qd+XOo9tv719VzDlBMsgmdwiRjEXBBdhfiaOFsSePy9MLzaYH5okM1z1qatYsD082lh6+rM+bWQOf+w/2erkppabsbXhJ560ZjpK4NIYQQQghwql+rG8F+tIq9at2frJW7FO8incf5fmsprraHdrOfxnjo5OnX2r6053PJ5PDyyFvLo26piz8Fp1gX7GM5HEvMu+/La54l6VyzNJ/g8niXp4fROhiFr42/x69JB/alMpfWQzfu4G1fkhtro/7CUhtc3ZzcIqf6dUv66wZMHbc98+DXjEQ8b5552a467qN14fL0wteh99FV83gfvR1P7cfSegSX8nn7fZ1uFW1WnnOCYpJNaK9J5otgiS15tiwuTy88H98TtnZRraVZuzjAL0DMJ391lc1Nl2cNdM6/SbYmz8NmgnJqPj67E+7y10ZRNdRCCCGEEODcJhmQx/dHEvsVT+Py/GvxLtJ5nNe7FOd7tu5wV+Xp19re9b2T9q1eHnlredQtdfGn4JTrgoOxtDRuS9Jedmk+weXxLk8Po3UwCl8bf49fEnv5Lk8tc2k9jMbd274kPyuN+gtLbXB1c3KLnPJvkvkPAphTN4L3zIPK9OtGcoPJVcd9tC5cnl74OlQfR2UJ72Ntx1P6sbQewaV83n5fp1vFW6DKc05QTLIJ3YtJtvZ6phbY2kW1lsbL7C4OcFOMi9A3Nvqp0yzoHCYZN0CJdo5MLs/j0NfRr1K6GFNvR/cqeAghhBDCJUwywb7H95lIe6G1cpfiXaTzON8PLcVpz4YZI3Hg9cOct933eGtt93q8vBFr5Xk7KLvGn4JTrouRieB5tu5VuzlzXD7fLk8PozJH4Wvj7/FuBC+xVKaP01IcUri3fcuag1F/YakNLh/zW+aUJhmMjOA98+BwP/LzI/UozlXHfbQuXKc6z3ue0fzv6cfSeINLJvroOnK5iXktUEyyCd2ySebmTDWfWGw89KStG561NGsXh/C6/fu9FwE6h0nmcbVtLg+v+Hj5/LhIwxz4WFzKGQ8hhBDC/XBJk0z4fojyCFsrdynepfJEV1cXpz2b11MNDt8j+x5vre2eb4tpwh7RpQOg4vxA7nvBU3LKdVHPCX6OcG3Zt/tvS9S3b/xvgSGfb6/fx5PvXT6v3foAn89u/H0stpp/S2V6eUtxSOGzaw5G/YWlNrh8zG+ZU5tkPt5uAO2Zhw5XF+YvTsDoOjnHed7HZW3+XV2Y5/dy63WE4SjRZoX7ePs69bL2mJWnBsUkm9Atm2T1p0BaxFxA7gz7hbh2Ua2l8baoXOqrD1G/EUj1wTkDOrdJpjj64+FI6UlDP3Qx029/U86NL5fmxjcLzJludiGEEEIIcG6TjP0H+xE/cOkg5ocbcMnI0Nelel3aAwnfYy3FaV/m9XDYVbvpg9qN6h7PVdtOGS7K0l6WOPbY1OXt8701B0TSk9YPuYg+KM8pOfW68P2rH3hruMYMKJN47yPxLh30fc8rjcaT7xlPyvI5RT6v3foAvpdG4+9GJn3QOqJe9vXk21qmj+1SHFL4njU36i8stcHzUQ9hPo+3yKlNsjreOrvNzgNfuQ4IVzpf236+rdLYU4ava10jwPcSaVQvbanXiPL43COFCx+Xp/ZD+cHLRVxHlEVb/T5IuPKMrqPabzfKWKvkI1xh5wbFJJvQLZtk4A+yTixYXQiwdlGtpak3FskvIKgPTOQ3hFnQOUwyLsiR/Gam9D4XVXWsXT4+fhPZuk5CCCGE8Dx4qhnSyQ8bS6p7tW6fqb3L0n7RVfeIvi9bivM9m++dXL5Xq3u8pbaDH9JG8vaxB/b6XF7XufZ2pzbJ6l5dJgp72dF4S7WPo/OIG1PIx7O2z+Xl+byO1ofvz0fjT/9G8ydtLdPbvhSHPG52zY36C0ttGNXjaW6NU5tkMDKZZuahzqeL9aTrBlxL9wqlF6PrR5o9z/u4PLUfyl/LHbW5tnXpOlrrN/L05wTFJJvQjEnmF1x3AXR4ntErn2tpiPdFi/gs99rxBwSLuMZvSYOx5A9PvmfjUNPVNvkFMwvaa5L5BchY1fiuP1zQctcZC6WlD8xBl772TxsD8vv41Id0N3YhhBBCeJ7MmiFL5o3kexn2PRwYlYevfPbDkGBvwz7K0+owurRfHO2BwA+ufjCrcf5mQdcO0nob6r53qe2CPpPGzRy+J6wbD+rzNtJv7S1VD3lrvlMwuy58bOhTl8b3sz5+jB2fR+eLuucFxtbnnXEgnauOKZ+9DVqHtF3ydUCZkodvOU8Ba7Hu42kr9dYzwlKZ3j7yjuLqdQEza27UX1hqA/h8oC7NLbHHJPPxGZ3xJObZ42bmoV4LSlfvbS7qZt34NVjvPw7tH11vNa1f290aY64l0ip8az80JtThcSpXYzm65pUe1q5N4ilX/UH0ibS1XecExSSb0IxJFl4KF4rE912araC9JlkIIYQQwr0wa4aE58G9rgtXNR9CEHtMslvDlbV+X6CYZBOKSbYPXGR3hJ96o0AxyUIIIYRwdGKShY6YZOHIxCQL1wTFJJtQTLJ98PqlxGuYXZoZUEyyEEIIIRydmGShIyZZODIxycI1QTHJJhSTbB/+u/7d71LPgmKShRBCCOHoxCQLHfe6LkZ/3ygE5wgmWdb6/YJikk0oJtltgGKShRBCCOHoxCQLHVkX4cgcwSQL9wuKSTahmGS3AYpJFkIIIYSjEzMkdGRdhCMTkyxcExSTbEIxyW4DFJMshBBCCEcnZkjoyLoIRyYmWbgmKCbZhGKS3QYoJlkIIYQQjk7MkNCRdRGOTEyycE1QTLIJxSS7DVBMshBCCCEcnZghoSPrIhyZmGThmqCYZBOKSXYboJhkIYQQQjg6MUNCR9ZFODIxycI1QTHJJhST7DZAMclCCCGEcHRihoSOrItwZGKShWuCYpJNKCbZbYBikoUQQgjh6MQMCR1ZF+HIxCQL1wTFJJtQTLLbAMUkCyGEEMLRiRkSOrIuwpGJSRauCYpJNqGYZLcBikkWQgghhKMTM6Tnj776Hz+8/Z0/9rgn/N4fekeb5shkXYQjE5MsXBMUk2xCMcluAxSTLIQQQghHZ9YMcfOoivB//gNvf/hf/+EPPPyeL73vw+c3v+HN7+7Vu9SlOTJ7TDLmnLnHVJRYE9/1vT/88Kr/7U1tnhCuwV6T7Iu+8Z8//MN/8baX3ANZ76974w8t3vPq/YQyunTheYBikk0oJtltgGKShRBCCOHozJohHBK3iEPkLRsjf+3vfu+7W/rweMCt8fRTB2GMvxp/dGbXBQaBm2OdunwhXIM9JpnfMzphhHX5wE016d5/kBD2g2KSTSgm2W2AYpKFEEII4eg81SSrcbw15LpVo8zf7HiOJtgas+sCo1HCLOONQ8L5ylhjEtQ8IVyLWZOsvkHLG5OK4x7HPWRkkhEveRmYbl36cHxQTLIJxSS7DVBMshBCCCEcnVOaZIJfJZI4FN7iGxMxyZaZXRd++M+vVoZbZ9YkwxSTZv9God8Pn1JOOA4oJtmEYpLdBigmWQghhBCOzjlMMkyx0RsT/qbZZ3zNd78knx8g/VcgPZw8ejMJqWzqJB2Gl4uDKOEqizdClqS01KM6usMs5dDGt/zIjz6mQaTnQMwY1fQqi/7TVvqgvMSt/U2jSzO7LlwzJhnzV98+1JzV8fB14HMKzJdU58vHnnRaI4y/p6Pd3hbimU+9FSc0f9QjkZawW5rDMGbWJHNTvbsfLFHvI666tsLzAMUkm1BMstsAxSQLIYQQwtE5h0kG/ut3GA8KdxOrmkl+EPW3u+oB1UUcaXQQHUmmm5spnWS+LPXTDbSR6q9SSZgpMseqfJyuzey68D4xR51RWPE3bDpRjptOvg4072JpviTaWOdNaZba4muR9tQ16KptDrfJrEnG9exi/W2ZZ/9VS91b3IitZm94HqCYZBOKSXYboJhkIYQQQjg65zLJ/K0fNxmeapJVySzB/MDo8LeY/ICK/K2NUV1i1E8Oxm600E8dlr3PyOur0uG41oMBpzzXZHZddHPEuI7eKvP0GEvqN2PmJhRz2uXRvIstJlmnmpe51bqkLdQ/MnmJY+7BTbbatnB7zJpk9bpHfGaul94G83WhNe6GG2u95gnHB8Ukm1BMstsAxSQLIYQQwtE5l0nm6dyEcpNBZoRwE8TzeDiSOcHhdOmACm64eH2jusSon26E0Q7PA94/N0tcMsjELb5ZMrsuwA0BF2NSzT83HOocjsbe58zHdikPuNwE01cf//oGoEM7Jd5K8zjWo1Tjwu0xa5LB6A1SmWU1/WhNeDhau4eF44Fikk0oJtltgGKShRBCCOHo3JtJNvvmxai+UV1i1E8vrzNURuW6lvrN9x53LfaYZMCY+K9eShgJMsp8bEeGkkvjtTROo/kCV/dmm2vJsJgxSGtcuC32mGTA+hiZwXVN+Btj/jcWwY3ZW7nmw+VAMckmFJPsNkAxyUIIIYRwdM5lkrmh4GaRGwlLZpHnGYU7vJ1BncR3b3sgr2+tzFE/l9oPns/LdS31+1YOzHtNMoEZ5WOFNB6jMXK6cV4aJy8TeZyrjn2Nr3GO17+mvB102+w1yQTzy3qo9xpfX26E1Tcp/f6YNw+fHygm2YRikt0GKCZZCCGEEI7OuUwyf9vC37DozA/hJoSbJ6NwgUHmv1Y5kte3Vuaon0vtB8/n5bqW+s33HnctnmqSCf8HDoiw0Rg53TgvjZOXiTzOVce+xtc4x+tfEsZJlz/cDk81yQRmmRtlWpf1VyrXVE20cGxQTLIJxSS7DVBMshBCCCEcnXOYZBwQ/eDov+K2ZDK5CeHmyShc+FsZmGV+4BzVt1bmqJ9e3tqvW/offHct9ZvvPe5anMok68bRw7b8uqXmc2mcRvMFrjr2NX7pDTCvv/76XLgvTmWSgd8TtC79Vy23KOvpeYFikk0oJtltgGKShRBCCOHonMMk87fIqgky+iP1GGv+t6zcuHJzojO0PL7+zSk/wLpBslbmqJ/+ZlT9G0Tg9bmJ5qpGjbdFh+xrcyqTjPmQtBbqWzbVmPKx9/XjZqgbkODrCnmcq449+FuInfEpvF2zfxsv3BanNMm69eP3ge7v4EF+5fL5gmKSTSgm2W2AYpKFEEII4eic0iQjrpoVa3+LB4Ok+3VJN65mTDLqpzyov+rnBon3g3YojwybUT+Jd8noI6+3Q2Uqn8vbAfdukjHHvDnIePt800+fV++bG6mk8XH3PG6kUrZL4+hlScoDrjr24GuSfigNbaLNvuaYV4l61W7mWn+H7VbmMIyZNcm4rzC3mGC6rus1z9ohrN4j/D7g1PVc75XhuKCYZBOKSXYboJhkIYQQQjg6TzXJRsJM6AwJDoz+q5guNztmTDIOpaMyPby2xw0PSQZH7afnW/tVKuqsB15XbYf371YMlpl1sWVN1LfuWAfVGK2qeYD570RZXp7ncXVrEpba4muOeR2tNelW5jCMmTXJRutO8mveTdf6xmPF70H5lcvnA4pJNqGYZLcBikkWQgghhKMza5ItGVIc+DgU+tsWHZThb5xhUOjXlFS2HxjdlBodJDmgepm0BZPFDZxqXHV59KtRbobQPs8HlEteHwvS0b6u7zoMk15vHwk/VPubU9dkdl0wR4yHH/rpK2EjY4pxwlByg0p5Rr+iRh7GWONOfZRBuOayztfS2Du1LeTzt8UEn2lD126t43DbzJpkmvNqlrEGtP6UVusQjdaxIK/U/QAgHBMUk2xCMcluAxSTLIQQQghHZ9YMCc+DrItwZE75N8lCmAXFJJtQTLLbAMUkCyGEEMLRiRkSOrIuwpGJSRauCYpJNqGYZLcBikkWQgghhKMTMyR0ZF2EIxOTLFwTFJNsQjHJbgMUkyyEEEIIRydmSOjIughHJiZZuCYoJtmEYpLdBigmWQghhBCOTsyQ0JF1EY5MTLJwTVBMsgnFJLsNUEyyEEIIIRydmCGhI+siHJmYZOGaoJhkE4pJdhugmGQhhBBCODoxQ0JH1kU4MjHJwjVBMckmFJPsNkAxyUIIIYRwdGKGhI6si3BkYpKFa4Jikk0oJtltgGKShRBCCOHoxAwJHVkX4cjEJAvXBMUkmxCD9eXf/KZwZdBr3/DmNi6EEEII4Sj8y7e84+EN3/PDbVx4vmRdhCPzDf/gBx7Pe3/ldd/bxodwTlBMsgkdebCiKIqiKIqiKIqiKIqes2KSTSgmWRRFURRFURRFURRF0TEVk2xCMcmiKIqiKIqiKIqi6Hz6xm/8xhCuRkyyCTFY3/eWt4crg37oh9/ZxoUQQgghHIV3/uiPPbz9HT/WxoXnS9ZFODJvfts7Ho2Kr/661zz89a/9hhAuSkyySTFYf+cffX+4Mui73/TWNi6EEEII4Sjoh4JdXHi+ZF2EI/P6f/aWR6Piy1/9NQ9/7i9+dQgXJSbZpGKS3QYoJlkIIYQQjk7MkNCRdRGOTEyycE1ikk0qJtltgGKShRBCCOHoxAwJHVkX4cjEJAvXJCbZpGKS3QYoJlkIIYQQjk7MkNCRdRGOTEyycE1ikk0qJtltgGKShRBCCOHoxAwJHVkX4cjEJAvXJCbZpGKS3QYoJlkIIYQQjk7MkNCRdRGOTEyycE1ikk0qJtltgGKShRBCCOHoxAwJHVkX4cjEJAvXJCbZpGKS3QYoJlkIIYQQjk7MkNCRdRGOTEyycE1ikk0qJtltgGKShRBCCOHoxAwJHVkX4cjEJAvXJCbZpGKS3QbokibZV379tzx84Su/6uEbvvn1bfwt8Rs+6qMfXnjhhYc/8sc/rY2/Nxhzxp456OLvGeboHubqp/+M93ls5xHnIHz/w2d+wSsfft4veP/HOYaP/wOf1KY7FaNrWveuT/1Tn/+S8C/7itc8pvewEOCW702sW9r26z70w9v4GWKGnB7uM6ean2uRdfG8uJc946m4lEn2e37fH34c11/6y35lGz/iv/5vP/3hUz/95W1cuH9ikk1qr0nGoeC3f+wnvOsi/OUf0qYJ20FPMcnYHDEPP+knv+xxToDNNmE8fOqGm3DSzB4e9UBb24SRhrZ0cbPsbesWNF4cqLv4c0A/qPOI1436dm5T4qnQRohRcTy412l+ua51X+zSnorRNT26d6l9z3X9PfU54gaow3gvHbYwTzUnwDOSfUz3wyLCMDllWgHtpYyadg3KYg14u/metta6FX+La4M20ba6zvdwCjNE6wju2Rg6FaP70D1xCZPsudx/unbSH9pQf3BzLbRm6zPyqDzVJMPEwvj619/rJz6OG19/zX/46x/DPd1H/Rcf8xj/777/B74kfAnK0Drp4k/Bn/7iv/CStmPmdekqf/ATP/nFtpGvSxPWiUk2qT0mGRslv3Hf8wP5VkB7TDJ+sutzwffMB9SHq+fjM+H1ga7Nw+iBtXUTpnq7uFmoa6lNe2GzoXbCnsNPx9oYbt2g3SNaH6eeq1OjOY9JNofuG7PjtjffHrQGL3l9ja7p0b1L5jz37y7cw57Cqcs7FZqjvc8RhXMIpAzw5x3hNY9+qOf5ND7k9bQYrYrjK2n9wDlzwGSOVRaovQqjXD8kK90t3ptok/rQxc/wVDNEZrjG8RRtunX0Jt+or1uvq1vmEibZc7n/KP2onZhwXb5Lormoz8hzs7ZPPxdPMckwwzR3/+ZPe+9HA+xn/Zz3fTHMDac9JhlvkJHnnCaUG3FAP7p0FdJ5vi5NWCcm2aRmTTLd6Llx63tuvF3asB00a5L55pvDWX1bDAjjYbD1QbD2wFL82pyTBrq4WahrqU170cFdvxJ1qg3D2hgemXvpO22EmGRz6FqcHbe9+fZwS2tw9t5FWuji9nDq8k6F5mjvc0ThdT3JxAE/SMpc6PKQrh5S9WzgqxtYPE8J45nq6Uf4M5rnS31jpDuojdp5C2h81+ZtC081Q/zaOlWbbp218T/CWNyTSVavUc0P3ML9Z1Sn7jtwqh8O70Vz4ffAS3CteveaZDLIMLDqW2P/w8tf8aJZprA9JtklcJNMbeYtsS6t0FtkbhJ26cI6MckmNWuSsTh14157YIftoBmTjPHXT4RO+dOgtQeH4vduLvZAXUtt2gPjR5mMIRsPvucw06WdZW0Mj8y99J02Qt08hmV0Lc6O2958e7ilNTh77yItdHF7OHV5p0JztPc5ovBuPemHHuxTFLa1PrFU/gyaf29LhQO0H6hPVfc5oE20bes4LvEUM0RvgTPXp2zTrbPW19l1fovcs0kGt3T/WSqna+c10NjwtYs/F9eqd49J5sbS0t8L+08/8je/+P09mGRb/24a8aTzvF26sE5MsknNmmR+s117YIftoBmTTD8Jqj+B2ooekNqcay47fH63PuyVt4brp+o1HNSn+lMy6iKcujlQ8FBX+bxGvmcjQb/Jz9uQfNar7H5Y6SDeX3vne9rlpnGHj5fqZg68bEH/vQ7mmLTdm4KaR8aF+n1s+J7wmgc4ZNQ6NBZbqPNA/6h/beNBeB2/Ouaa79FcaJ3UOuiT8gJ90tx4OlCabu3QN8ZVaxUod9Qe0slgrePKGG2ZN283cWpzHedReWLL+IKMYcqjLvIxXoRp3Dw9n1VmpaZ1ZvLNjntlqS7KJg19ZZ1vGSNRr6vueiQ/cYR7Xs1r7avGWmX4/Fd8jW5t/9byYOa6WUJrVfPH1zpOQnNFvTXOUZtG4d3125W9tT6xVP5WGA+Vs3TNVpbqnr1GlK6LGz1vgbn3elgT1EGbVGfNM8teM4S20R7axvd72qT8fE+/dD0S5teq38+J49obXReEE6+ygLyja4nxJQ1zSh/qfV73LKG4DqXxdU6dPoe0hf54mULXrsojD59HfT0ne9eF+qD+8vU5339gqZyuTXqOcU9gPLWW+ep5iZu5D0FdY6SnXWoHXz290nZtpyziSFPjgHbUZyTls54pT+GVrfPzFPaYZDKJeJOqi+9wk4y/A0Ze/S0w3uDq3t7ijTTi669Aysz6mI/9uMc0W8oa4UYX7dL3lNulr21S+pqOsjAJ/ddP+b77m2cqk3ElH2OlX+fkK59rnqMQk2xSsyaZo5vNJW4sRwfNmGR6AHQb3C0wZ+TXg4mHDmH+UOQzuHnSPVg7SANbw2H0sFRb1WcezN5W6B6kS6hM+s1nHRhGD13QphbIrzKANj91DHmA+4NdeX3Tp/YK4olT2zQ2nqduEtVX2kdbgH7z2dON8E2G+qjPan+dQ+8b6Yn3AwXtV1qNz2guVI5v+NV/75PS8bVu9gmHum60SVRZtFXlgLdTeJznW5oDjVmdN74H6qQthCtO5VF+7c/M+ILmkDzK59+Dr1na4m0gHZ9haWO8NR/fq96t415RXeqzygHGH3wMax2MWVem4tV2lcH3Sqc162HA565slan1x1grrcoRuuZn2r+lPPA1S35QmXyt62yExon2UTfl6JBDWL1vEa92eXiFNDAK7+77ar8/G/2e5etuhMZuZgwq6iNldPEj1M5T3ptqOKh9fPVw+qt1xlfq0WfVtzZvW9hrhqjdmkfN7UybSA++/n0sWcOgOK0H6J5LrO86Zp6nW0eKVxvqWPPVnxvEqY1eByiNxoY2qxzi+cz3UI0y2q4yde3SJvLU6/YS7FkXuf/0qM6und0YKIyxY9xAbVGaPfch73+9npSXuj2P0nRtV3nedqHrSfFeF3WwFgjTNaH2AGunlndq9phkav+MGSWTDNNHhhaGmcygrrzRm1oqy/9hwFpZI2od+hVKDLiaFlS34j2vwPRSu2gTbXOzrJpeagNplM6/B38r70jEJJtUTLLbAM2YZLqQuwfIFvTgqA8mPSRreI1fm3O1b2s4jOpWW4EHoG8a9EDkQed5lmDjWfMoDLpNiW/CfMNFWtrrG89RP2p8HUNtytk0+OaYOkb9HI0NX7X5qA9++kB4188taHNBfQqjLG1KofZdfa5t8XZqLS/NheLog8L8PlTTa9xqe1S+Xz+UrbGp5jPpFFc3uSoLvB7vm48VjOZNBxZBfsXxVWNf2zAzvqAxA/rlcb4JVt1C7fb0W1jKt3fcR2gs6pxTFmNR2yDTmHo83NdhrZvPXr7qpJ+eTv2ubVG5tS0K9zAx235YK4842ljneXTddJCXuoEx8zitpTouo/GqkAZG4T4W1O0H49onvz9Rbx1Hx69DyqK9tbw1RnO/huqtfaMdhO+5N3mY0BzU9mnu/d7j6WFt3rawxwzRvHj9vo497RLqB/h46loSft/2NVHXue6xfi8H0nmc59H6qPn4qjz1fr7WV58jyvB2+rx6Hl0Xo7fMLs3sumC8WP9Q5+U5339AZXR1af35Gqvrp9ZJH3WvmbkP7dkzqn1d2wkjrs6f5pt2MIYKpy7Kn9mnn4tZk2zvrxjKXALMH39TS8YU4Z5nzSSbKWtErUOfMbdqWpD5xRtffPa8gjKon68ejrFGWsrwcG8DcZ5Pb82B6jwSMckmFZPsNkBbTTIeVLqIa1zd5Im62dIDqD4g1h4ciuchRBkjVG/NPwqHUd0qjweqhwMPP5XpD8UlNEZ1TLQxrQ/4tbjK1jGkXx6uDUa3KaCfXfzS2Iw2iIRB3QBtQdc8beni1Z7ad9KP8qidvoEajbfmztNqo9XNv66Vai4SBj6WKruOlxjNm8qqm0ZgU0Zc7fvSvPlhps6R2lDX7uz4ah6hGzdtautaVLtr+BpL+faO+wilr2twCdKDjzdjTJiP24hRG9Xv2hbVV8dD4R62BeWr62WpvD3XTYfmr1v/oLVEmQrTeLFmGaMRpAEvDxTeQT6vy9GcetrRWmZc1HagrbR7631T7Z9Zh6D6vF1PvTd5mFCe2j7l6dbFqJ497DHJNKbeNsZptk3qY7dmNefdda/6/bBNWwhjfXRrQ+0DD1dZM8/utb5qfuhDbcto39j16ZrMrovcf8Yob61D/YfRuHR92HMf0pqlTE8rNM7k7cK78RldB6fcp5+LS5tkmE/V7NGvG9YyR3XtKWtEV4feSHOzCmRYYcQprOZdQ+m93d6G7m+8jdpzBGKSTSom2W2Atppk2pRBjWOjw3wIPWTrHPGZ8PqAWHtwKH4rNf8oHEZ1j9pa47c8GEEP0noI0AaAeA8HwmHLBmXUjxrvc6JrifnytI4OtV7u0tiMrk/l4etoMzdCbR8ZB4r39njfCK/IFPJ2ai7qAUJz5xt6PkNXNijey1EYbVOYxmW0jkbXXVdWF+9jrbpon6cFtbmL6w5Pe8ZXeUBhjtpX+zQKX2Mpn+Jmx30EfSYtX7v4jq59CttyeFSd5PFwlVHbQlitz8M9bAtd+2GpPMXRto6lvI7qZp115egZ5G0jXOVvwesDhXM/oH7VwUFsbb64DnVNiGo6O6xLlQ98X58dHaO5X0P1dGtx773Jw4TmwNtHnYTRR09b42lPFz/DrBmie1+dqz1tIj34GAuNdRendeNjpnEkztM6rMta5tL6GPVpra9qyyieOPAw5WHOuz5fmtl1oXHM/ec9UR61E7QWod5PNC6j9aOxnrkPqczR9aF4vnq46urW5Og6IAxOsU8/F5c2yUZ/uL8rc1TXnrJGdHWofDfDgPoId7Oq5l2jK2NtTLs8RyEm2aRikt0G6By/bqkHQZ0jPYDqA2LtwTEqr0Ia2BoOo7pHbd0a7+ghzkajxrF5IQ7c0BgdQEaM+lHjfQzXfkIHXblLfR9dn/RNZpPiR5ueSteGtXi1Yw03xHwutOFRWJ07pVui/hRT4X79dAeZivJ1YaN8XfzSvC2NscbS51Rha/j4eh6FOWpf7dMofI2lfHvHfcTS+AHriYMM8UKHEG/DlnYJ1enzAup3bQthXdkK97DK1vbDUnmKW6JeNx3q4xp+sBuNV0V5R+HeX5ko4PfvEaTRDx5g7R5IvNZE9/yojOZ+DbVndi0q31qY0Bx4+yifsNG8rMXPMGOGsOYZA6gH4D1tIj1046l56+K6Met+eFXpylRYl2/Up7W+qn2jeOKghvt1wNpmP1LH+VLsNcnWeG73H1DZDnkxrLo2ro3LnvuQyuzW+VK85rWrq7sOTr1PPxcxyd6zDn8bTW988YYXn+uvYda8Dnn522i0V3Rvha2NaUyy+1VMsoOCZkwyHYrYzHTxQg+COkd6ANUHxNqDY1RehTSwNRxGdY/aujXe0evuPOzJVyEOfFy1zsHLGjHqR42nvqWwSleu2tzVtXZ9sulys2zpJ+Gia8Na/N77hPqmzaOMxPpTV8LAw9ZQHtq2FFZRmi5slK+LX5q3pTHuxrILW0N5oItX+2qfRuFrLOVTO5bKVJourrI0frr+R3gburARqrPOgfpd2zIqW+Ee5sy0HxTuYVviZtizJkbjVRm1UeG1Tr2hseVeJnRQXWsL+EFsrb9qy5Zyna78LXUqzVqY6K4Tyids1Oa1+BlmzBAZEOx7qNvRM0zPdOazK8MhPXTjSRmjuG7MlN7DKl2ZS/lG47w2/mrfKJ446OIo200bxvUaRtlek6ybrxFr4yQ0FqPwWuct3X9gJi1sXT9L5SmNPqvMbp0vxS/NK2HEeTsVBp52xFq7zsWsSeYG0oxpc08mGeg/eOoP9OtvndX/TtnlBf7QvuI6fOxGbRAxye5XMckOCpoxyXRYWvuJkh4EdY70AKoPiLUHx6i8CmlgFN5tvkZ1j9pa47f8WpTMxTXquCp8y6Zx1I8a72Ooa4mNqad1tJlyA29pbLZen6TTTwjXfpqpto82gV3f1Y61tVrRwUiHHh2G/CfCQBhs+emtUB7aprC1daQNKmPl4V1ZgvWieF87S/PWjaHo5nTP+CoPdPFqX+3TKHyNpXyKmx33EaPxUzjrqNbVtW+tXY7KJo+Hq4zaFsJqfR7uYWK2/bBUnuJmrpsO1b1273BG41VRG0fhtb/0RXFb+8VYkn6tLUL3oW4tO7p/wYzZoDwza3Ht3rT1eUudhI3uJYrfOlZL7DHJtrDlPqG03RxqrLu4bswUVn944+j56s8u1eNlidE4r42/2jKKJw66OMF1ozU+Y/acir0mWe4/74nasiUtrI2LxnrmPqQyZ/aMsFTX6DogDE6xTz8XsyYZ6G2omf+4eG8mmf7+GH3ljTD+oD7Uv4HW5VX7+OP99b9sdoZXTLKYZJsVk+w2QDMmGQ9gbbyWNjJ6ENQ50gOoPiCUfu2BtjbnpIEargd89+CTCVTbpLbKLHFmNiVar0ubaC/PN7Qy17ZsxPaM4Vo/eOifaqPdoTZ15Tja0HWHKNqo+fVyCCcMtm7WwPNp89XV29W5hsr19jBfhK3NW12HKqt7q1OHu9rupXlTPV1cN6d7xlflQBev9tXyFD5zIIGlfHvHfcRo/EZ9GsWttctRnZTj4Sq3toWwWp+Hd/eA2fbDUnl7rpsO/cCm9n2J0XhV1P5ReDcWs/1S+7esr3pP6tII0uqevWSgUI7fO1T+zFrUeNY+zD5vvX/dmlE7ZuZ6xKwZMoJxmm2T+jhzLYHG2cdsdI8Xal/dd6iebp2O+qTwUV1q32gsiIMuzhnVfwlm10XuP2OUtmtnx9q47LkP7dkzgsalu3fqtwpqO6mD8FPs08/FHpNMJhCmkf9nyQommkylezPJgP4RrrfI6t8ogy7vkqkVk+ylxCSbVEyy2wDNmGSgzRnwUKqbWh5Ao00tnwmvD6anbsIEaaCGe3toH2F8VXugtsnjyO/5tNFfaw+o7rWHourzh7P6zbj4ONMGHtj+UN47huoLm4Zah9pU8yi8jhl01ydhlO8bLC9/bXNB2u7gR7g2O117NPa1b8Bn4rtNn49JVy7oOqBd9M/jaBd5ar9ID56e+hVeDS9t9GoeUHjNR7+0aavtXpo3wkZx3ZzC7PiqHPC0Qu2rfVXb1q6hylK+veM+YjR+6lM1DPw+6nX4GNW6KaO7P9R5Gc3zqFyl767D2fbDUnnKN3PddLC+VH+dP6CMetAZjVdF5Y7Ca7tB/fL7L9cFddZrg/y6n6mvfKVddZwZE11no3t7RW0BxoAyPJ7xon6/LpTe+7b3GlF76Y/q5qvWBdS1qTjPAypLcZ5nD0cxyUBriDHyMWPe9jwDlvpEONS1DGrfaCyU18Noe13rrFXS+bq8FLPrIvefMUvt7Fgblz33IdqtPvo8EK59HdTrQONIXh83rU2o7VT7GR/PQ120V2MMusa2juWp2GOSYXzxlhTt5U2rat5gnMnYkYl2jyZZ/ZXJ7j9PdnnV9/oWmd5OAx+zpTZATLL71dVNMg6t3JhANzhuYgqrN62wDTRrkgE3fT2AgBu+5kFhUB9Aiq/h/kDzshS/9hAVqreG+0NW5as+bQBGbVW81pvy8ZVyPU+H0q+l1cPZH571gU79ahd4m/eOoedTvNdB/aTxPIqvYwbaBHg9Pv6UR5zq7Mrv0PiA+sf3lKMNTG1PHT/VTX6FdfPidUF3MACtDVCbvL66oVN43TxqbkDleBt9kyUUp/p8TBQ+M29qw9Y5hdnxVTng5Qi1r46P56MO6NpZWcunPsPWcR8xGj/WAOFap8Srn7SHr7W/vq5IQ3pdL3yvdKrTw0Dl17aozFqfylFZjIHS7Gn/Unkwe92M8OuU9lGO2gbsGzz9aLwqyj8Kr/0FrgXNkQ6a3hbNo68vxkH5KVPhXV8I2/K8ET4HoPLURtrj9zWlW5pLzZX3obtG/H6vPKpXc0+5NY/SqP/6vHXetnAkk6xbM34d+foSqqeWBUt9Uj6fG8WtzQ9x4GGa27qmCJ9Z56diz7rI/adHebp2dmwZF6WBumaguw/5/CgP39OXpT2jr0WvR/eu2s66DyJedYHX4fOkNtXyzsEekwwwjGSUAWYZZo6H6e95wT2aZP731+hXjYcuL/0mjDfRMNpor4wujU9MsncRk2xSsyaZbipLdPnCMmiPSQbc7DnM+MMAeFjwAOoeqHrIjDbWetAw3/5g0UGtbjoqytvF8cD2BxllUac2B/VgRjzhpGHT0eX19B0qm7xdvOMPT99cEM5Y+IZAY0ycl7E0htowdBtnyqG8Wgf5ax2geewOs7SBuPrgp08aU6Curg9LdPPAQU91en+Fxs/zUTd98HGueTQXaxsYxtWvAfLRrm6Nq8xu7dA3Hx+VM2qj0hHv64N8o3FdmjddY10cdRBHe2rczPgyV8TTRg8X6n/XZ8ZTfeSrDgJrrOWbHfcRjAH5u/GjDXXdat743K2Hmkdj6mlJQxzhnlf9qW3ROHSmL2tG65N6Pc2e9i+VB5S59bqpfPt3/eCL37/yL33tw2/6f370i3X9tJ/20x5+/Yd95GPfWZukVXrCiCe9l+Xl8T1pKK/GE0bcq7/6m16SXvHMA/G/9w/+V4+fqf9T/tUhg/aon//2+77vY/1ah56fMf0dH/vxDx/w7/2iF9P/ig/+VY/l6XpW2i1QHm3SvANz0a1Rjd8p7k1AXF0zlE04n7s2EO/1kF91UOfavXgLpzbJaG8X36F56MZY/e7ilu4tpGeONX/AOI2uI9IulaX8NY7153Pj/aasGuaobR7G/cDbzVc+d/2/BDPrwq/B3H/eE43F1rkcPccqe+5D5Kn3Idae1jrXVs1DvNdDfo2Xyqh5GB/Kqvfabi9G3WoTfejacGr2mmTAG2UYQjJxAGOIX0usb13JOOIP4nu40K82ephMKgw4D9cbWTNljdB/rSRPF6++1T/YL8jX5SW9G4a0FZNLBp+Pj/o5aoP+iUBMsvvTTf26ZTgdaK9JFkK4HnooL20QQzgib33Dd794uOP75/a5G5OwjVOZZOFYzKyLtevz6J+7MQm3zVNMshCeSkyyScUkuw1QTLIQ7o+YZOG58tZf8kEvHt4ev39mn7sxCduISRY6pkyylevz6J+7MQm3TUyycE1ikk0qJtltgGKShXB/xCQLz5Xv+Ot/68XDG98/t8/dmIRtxCQLHTPrYu36PPrnbkzCbROTLFyTmGSTikl2G6CYZCHcH0t/3yaEo6PD23P9HPYRkyx0zK6Ltevz6J/DfRGTLFyTmGSTikl2G6CYZCGEEEI4OjHJQkfWRTgyMcnCNYlJNqmYZLcBikkWQgghhKMTMyR0ZF2EIxOTLFyTmGSTikl2G6CYZCGEEEI4OjFDQkfWRTgyMcnCNYlJNqmYZLcBikkWQgghhKMTMyR0ZF2EIxOTLFyTmGSTikl2G6CYZCGEEEI4OjFDQkfWRTgyMcnCNYlJNqmYZLcBikkWQgghhKMTMyR0ZF2EIxOTLFyTmGSTikl2G6CYZCGEEEI4OjFDQkfWRTgyMcnCNYlJNqmYZLcBikkWQgghhKMTMyR0ZF2EIxOTLFyTmGSTikl2G6CYZCGEEEI4OjFDQkfWRTgyMcnCNYlJNqmYZLcBOqVJ9pN+8sse6eLOzW/4qI9+eOGFFx4+9U99fhsfTsOXfcVrHr7wlV/VxoVlvvLrv+Vx7L7hm1/fxof3hOuZ6/rXfeiHt/EdrFHSkw9+6S//kMdwlcW9ouYJIRyfmCGhI+siHJmYZOGaxCSbVEyy2wCd0iTTobSLOzcchKn74//AJ7Xx4TRojmOUzZM1Og9jxZjJ6NrCT/8Z7/OYh6/kw7jHONtTVgjhOMQMCR0z60LP8S1c64fGITgxycI1iUk2qZhktwGKSfY80Zs2s2YXmz7yYTp08TOorC7uHvkjf/zTFtegxpx0XXx4T2aNLdYz6THI6ht7MclCeN7EJAsdM+vit3/sJzw+QxyeK/DzfsH7vyR85g3oEM5FTLJwTWKSTSom2W2AYpI9TzRe13wj7Jrr5RzIhMkaPB17TbIufUyyEJ43MclCx1PXBc8VyBv24RaJSRauSUyyScUkuw1QTLLnSUyy0xOT7PTEJAshnIqYZKEjJlk4MjHJwjWJSTapmGS3AdpjknHY1N/94Vfm+MyvNmmj0OXRH9PWr9jxlT+gzR8zr2n1a2nkqX+Em9fZu43IkklG23hFXm1WOWq3p1V81y5QWz7zC175+Fl/DJxfoSOP/oEA0Cb9WiL1EKf+j/ohKF99AtretReIo1y+pz2UTR6NseehDJVZ6cauojH08eF7whgb6qIcpVO7vQzvV6WOycy6gTpuFW+LjxvrQ2n8nz9Q3lr9MmY6aIvSaW14+YJx27pGQWUxPtTv1wjfa92tQXr6NFpXqqPGabzq3JKWtmm8gDHo+gxrc0D5KsPzMS+qg7lYmgP9euuoLEE6XTtA27q1pvXVXb+al+5XamnzUv0hhPMSkyx0nNskm9nPAc+Pren9Gcpzk8/kIcyfz7TB94Y8b7vyCOue4Vv3FOH2iEkWrklMsknFJLsN0KxJ5g9uvtcD2Q+XNQ8PbsL1YObBrUM9YfXhqzp04CSN1wU88Ls8vikAytbDXuUoLdBu3yioXd0hl3TKpzzUx2c3Uijf66StanvtR7fxUL9JR/mg8a3tBZXl+WoflZa58PYRx2cYGRmOyvTNoAwKyvJ26ntg3pWe7719qh98PGbXTZdeY01Y7SPhoHGjvRpz4ilDadQ+jRtfNQ+0gzjVpfEH7zefiVf5YnaNguLrNeLljIxER3NUryfyEg61vaC+dvMFGgNfA7TVywCP42udA74STlnK4+Ol+dQcqD4fR/WtKwsYW2+n8vlYej+1Lnxuhcal1gHqY3dvCSGcn5hkoeOcJpnu+3qugZ43fK3P9u4ZpvK754rivB5/nvGc0jNLz2XFsZ/ysmiLnmGUR1vJS3l5bt0vMcnCNYlJNqmYZLcBmjHJ3ITwQyOHUB0owfPw0CUO6qFd5dUHf32I+ybCNwJdHh7qHq7NAvm8HNricQpXm4hTWI3zjYUO3sqjPvpmA+qYyezxukGGE/3x9oL6XvuoOsA3Mm4mjEzF0U8+R6ieziQD6vM4jRnU/ijcwwRpZ9eN+urj7OWM6gfK9DigfMba8/G95rVuGrUW6vyIU61RUFk1H1+VpzNxKto81/J93uo40y7C/RokTONfx4X1oLg6zqqjiwONqdrga7pLr7VY2wy1LKEx8OsXGEtdc95XrqUaBhoX4XGgdeN1hBAuR0yy0HEuk8yfR/5sBz1b6n6A51t9tvHcUx2+vwGFgz97+d7j/Bnv5fnzSHm27B3C/RCTLFyTmGSTikl2G6AZk4wHPQ/QeggGbQbAw/XQ7fJAd3BUPfWnXMBGQ/X4ZkF5fMOhjUBnkEDXZtLpEF4PszK2fAOjgzf9qHWQjjjKqxsb1c3B3MNVR00POoTXwzlh0I3xaCOm8aqbujVUl+fzcezarTmudSmPh4nZdaO5pl81rcZgVP/shlBzXvMpvI61ONUahaVrROuuG4uK6q9rSmOmerxtKt/7r/ka1amxqfGE1bIcz0cbZADWQ4TQeHXtGLVB13tdH+D3A4/v7hE+7nx1Y1rXbr3eQwiXIyZZ6DiXSbZnPzeie66A6u72StonuUEmuvL0jIxJdixikoVrEpNsUjHJbgM0Y5LpYewHwy7ew/Qg5iHNA7jSGSjKQ7yXVeP9oNzl4XvVrbBKdwCWQeBlcVgmrJoZqoP6FSYocxSnDRJ4uMIot2MpT92ggfLw1cM1Xl2eJbq61E/wtGJU15Y8W9eN2tCNtTaqo/pr+BqjumgX4Xz1cKE+ebzyzK7RriyxNBYdGku/rqmT/Gqfb6Q1nh6m9ozMK5lx4OEKG82B6sdcWjPIYKnvKsvjlH7poKL++ljrHuFt8XXG185EzOEjhOsRkyx0nMskUzjPjg7Fe54RSs9XD1cZ3TNUz+Uurtvn6tnF83/0A8pwf8QkC9ckJtmkYpLdBmiPSdbFQRevh/Qa/pM25ambgaX4Lqw73Fa6TQSHf8L84Ky3RKqZQdmEU46HgzYcXRwQB13YEmxgujzdRkjtq2PQ9XsLXV3qJ3haMaprS541fN3ITHKzx98EquauylgbA+pgw8gYgjaXdV5HYy3UJ4/fu0a7soTmo7ZvhPqjTbEMLcrW977uGc+6BjXGS2NJPHRho3y0gXiVDz7nlaW+qyyPk3m1NFbK52Ot+wHzpzDaqHL43u8fmueltocQzktMstBxbpNsifosFZTFM0fwbCG9P4dA5XTPUOXp4iinK0/PRKBt/GBn9IPxcB/EJAvXJCbZpGKS3QboUiZZ95AeMdoMLMVvDauM2qe3a3So1SG3vupO2YRTjocDZY7igDhYC1tDeWY2QqN+r9HVpX6CpxWjuvbkWUJmjzZ29Fnz2L3Bo/pHdTD3yt9R53U01kJ98vgurNKNxVI+zUdt3wiZwjJ8tEnW2nfDhzBPKwiDpflSmi5slE9jSl+YQ76nLf42p7PUdy9rKayiND7W/mYpnzUuMhp1v9DhgnRKG0K4DjHJQse5TTIPW4MfwPCsUN6KP4dA4d0zlOfaKK57rgmeW+yn1A6+aj8Q7o+YZOGaxCSbVEyy2wBd6tctl35FqqI83cMb9GtX3a97eR5tApZ+xUmbgLoB0IGcr/VA7KiO7pC9dGAH4qALm/nJnfLMbIQ0Xl2eJbq61E/wtGJU15Y8W9cN40V61oYMCn0elaE03Rj4G2iMnc+H+lvndTTWQn3yeOWZXaNdWWLUviVID3zP+Plad8NH7a1jqvZUE1nIRKrXEGHQzQGoPvVF13416cRS32tZoPSU62kd9V8GmFCfKaMai/rMOKkOfxsvhHB5YpKFjnObZFv3c3pW8Jzk2eE/DNLzqz7zVUetG/wZVeNG5TnUrx8+6gdl4f6ISRauSUyyScUkuw3QjEmmA2pnOhBGHHi4zKbu0DpCD/buICwzBHzjoTz+wFebRg9335DUOB3qyatyukOuNhpd/1T+qO/EgYdpjJc2LhWVM7MR0nh1c7lEV5f6CZ5WqK7aPuXpNpCz60b9nOmP6u/GTX2amVe1YWSGaBx8Lvau0a4ssdT2ETKCyEtdfu2pjRg/Wp++eQdtpEd919jUa5owoF4PF8qnvrBWaB9h1bSCpb7XsmB0PxFullYjXUYY5dIvnyOVS7jW8shADCFchphkoeNcJtnsfk7PqC79KG5UN2if0MUt1VVRHV1cuH1ikoVrEpNsUjHJbgM0Y5Lpocph0A+UOkR3D1I/hHaHWvLWt2j0YAcO3TqQ81WH+XoIVp76wNcB18sBDrwYE10eoQ2O0i1tNGp7YOnADsSBh2ksaXetj/ZTH2k8XOXMbIQUPjI1RnR1qZ/gaYXmprZP4bU/MLtu1AbWh8/zEiq/GzeVxxrwcMrWuqjzqjwjw0v9rXOxZ42OygK1o7ZvCa07letjrrlQXB0TkKlc84J+nRPqWI/Chdap98XLq8bVUt+7skD3FPrl9zXmQn3uytO4kI85pByPZ+4I13rZui5DCOchJlnoOJdJNruf0zOq7ol5zmmfUJ/5o7pBz68uTnV5eaSv5et5O9rXhNsnJlm4JjHJJhWT7DZAMyaZGwTAA1WHeA6Iiqv5tFEAHvTk08NbeT294lSe8miTwNd6OFae+oDXodnL8T4smUR6UwRGGwRtNCi3xqnuLg5Udg2nTYqj3trmakIofOtGCHxcKBtqmo6uLi/L0wrNTW2f2gakoa+eZnbd6I2dCnkYUzdAQPG1XcBa19omP22lfNqhuSC85tEa1bx5Gr4nbmkutq7RUVmg8rzuNdyUhHp9aSygMy3B51P993x+GBCK6+YAVGbti+aa8t18Wur7qCyfN8WDPjMXXoezNC5+Hde1GkK4PDHJQse5TDKY2c/5D5vIxzNL+ZWnPvOVvqtbz7EuTs9DL4/nFGHdPqR7fof7ICZZuCYxySYVk+w2QDMmGXBY5KHtZoAe8nrA1jzAQ5r4ehglbz2A6sHOw5ufYvmDmjKq2QGquzvAs/HwNgN1rD303TioP9kTMnKov8Zpw9PFAXG0qYujXI2D0lFO12Yd1KuxAYwHcXVjBZSlvHzd8utgSu9zoHEa9UVz023UZDwRzzzXud26bvztIsohjVA4ZXj5XV8cwutaZxypl8+jOdd6JZ+Puza73RzOrlGVNVrvyl/jltBY0YYaRz/UrtF4AfOg+VZZfO7mHtbmQOuX/tY4jbNfm9RDWDc3KquLY04pR+0Bytd81/TCx6Vef2oLjOYxhHA5YpKFjqeuCz23uz0YcP+vexGeQ91zQXsepeU5RDo9T+ozX8+srm6V08Xp2eXl8awj3J+DlLFlbxhul5hk4ZrEJJtUTLLbAM2aZJdAmwke1l38JdHmZ8kYCNdHa6Yzjdj4LcWHEEI4PjHJQkfWRTgyMcnCNYlJNqmYZLcBikk2hp/e0Q7a08WH20FrZvQTz7X4EEIIxyZmSOjIughHJiZZuCYxySYVk+w2QDHJxuiV8/yq1O0jQ5M3//jVPNYO+K/Qdb+yF0II4XkQMyR0ZF2EIxOTLFyTmGSTikl2G6BbNMmW/t7SpdDfdcJg6eLD7aG/5aFfkZVphukaozOEEJ43MUNCR9ZFODIxycI1iUk2qZhktwG6RZMshBBCCOGUxAwJHVkX4cjEJAvXJCbZpGKS3QYoJlkIIYQQjk7MkNCRdRGOTEyycE1ikk0qJtltgGKShRBCCOHoxAwJHVkX4cjEJAvXJCbZpGKS3QYoJlkIIYQQjk7MkNCRdRGOTEyycE1ikk0qJtltgGKShRBCCOHoxAwJHVkX4cjEJAvXJCbZpGKS3QYoJlkIIYQQjk7MkNCRdRGOTEyycE1ikk2Kwfr7/+QHw5VB//x739bGhRBCCCEchbf+yDsffuCt72jjwvMl6yIcme/6F299NCr+l6/82kejLIRLEpNsUkcerCiKoiiKoiiKoii6tjAqQrgWMckmxGB9/1veHq4M4idoXVwIIYQQwlF454/+2MPb3/ljbVx4vmRdhCPzlre989Go+Nqvf83DV3/tN4RwUWKSTYrBetP3/3C4MujNb31HGxdCCCGEcBTe8c4fe/jht/9oGxeeL1kX4chglGFU/LWv+YaHv/rVfyOEixKTbFIxyW4DFJMshBBCCEcnZkjoyLoIRyYmWbgmMckmFZPsNkAxyUIIIYRwdGKGhI6si3BkYpKFaxKTbFIxyW4DFJMshBBCCEcnZkjoyLoIRyYmWbgmMckmFZPsNkAxyUIIIYRwdGKGhI6si3BkYpKFaxKTbFIxyW4DFJMshBBCCEcnZkjoyLoIRyYmWbgmMckmFZPsNkAxyUIIIYRwdGKGhI6si3BkYpKFaxKTbFIxyW4DFJMshBBCCEcnZkjoyLoIRyYmWbgmMckmFZPsNkAxyUIIIYRwdGKGhI6si3BkYpKFaxKTbFIxyW4DFJMshBBCCEcnZkjoyLoIRyYmWbgmMckmFZPsNkDnNsn+9rd8+8MLL7zw8LKXvayND2MYu1d/1dc8fMfr39jGz/J1r/mmhw/78I94nA/44A/51W268Dz4E5/2GY/rgK9d/K3wWz/6dzy28+Wf/0VtfLhvvuSVr3p4v/f/gBfvS5/4SZ/cpjsV3E+5r3J/9fDROuO+SXoPC/dJzJDTw/XCdcPeoou/B255XfzM9/lZj+PLfaiL78g9KziXMsn+yz/8iY9r9Vf8yv+gjR/xJz/9f3z47Jd/fhsX7p+YZJOaNcm42bOB1cMCOOCzue7Sh22gvSYZB4w6J2yS6gGDuVO8h18T2sj6UbuAQ9rHfcLvf4+D0zVRG091aNRc8ZWyMS5nNl7hWLCuTrm+zsWpr4NwO+iHKMA9WPelLu2p0LqnLg8frTO1L4fO++epZgg/UGB9sh66+OfI6Hq6J/asCzf2HcbhlD94Urkz9589eWbRdTC7h9QPasnf7bd1Zlh6DvhzY6l+/eBjdj70A8Ql47c7A9Hm7hw0op5FKOsc55CnmmSYWBhf7/UTf+JjO/n6ob/+P3kM93S/7WN+52P8B37gL3pJ+BKUof538afgy/7Cq1/Sdsy8Ll3lj33yp7zYNvJ1acI6MckmNWOS6adU4JtohW29GYX3BO0xyXxOmAvmxG/0PDiU9lImmR68S5sCHqa+sdF68jD6cytrSn06xYZL88BD+FRvpj0V5oM2MQdd/C2gzdIRDRodbm69b7q3HHEOzsmWe2LH3nx70Bqkzi7+HIwOQKN1pv1GPYydepxUTxcXTsNek4xDq+9xntM8rT2ndQ3f8nN8jT3rQutA+0hww4TwLt8sKm/mPjO6Z52SPe1i76l8gCHUpVP7R2X7GWRUBmg+ZsdhbU0rHmir5l/tVt7RXpvw7iyi9lLOKefuKSYZZpja+W+993s/GmDv+77/zothbjjtMcl4g4w85zSh3IgD+tGlq5DO83VpwjoxySY1Y5JxM8J0cWfdbzDcTG7l0H9voFmTzB9O1bxhHvSTGz3c+Kr0nvbU8IDxeiu0TQ8w1k79SY23famce0XzwDh18dfgFttU0WaIr138PXMvfdO1fcQ5OCdr98QRe/Pt4ZbW4Ow6O/U4URZ0ceE07DFD2PNo76D1+pzmae05rTEZxd8DTzHJ6vWv8YJT/MB1VM+12dMu/YBCe21MoS6dfgAxuhf7Xn1kRsrc5drt4pdYWtN+D+h+gM146H7R5ffza3cWUf5TXk97TTIZZBhY9a2xP/uKL33RLFPYHpPsErhJpjbzlliXVugtMjcJu3RhnZhkk5oxyUboBgi39vC4F9CMSeZGU/dwEGwM9FMQ5kbzVNOdEh4oS2tBD1UeSvSjSwN6ON/zhq9D83BL/brFNlW0IRpt1u6Ze+mbru0jzsE5Wbsnjtibbw+3tAZn19mpx4myoIsLp2GPGcI8s2/Qnua5zdPac1rX8Cj+HjilSQbab57iDdmleq7JnnbJHMIYWnrLSz+MJ32NA/LqLALdnt4NuRq3xmhN027VuWSALp1PVTZ9GJ1FCD/lM3GPSebG0tLfC/tNv/k/f/H7ezDJtv7dNOJJ53m7dGGdmGSTOoVJBlq4t/bwuBfQjEmmh87opz8dzI3mic/c+PVw5OvSg4D6dBDx9P5g0QOnQ2WTXmFrf8fOH4L+8Fbf+Up5PHj1kKZdhHs5gjJkvAF5+Dx6ODraaPnDWO1TGWvj6eNfUZu1IeEz7fXyVA518Vq7NjnA96ONwlq/Fd6hMra0S3V09wDyEEeaGlfHDlhr6s/SuPnGaU/9W/oFGkOtM76yJupPHtdQOZQBtJ/26tqpa0YQvjbfuj5H64A+dnXM9E11dO3UuvR5pJ2k1VpzqAf4vv7BeNrT1a/rkDYzbmoPEKd66jiPyhNbxhdmr3k+q8xKTevM5KOv9F3zB4zLaB1UluqibKVj/fh4q7/d3AJj5e3iK+Pm16euP9J53tE601hrLreOk9bm2hx7/yr1vsKanRmP8FL2mCF1DjT2HrYF5kr3HtaA1hVhvm78vkQca2g0v1pjKgvIO1oT9V5W71d+7YHiOpRG1wPrkjr9+qMt9/C3g09tkvmY1LjZe6fXs/WZVe9ZMPscWUNt6PrfofppP59Zt3yu92FPC3Udez+0fruxW4pbYzR/arP6sISuNdrh4Zr3Pe3ayx6TTCYRb1J18R1ukvF3wMirvwXGG1zd21u8kUZ8/RVImVm/++N+72OaLWWNcKOLdul7yu3S1zYpfU1HWZiE/uunfN/9zTOVybiSj7HSr3Pylc81z1GISTapU79JVh/sYRtoxiTT5pwHRRffwQNU86SHO1/9Qd+Vp3geKNSrusEfXDxo+OybMqXXQ8jboHxLaOPgDzE9NHngqS7qWOqH1ijpiaMMHpyUv2XNUj75ffOivvgY+vfg7aAeb6ePpzavtW9KQxjxbErUZ9ru5YG3T3USvtTvUZtA5ay1S+Xwuduoaay8TGDTVev2/pBP46a1oH6Djy+flcfrgFH9W/rF2uMzcRpD0itsy/oBtQHUB31Wn+v8+fiQnnjaoLHwTa33xcsQKscPSrN9U5trO0lHeuUjXe1f3WArThtYjYmXw3r3PCpTeVQX3wP10CfCFafyKL+2YWZ8QXNIHuXz78HXJG3xNpCOz+D3tMrWfHyvejV+3pba/g7VpT6rHND4q0yNKagOvq9l+npQeSoflE5rtpah8us6U35d41vGaeaeydypblBZ4NeCr1nyg8rka11n4T3ZY4ZUNE9d3BLK5/Poa4J1AIrzNdHdX/fc/xRf72Vejt//iFMbvQ5QGl1PtFnlEM9nvodbN8pObZJpzDD5PXzPvVNxSqd8Pmej55y3bfY5sobydP3v0DrRmLB++Uz7a1rQ+qlrR2NIOfohXDduGp8990W11dc58Jlw4j28Q+2kHwrTHOxt1172mGRq54wZJZMM00eGFoaZzKCuvNGbWirL/2HAWlkjah36FUoMuJoWVLfiPa/A9FK7aBNtc7Osml5qA2mUzr8HfyvvSMQkm9QpTDLdHEc32LAOmjHJdCFvfSiCPxSYK8/rG4b6wCCtDhxCD1XwwwPo4dW1bfTAG9E9CFUGsKnw+r0fvsHUwX/vBrFrx97xVL5uDGrfuryE17EdXYNb+73UJlhrF2iMattgVL4OCLVM5o44n0O1wefA2VP/Wr/4zJiCtwU0x6Mxq2ij6ZtIytccQe2b2lc3zOSjvcSpv7RP5dR+KM7Xx56+aYxrO9UW+uZ1U67HeR7ChJfnfat5VL/iVJffj8Dnkq8a+3ofmxlf0DoCxs3jlq55tdvTb2EpH2NLG4jXYUeQXnG1zyM0FnVugbJqOUvPgG6tA+3yMNW5dZ2pvjoeS+NEGHNZ45b2LaqnhgPlEEeddZ7pG3HdGIaXcgsmGfi1ozUhfK36eq/3S79f+ZpYuv9pzdZ8fu+p9yVfex4udD0BZXg7tTYJ9zy3xqlMMvruP/Cp87Ln3ql6aj6fszrPSu9t0zwCdXnc0nNkhNJ7OUvo/uzrQ2HdXlGGcV2PWlNcG7o+KMfTKHzvuhs9IwiDLX328VbYqNxzM2uS7f0VQ5lLgPnjb2rJmCLc86yZZDNljah16DPmVk0LMr9444vPnldQBvXz1cMx1khLGR7ubSDO8+mtOVCdRyIm2aSeapJxE9cDJRvD/aBLmmT1UAN6SG4tU5u8+lBVeFfO7INJZfnaUhm0t9tEaLPim5hRW7fStWPveCpfNwbqG9eUb2C2oLb4mGzt91KbYEu7VFc37135tJMw2NJXtcHnwJmtH9b6pUNT3UgLzfFa+1U/9XTxanvtG+lHebSZ9k251n7d3KsfnnZP37p2ahNMO7vrUX0HD1dYVz/rVWV6uOrv3ubwQ2Bth+a5bvJnx9f7MnPNL63NJZbyaf5IU+NAfR7FV5S+rsEl1D6/v2juGAtP2zFqo8qtbSEMTjW+Kq+uF4V7mNDBu5t/rhXitvT9uXMLJll379E17Ne96Nb73vufyuruZbr31OtCZdVwoeuJPtS2aG2Ch98aTzHJOhir+nzee+9UmTPPLOXxe5OviZnnyIiujhFar9W0khHWrfvRPZ3P3l+12/uksaz38q2szcWWPvt4K2xU7rm5tEmG+VTNHv26YS1zVNeeskZ0deiNNDerQIYVRpzCat41lN7b7W3o/sbbqD1HICbZpJ5qkvnBpIsP20CXNMm6eB4WM2WOHn5L5cw+mFSW17FWhuL9Ya8wHuIzYya6duwdT+Xr2r/WtyW6+rb2e6lNsKVdXf2iK19hW+8daoPPgTNbP6z1S2Wylkhb0aawq9MhrcpZiuerwtRm6lB9ju693nZt/uvBS+aZH+729E15iFcY36schVXYSNey+FzDHMWvmXRC7ejiukPnnvFVHlCYo/bVPo3C11jKp7hqiAodhqCLr9Bn0vK1i+/o8iisGpIdSutjDOpbbQthcO7xVT0eVuNoW8dS3vDj3IJJtnRddXG6JzDPCtOcz97/RmscSEccabaEC7VlFE8cdHG3wlNMMp5z9F3PLsbdn3lCYz9771RYtzY83p9ZXR7NIyjMUftG9VS6OkbIDKtGn/e5M3sVp77JdPW9hq4PL1t9ceNshtGaJgy29Lkb77Vr5Vxc2iQb/eH+rsxRXXvKGtHVofLdDAPqI9zNqpp3ja6MtTHt8hyFmGSTeopJpoMHD6L6k5owB7p1k4xwHixC6fne0y2VM/tg6upYK2MUrzcAgE0UD/JuM9DRtWPveCpf1/6t40O72fyRXnSmBmzp91KbYEu7Rv2FrnwZOmt9FWoDX7v42fphrV8qc421DeBa27t4tXkN36Rq4wqaY4Ux90oHe/qmPN5Ora9R30D5fG5Ufjdfo/iuftGNoejmf8/4eh6FOV0/l8LXWMrXHbwrxEMXV1kaP0FdxItuPrasB0Ea0vq8QFcuEAZ7xnfmnql6PKzGLcHcdHnDj3OPJpnWq6/Lvfe/0RoH0hFHmi3hQu0bxRMHXdyt8BSTzMdX5xOo55O9906FjfJ18V0Y3ytcYU63Xpbo6hihvndnNt0PO/NQ61xxGl83xPTGmT8z+fyU++FoTRMGW/rcjffatXIuYpK9Zx3+Npre+OINLz7XX8OseR3y8rfRaK/o3gpbG9OYZPermzHJ3CDb+xOC8OOgGZNMD7OljVll74OZudaDtaO2YekBr4fo1oem+uk/DVx7uC3F0yY97IGfPG4xytQn7+ve8VS+rn1rfQP9JHBEN+5r/V5qE2xp16i/0JW/pUxH6X0OnNn6Ya0NS2XOsNb2Ln7U5jXUZm1mZUbWN3v29E15vJ1dWKWri89L9XfxS3V1Yyi6sezC1lAe6OK7fi6Fr7GUT+1YKlNpurjK0vjNPAPU5q6ciuqsczAqQ/XNju/sPVPhHrYlLmznKCbZlvXelbmUj3TEkWZLuFD7RvHEQRd3K5zKJAO92VTf8huld5SmCxvl6+K7ML5XuMKcbr0s0dXRof03UEdF93g3uYT2ERpLja2f/9hTqnw+q591/GcYrWm9He8m3QidV8lTw8DTnptZk8wNpBnT5p5MMtB/8NQf6NffOqv/nbLLC/yhfcV1+NiN2iBikt2vbsIk8xu8DmLhaaAZk0wPKL/pr7Hnwaw8PDyZazdW9PCqm7yuHOFvuqyZq97ert760BQ6EFVTwKEdeshueYCrT97XPeMJyte1f61viqftbhzCqD5n1O+lNsFau0D113ZBV77Ctq5htcHnwJmtH9b6pTKfep9TPaO11vVNba5vgK2hzZ82uprver3t6ZvyeDvV9qXrTZtvbwOfgX56WvDNtl/7Xf2iG0OxtP5mxld5oItX+2qfRuFrLOVTXLfegbEmfusPJEbjpz5vfQYobGk9CKX1eQH1rbaFMJgZX9Uxc89UPR5W47o3McJ2jmKSKWz2/jda40DdxJFmS7hQW0bxxEEXdyuc0iTz/aZfrxr72XunyurWhsf7PbLLo3kEhTlq36ieSldHh84NW6j3N42lxoTnZvds0X6Dtmgv/pT902hNqy+doVfRePo16mtjtA7OwaxJBnobauY/Lt6bSaa/P0ZfeSOMP6gP9W+gdXnVPv54f/0vm53hFZMsJtlmzZpkPDz0wH/qwTH8OGjGJPOH7NINnjnSg9Pz1HTQPZj1gOo2cqM4lTNaH4qvD72K0lVjQfXykPbNiNDbZ2vrU+Ox1g5QW7yve8YTlupV30ZtGpW5Fud09StsZBistQu0IeoOC92vVo42sCPUhpHRNFs/rPVLZS71ewtco5TTjS9rWBtLX1+EEwZrc+p4Pm32u3r39I205PF2cp2N6gCtrdGBo/tJ8KjMrn6hueziujW/Z3xVDnTxal8tT+Fr96TKUj4dEkbXg8ZjyyECRuO3NK5d3Np6cJTf5wXU71onYTAzvorr5ngUp3q6+1J3rYZ5jmKSra13yiG+3v9GaxyUhzRd+Kguta/mE8RBF3crnNIkg+563XvvVD0zzyzl8bZpHsHTiqU12NHVUeF5p7Obm7UV2k+aro+KU1+7Z4vGjv2Fxp66a7qtjNa0j+FSvz1dvZ9rnGmnhzu0vdtT7mWPSSYTCNPI/7NkBRNNptK9mWRA/wjXW2T1b5RBl3fJ1IpJ9lJikk1qxiSLQXY+0IxJBnrQMyf1gaYbu8+VPyw8regezP7A87S+FnzzAcoz2oB4O3jI1gcoDzK1hTpqvMoHHm7+4FNczcfnaiZqfEbtdNQe7+ue8QTlI97DQe3v4kBl1r5o01Lrm+m38ncHw7V2gdpAnV6G6uvyqz91HZCffL6Z07iNDgh76l/rF+Uo72hjTPk1vELfaBfleHrCtZEEX1+ga7yuc+Az8d2Gl/FUvq5c2NM3zVctT32jPT6PtE0b65pHdYPXT7tGeUb1A2GjuNE1Nzu+Kgc8rVD7/BoEtY3yPHyNpXy0S22p8ydTFmpbRozGT+F1LVC/5t3z+FqvZZHHD1Yqu87LaJ4Jg5nxVVlb75mgPKTxcPD7TM1H32lLly+8lKOYZLDn/jda40DdxJGmxhEO9X4Fal+XD5S3i7sVTm2S6Xr1fcPee6fCa76lZ5bSe1maX/C0YmkNdnR1VLpx6NAa4plY47SXUl+7fYPGVnuPWo7iuWY8fMTSmtY4UVa9vwPtGz2LgLYonrLqNcV40te1MZthj0mG8cVbUrSTN62qeYNxJmNHJto9mmT1Vya7/zzZ5VXf61tkejsNfMyW2gAxye5XVzXJ/IbE9x3dTxbCOmjWJGMzpsNwnReF+XzseTD7ZoINIA8avvJ5dAD3ekgDNQ0PbD2clI76VSbwYKJ+zwd6aBLvDzg9uKEeUpSONJ6W8K6OisbG+7FnPEH5iPdwUN+6OOChTzztZsNCetWjsfP6Zvqtcojje74qbq1dwHr08r0+rZma3zcpyuNrwPvih2/1x8vbU/+Wfmlz6eWCwrbe87wctV9lavPp6wvok4+HrhP1C7r163VBd6Cq6bb0TXG1nX4tqBxvN+Pv6UFxSudjonD673lG9YPmsosbXXOz4+v99HKE2ufrFjwfdUDXzspaPvUZNH7e9nofXGI0fvRf5W19BnRr3duldKqzzovGsZar/DPjO3vPBLUL1HZPo/6D+qeyoDs8hpeyxwzR3AmNt4d198OK8tV5B5XbxWldaG0JX39b73+qp5YFKo80NU75VA9fFaf2dfmAOOjiboVTm2S+b3AjRWMF3T2qu3cqTte/8imcOa/PLMV523y9eFqhMrv+dKgs6idvhee/zgpr9ybSqry6b3ADEUbXmsYblq4VDx+xtKYZa8JVnq4J8DbUH/A49MnTagy1FojbOg9b2GOSAYaRjDLALMPM8TD9PS+4R5PM//4a/arx0OWl34TxJhpGG+2V0aXxiUn2LmKSTWrGJHNDZgQ3lC5vWAZtMcm+5wd+5CWfv+/NP/LweX/mFY9zw9j//J//8x9+wk/4CY+fufkTr7Q80Ij/qT/1p74kv74nD/F/+a987Uvi+ay5J/7f+8Bf+LiB4MHB5z/56Z/5kvR8JZ6HDPE/++f82y9uTrw+HsCf8qmf9lie1g/pf9Wv+XWPD3IegJ5e+T/pj/63j2l5kP2tb/47D/+Pj/yNL+b/iI/8yPdoP1+pi43NL/klv+RxfBgrPpNfaeF7fvCl9QltinzjpM3EaM1rzOoDVpsE4j0cdLjsNtWCNL4BpxzK1GbCNy7qN20kTv3uNjeMt9qschW3pV1AfV4G7dTc1zI9j7cRmNtuM0e71XfS1w3YbP1b+8X4krdrY90UL0Fb6tzRZvrF59ofoHzCPR/XFm2ua8vzqK20s0sjZvqmsR3NTTePfs04SqO165tSNrXduFI+abr6CRvFUQdxdf5hZnyZK+Jpo4cLjU83L4yD+shXrcs11vLxWfWqbXzu2rAEY0D+0fh5HYwV7dK4bsmjdnn7R9ef8tVyNQ7Mg4fD0jgRV6872qc+d/dD1qDWMnlrnZTJ+laZ6h/hni707DFDfD2N2LLutU66eVcdXdzSNTJ7/1u6l1GW8tc47lc+DnyvOMqqYY7a1sXdCnvWhfrVzRlorKtZMnvvJB74vj6zqKN7ZnX3rKc8Rzr83tah9UR93b2zovsafaxxlEEcddY4wTh73R7H9UB4t7Y71tY0UCbxahsw7szJljFkTGizjyP5R/uQp7DXJAPeKMMQkokDGEP8WmJ960rGEX8Q38OFfrXRw2RSYcB5uN7ImilrhP5rJXm6ePWt/sF+Qb4uL+ndMKStmFwy+Hx81M9RG/RPBGKS3Z9u4g/3h9ODtphk3/+P3/jwI299l5HDzfad3/q/P7vP3/atf+fR6Prdv+fjT1Kef/6Rf/JPH78PIZwXbWa2HgRCCMdhjxkSjk/WxbHBfMLMGhmaR4dzxl6TLISnEpNsUjHJbgO0xST7vm987cM7PuI3PLz9bW9/eMfX/Y2Hd/7CX/TsPn/Xv//LHv7KX/7LD9/+uZ97kvL88w//lv9XO+4hhNMSkyyE50vMkNCRdXFc9BZZ9/bkcyEmWbgmMckmFZPsNkBb/ybZD/7ZL3l456/+NQ9v/1W/5uFf/tN/+ew+/8+/4Tc9/K1/4994eO3/8f90kvLq527MQwinJSZZCM+XmCGhI+viuPAW2dZfszwqMcnCNYlJNqmYZLcBmvnD/T/wqq94iaHznD7z06hf9a8O1//Z//3DNqXf8zmEcF70t1qe669dhPCciRkSOrIuwpGJSRauSUyyScUkuw3QjEkWQgghhHCPxAwJHVkX4cjEJAvXJCbZpGKS3QYoJlkIIYQQjk7MkNCRdRGOTEyycE1ikk0qJtltgGKShRBCCOHoxAwJHVkX4cjEJAvXJCbZpGKS3QYoJlkIIYQQjk7MkNCRdRGOTEyycE1ikk0qJtltgGKShRBCCOHoxAwJHVkX4cjEJAvXJCbZpGKS3QYoJlkIIYQQjk7MkNCRdRGOTEyycE1ikk0qJtltgGKShRBCCOHoxAwJHVkX4cjEJAvXJCbZpGKS3QYoJlkIIYQQjk7MkNCRdRGOTEyycE1ikk0qJtltgGKShRBCCOHoxAwJHVkX4cjEJAvXJCbZpGKS3QZoxiT7jte/8eHVX/U1D3/7W769jZ+F8n7rR/+Oh5e97GUPL7zwwsPPfJ+fdbKy7xH6zvgyLl38LfJ1r/mmx7n7sA//iDb+Xnj553/RYz9Yj138NeH6gC6uI9dVuEVm13FYh+uaa3x2XLlv86zp4o5MzJDQkXURjkxMsnBNYpJNKibZbYBmTLJP/KRPftyQf/CH/Oo2fhYO8trgUyaH+T/xaZ/Rpn0OMAaMB+Pcxd8iHLROuSauxanX9imhXdDFdeS6+nEYA8YCU6CLB819HaMveeWrXhx7h/FkjEdlyqQknfJgIlNel55wXfsq/+M+4fdvNstJq7wjunyX5pbachR0/50dV+V5bkZZzJDQkXURjkxMsnBNYpJNKibZbYBmTDIOkWysT/XWkDbqSwfYI6HxG5lgjCvx92RoxCQ7P7QLurgOpX8u19USGoslM0BzX69LhctsFCoTqvHFmz0y5pTv/d7/A15MzxuLnt4NLtKRXvkxyzztCLWJ9Gpjpct3adTPLm4GjU8X99zYa5JpDJ/bPSJmSOjIughHJiZZuCYxySYVk+w2QNf8m2R7Nvf3zOgwfs/EJDs/s9fJbPojo7F4iklW1wRveMnQrkaWwvnqb4JhnhHmBjgGBWmhtg8zbdYku/X7ivraxc1wqnKOwF6T7LkSMyR0ZF2EIxOTLFyTmGSTikl2G6CYZJdjdBi/Z2KSnZ/Z62Q2/ZHRWJzSJAP9LSjwt3EUtlSfONWai0n2fIlJNkfMkNCRdRGOTEyycE1ikk0qJtltgGZMstEfN9ffQOKwyKZdb1MA39df6VBchbSejrcu/FeVeLOCuro/Qq62kYf6SKs8SlPbqcMlEKc3P4ivfejqBH7dinj/FavaRj/IVPyArPbVX8kC2savZqlfwNhwMO7+dlHta+1PnZM1qIMy/VfBaKf6Njrob51DGQbdQV9zS7trHO1S2Qrb0/c1w2JmLQJ1EO/zRd20p0sPtEHpGWfNrfJ3eRylq/i4UT5l873/ql9dc3uvPeI1/sB4arzrGqL8pfEYwbh42/i+u2ZAadbGnTR87cJHa6IruwsbsVb+VshPObX9HboWmPsap/XAPCrsEuuYOOpem1P1s8Pbs6fNFa1hyiKf100cbSYd8RpT1TO6J2x5VjjU4WMJtMPHhbYpjs+enq+jNaE0XjffE0Yba91LZQHpZ8acsfD5Jl+3Jk9NzJDQkXURjkxMsnBNYpJNKibZbYBO8Yf7dYDQwYLNP2F+GPDNOHHKo/JAm3A23L6BVryXp4O3UNt0CAHVoTT6XNvJ96CDmefnK3Fs4nUwEm4ykNbT81XpaStxfuBQej8Y8Jn4ehghv5ervHwG2l3bpvitc7IEZdf69VnzRFjNMzOHHJpUnpcD6gPUOBk0zLvCqIewmb6P1vZsP0B9AfKS3g+P3cGRNIr39F53zVNR27wc8PWkOI0N5VPXKa895fM8jIn6RJyPRy1vhLdN/eL6UVn0qeZRHUsGidrv4+Th1OXhoDmmbx5OWsJpJ+31uIobHCOTbwuqs7a/g7FWnT7uCqc/avcl1jHXodYJacnjab1PzHUtX6gve9rcoXrqPUTlUPY5nhXC17rK93FRP3wNKZ6vntafMUJxPh4qy/NvKYuxV18YL+aMrwqraxsTlnDGibTAvYPPnu4cxAwJHVkX4cjEJAvXJCbZpGKS3QbolCaZNsna8PtGf2mjXsN1oCCvmxmUp0NL3VCrbcpXDx0waqcfHGt+vuqQVTf7lEe9Xpen9zcyQG3kq4cLta/Gawy9zcDYeJzn2TsnHRrzOq4+5tTneWbnkHCVVQ0sjSfUQ67K8rnZ03f15an9AMri0Ff7QRjp3dAD2k44h0o3Ljjw66AJnmeJpfSKg7qe4RTXnvKRx+eu9k/jQbkKW0L11Lnzea3rQ3XXcEfl8rULr2uCcdO81Dx+LyEN8bTP0zgaA9Wz1M4RWu+MNd9Xav1dv/ieMF8TpDv3Oqa/zF3tt4wU8nk4dOWI2TaP0HiA30Mu9azQteblA/0iTv1j3NQWxsrHUfMBXgYo3NPvLUtjxTx7OGNFOeB5+NyVcwlihoSOrItwZGKShWsSk2xSMcluA3RKk6w7gGhzXfMA4VDDtYn2TbpgY93Fq23E1QOSWGrn6FACKrsezkeM0iucrx4u1D6P16GsHjSEH2w8fO+cdKh8P/gK9amWtWcOdZD1AyZzqfL5WsdUh0wfmz19P2U/RmiuWGMervbWgzIoD9S4EUvpFTday3v6q7FjLuoa1XiTr66f0XiMoAzo4lRPNdwIUx2Mc4fWUL0u1a8O2tHNF9BPlam0lFXHRjAXXjZt6sZ/BOk9f6XeD2mH2se4ja6JEaN5UztOvY7ruM2WA7NrTX25xrOCMgmD0bNM+Lh292fNc11PyuPhe8oiHWHdOIHGijWmMNUxuh7OScyQ0JF1EY5MTLJwTWKSTSom2W2ATmmSEe/hoI13dwDTZtnDlJ4NuYc7MlO8vlHbnKV2Kn8Xt/cQWdMv1QFd+5SnHv4dDuGk8cPLUl+X5qSyNh9dWWt5oJvDzujQGyUq0w+5OqCNDuszfdc4n6IfS5AWurDRgbjLs8RSesXRtxq3t7/d2InReIMMUKhxFW8b9VV0GK/1qPwtUI7n5TPhXF+UC0rLOKwd8lnPtFd5+L4zH4CxUB/EVqNF7artX0K/lkjfdP9YM2QctbELO9U6Vr/qWp0tR8zkWxpTrYsu7hTPCoVtMfSUFrr4tTH08D1laSyI4/uK8vB9LYevM2vuFMQMCR1ZF+HIxCQL1yQm2aRikt0G6NZMMpkiXXqhdnh9o7Y5S+3syhRLfQAOvrSbvDA6sC/VAV37tpgwyueHl6W+rvXHWUvbxe+dQ5kmHNoVpv779zpYqR6+Kj3s6bvac4p+CNrJoZk4QVrwdF2YsxZfWUqvOF8rYm9/FdblW1s/xEEX56icNVgjnk/hXX9F1ycP97ZjjGFeEL5kXDusARlRSwYksGa0zoG8XTqH9pG2tn8N5VvLe4l1zLhi3HkdMhjr3K3VA1vbPGJpTFVWF7e23rc8K7Zch8Kviy5e/RiNoYfvKUtjsYbfo5kbXUNAuVvW+SmIGRI6si7CkYlJFq5JTLJJxSS7DdCtmWSjOhyl8fq25FtqZ1emGPWBA4+/KVKp6ZfqgK59S20WSuOHl6V8S3NSWUvbxaufS+UrTW2fDk964wZzQcaHDo86UMlMqG/n7Ol71+a9/eDArzaM8DK6MGctvrKUXnG+VsTe/i7lW1s/xEEX56yVM0Lld/0VXZ88vNbJIV/l8r3HjWCNKs9SW4TW9pb+koa0tf1ruFFRzUW41Dquv25aqeOlcA8Ts20esTSmo/UCo3U686wYrbsO1QddvPoxGkMP31PW0liswX3c1+BW0/kpxAwJHVkX4cjEJAvXJCbZpGKS3QboVn/dks2zhzs6QPpPp7ccLJbaqfxb+8BhTG+HkMcPy6M+L9UBXfuUZ+lXr9QON4uW+ro0JxWlHb0B05WlsNk5BB8jGQtKo886TPF91649fVe9p+iH6ifO5wQIhy5sZLh0eZZYSq84+lbj9va3GzsxGm9BHHRxjsoZrcMRKr/rr/A114V3bdcbQDMHexkCS20R+nXI0bg5Wm+1/Uswf+RhPnX/qH94XeWecx1rjBmbUf11vLpyxGybRyyNqdrcxXXrffZZobCl61AoLXTxa2Po4XvK0lg8xeCiPI3Pud8oixkSOrIuwpGJSRauSUyyScUkuw3QrZlkHCAU3h22/MDhh6BR25yldir/1j4s9WsUpzpGB4qufRwaCFszqRgTD1/q61LbK4w3aaGbD5kFXtbeOQQ+qzwd5D0N40BemQidebin75qbU/RDeTztUpzMk+6AqPkfldexlF5xjEON29vfbuzE2lpTfV2c4+uwa/uILXnU/rpelvql9cd40LYaX/H21zXfoberMHu6eIf2kba2fwRzS7uB73WdcW15X9Rez7sUt2cdq+3d/IziVE63RhVXw9fiKktjOlov0K33Lmwpbu06dJQfuvi1MfTwPWXNXgcjlsb0lMQMCR1ZF+HIxCQL1yQm2aRikt0G6NZMMtDbKhy6/JDAJlx11fJGbXOW2qn8W/ugsPrTftqow2Jti/KMDK9R+2RMYEj5QYTDNmV1eZb6ujQnHSqLr16/DLKurD1zKNQn4um7x7kpx9f69gkobqbvpO3C9/SDMPCxAh8vD1fdMi0U7sZCzbPEUnrFMQ5d/KmvvbW1Rhx0cRWNX20b8Jn4akCp/FF/Qe2v62WpX6B1KlOIr6Sta5KxU9v92qcf1FH7Qlt1zXeGU4U6u/aP0Bx7etpSw/gM51zHansdM89T5055urFRnq1tHrE0pupnF9etd4Uxxp6WNmrcPT2ofubK+8K4YqBqnatsUBpH5dQxVB4P31uWrgPGuI47aemDf6bPfp2SR2VvWe9PIWZI6Mi6CEcmJlm4JjHJJhWT7DZAt2iSsWnWIVF5VQewya6b8VHbnKV2Kv/WPlC/mznk4/BCu0cHH+8XeYn3NHzftUH1A/lJpzqAw4mnh1FZsDQnHRxo1G7Vr88at1rWnjkUfqD1Axb44ZnyPU6onpm+n7IfMiGYY8oFvqccrRlPT36fT8pXOspSnOdZQuUsxTEOXfye/o7GDtbWmsrt4ip1nPjexwouaZIpnnbwWX0FxpB84GHePo/r+tJd1x0qh7yqs6I505s/pPUyvO1q4yXWsd5io0zun9RBPsKUvs6dxh1Uh9LMtnmE2kD+Gqf6uziNI/kVxriobsLJt/as6O65Prbqr8+b5xfqRx3DWg7sLcvbCqQDb7+nVTr64+n4XO8tpyZmSOjIughHJiZZuCYxySYVk+w2QDMmmQyKeniTqeF/p0hoU8xmuMYR7htoh80yBwkdLoBNNAeMbiM9apuz1E4d1ro4HR44gHm43l7RJl8HM9rXpQfGQ4cd8vlBS+3rfppOPq8LGNPRT96X+ro0JyPIowMo0AcdlmhTV9bsHAo/rNX2k09jQB89Tuzpu+a/m7PZfhBGnNLTXtrEeqFePnd5fH7Jq/Zr3GueEaqzi1Ob6ttLzmx/de2N1vsoDogbtVV8zw/+yIvfU/9nfc6ffvEagv/oP/7Qx7HTevy+N7/9xfSU/X7v936P7VCYxwPlUY7GW/FaEx//e3/fS9IrnjEknvI1LrThEz/pj71k7H7jf/abHsdTaZSfz9TxMb/jd76YlvZSn79Z5f13FE7ZaofKqZ9pK/VqfdHOOg5/4k9++mOc5uoN3/2ml6zjD/qgD3rJOuaz56c8+qR1TP2+jukX5Xh6vrJ+mE+1l/ppn+ZFc+ftpc/UTzx51T/qV5spj3aozYwzn1XGaFyBPJSttjtaF12c7l11vVO/xoV42qfrqUvf5QHG3evV9eX9ciiXeF0bQnNKHQrj+z1lgdqqcoF5YZ68DiC/ygLy+PVxTmKGhI6si3BkYpKFaxKTbFIxyW4DNGOShRDCpXnbG7774Qd/6F33qbf9yDsffvSbv/lZff7B1/+Tx+8rz31cnvp5NK7huMQMCR1ZF+HIxCQL1yQm2aRikt0GKCZZCOGWeevv+4MP7/jSP/fw9nf82MM7/j+/++Gd7/8Bz+rzD/z5v5hxOcPn0biG4xIzJHRkXYQjE5MsXJOYZJOKSXYboJhkIYSb5l++5eFHPvwjH975H/5HD2/5b/7E8/vcjQmcup7n9rkb03BoYoaEjqyLcGRikoVrEpNsUjHJbgMUkyyEcPP8y7c8/MD//OXP9/OIU9fz3D6HZ0XMkNCRdRGOTEyycE1ikk0qJtltgGKShRBCCOHoxAwJHVkX4cjEJAvXJCbZpGKS3QYoJlkIIYQQjk7MkNCRdRGOTEyycE1ikk0qJtltgGKShRBCCOHoxAwJHVkX4cjEJAvXJCbZpGKS3QYoJlkIIYQQjk7MkNCRdRGOTEyycE1ikk0qJtltgGKShRBCCOHoxAwJHVkX4cjEJAvXJCbZpGKS3QYoJlkIIYQQjk7MkNCRdRGOTEyycE1ikk0qJtltgGKShRBCCOHoxAwJHVkX4cjEJAvXJCbZpGKS3QYoJlkIIYQQjk7MkNCRdRGOTEyycE1ikk0qJtltgGKShRBCCOHoxAwJHVkX4cjEJAvXJCbZpGKS3QZoj0n2iZ/0yQ8/831+1sMLL7zw8LKXvezhS175qjbdOfnb3/LtD6/+qq95+I7Xv7GNPxfU+XWv+aY2bgRjBF1cCCGEEM5PzJDQkXURjkxMsnBNYpJNKibZbYBmTbKXf/4XPZpj8MEf8qsf3u/9P+Dhwz78I9q054S6aQOGXRd/DjDI1PcufsSePCGEEEI4HTFDQkfWRTgyMcnCNYlJNqmYZLcBmjXJZE79iU/7jDb+UmDMXbodvEFGnbNvhV3TJGN8qPuSZuLR0TrgWujiQwgh3B4xQ0JH1kU4MjHJwjWJSTapmGS3AdprkvFWVRcf3pNrmmSYYzHJToveKIxJFkII90PMkNCRdRGOTEyycE1ikk0qJtltgGKSnZ+YZMciJlkIIdwfMUNCR9ZFODIxycI1iUk2qZhktwHaapLJHKvUXz3kj/jrVyEVz+fOVOOP75OGeP4Av+ogz9ofx/+tH/07HtPyN9I8nH8ooDYRx99MU5nkGf2hf9pCPOlG7VZ7qcPzCowo/4cGfKY+PkOXh/HysSW/8tW0M32TkdOx1dzx/gD1+Xiv/dqh1kGdS9qrftB/9QPIwzh7evCyQJ+B/Eum7SnXpMroqGWFEEK4HWKGhI6si3BkYpKFaxKTbFIxyW4DtNUk+7hP+P2PhgFmAYYAxgSfMROURsaVx7vJUg0tGTmklVGiOpZMD5B5Ud+QUl1qC/UrLVCPpwfMD/VL6b3dSufGk+cHr8Pzq19dHm8j/QCl52s1ylTOlr7RJ2+H0gJz6eV2yFQivdrG9z7fGg/CPa8gnPg6l4RB7YfmgK/VKFNZykMawtQ/6P7LqtID41PzzK5Jvle42iC8nBBCCLdFzJDQkXURjkxMsnBNYpJNKibZbYBO9euWGBQyDmqc/ng8uPkhQ0L5MHY83xJqx8gkA/+j/m6EVTNFpgmGiofTPg/z9no6jBbCah+oR3XWPCqLflQzTMbOKfpGGV1ZS1Aeedx06/A+dPGjtUKY8HYxDjKg6lyoLNBbXorTeDGPnudca3Kt3yGEEG6PmCGhI+siHJmYZOGaxCSbVEyy2wCdyiTTm0cjM0b5PN4NiWrurNGVByrPTSTRmU8yUqrB0uHt9XC1patzlEfj1Zkw+pW/2iaVs7VvwOcufAm1+dwmWdcPN7Y8XGX5m2wCw0xl+niea02u9TuEEMLtETMkdGRdhCMTkyxck5hkk4pJdhugU5lkMhbqr8kJvbnjxoIbEp52C53BASqvtg86w0hhW34FcdRehY36vpSH+juW8mzt21L4EphOejONcalvugmNx8gsWlsrXT883sdzNN813n99sivH2bsm1/odQgjh9ogZEjqyLsKRiUkWrklMsknFJLsN0ClMMv163qyxsMWQGKF2VNNE5Xn7RGcYrb1t5Iza24U5S3mWqG9TKXxr35bC16AOGWXAm2q1Xo3HyCzq1gqozK4fo/jRfI/iz7kmu3whhBBum5ghoSPrIhyZmGThmsQkm1RMstsAncIk22ssbMk3opoiQuV5+0RnGI3K6Ri1twtz9uTpUJ6tfVsK3wJvkJFv9Ifuuzl1urUCKqvrxyh+bZ5qvNoGNa3o2r83XwghhNsmZkjoyLoIRyYmWbgmMckmFZPsNkCn/nXL0a/m6Vfb/G9KbTEkRoxME5VX2wekrXkUdq1ftxzl6VCerX1bCp9F8wdqs8Zj9LfL1tZK1w//+2K+lkbzLfQH//3viHXlOHvXpNLEJAshhPshZkjoyLoIRyYmWbgmMckmFZPsNkCnMsn0tpG/aeQoH8aEwrYYEiNGponK6wyYzjDSf6Z8yh/ul0HT9V3lj/LMmFcqZ2vfPLz+t8g91LkfGVqK05qo7VUeXwtiNB+qu/vD/Zh2KtNNx3OtSaXZsmZCCCHcBjFDQkfWRTgyMcnCNYlJNqmYZLcBOpVJprdy+DtWNY63tBTnZsoWQ2LEqUwy2qO/vVXL4u9abXnLSOVSjps0bpDVPIrrxos2UWY1d1TO1r6B2jxj6FAG/fa5ol8ap86I8jfxGDeFQ22vwsENKspVvtoPzTdg+KltfKWthJPG85xzTSqNj0UIIYTbJWZI6Mi6CEcmJlm4JjHJJhWT7DZApzLJPA54U4rPMlb4inni6bcaEh2qq5opKq9r38hIcjMLk4ay3eRRulF7MVn0Zhh4fgwcxXkewOxRHtXr5dQ3rRQ+0zfapjlQHeBpKjKXQOn1ub6R5mk153xPnTKvans9PV/VLg934woUrzyUT9jS+vJ8yruWZ+uaVLneji5dCCGE2yBmSOjIughHJiZZuCYxySYVk+w2QHtNss6QAEwTGRmAAYKx0r1xQ5jS1Lg1ZDDVt60oa9Q+GTrVSALMEZk6gOnBZ/8bV0vtxdShTTJgSCOTS+XWPED73chRvbVfsLdvpHdzqUtToX6fR75XfyqEq22UzzgwHjLuantVJmNOGs/LG17VIAONEemZE28b47X0RhftO/WapI2+Xvi+SxdCCOE2iBkSOrIuwpGJSRauSUyyScUkuw3QrEkWwlORsdS9ETfCTbIuPoQQQlgiZkjoyLoIRyYmWbgmMckmFZPsNkAxycKliUkWQgjh0sQMCR1ZF+HIxCQL1yQm2aRikt0GKCZZuDQxyUIIIVyamCGhI+siHJmYZOGaxCSbVEyy2wDFJAuXZulvq43Q36Ab/V20EEIIYYmYIaEj6yIcmZhk4ZrEJJtUTLLbAMUkCyGEEMLRiRkSOrIuwpGJSRauSUyyScUkuw1QTLIQQgghHJ2YIaEj6yIcmZhk4ZrEJJtUTLLbAMUkCyGEEMLRiRkSOrIuwpGJSRauSUyyScUkuw1QTLIQQgghHJ2YIaEj6yIcmZhk4ZrEJJtUTLLbAMUkCyGEEMLRiRkSOrIuwpGJSRauSUyyScUkuw1QTLIQQgghHJ2YIaEj6yIcmZhk4ZrEJJsUg/W9P/gj4cqgH3rbO9u4EEIIIYSj8M53/tjDj7zjR9u48HzJughH5gff+o5Ho+Krv/YbHo2yEC5JTLJJHXmwoiiKoiiKoiiKoujawqgI4VrEJJsQg/X6f/aWcGXQm77/R9q4EEIIIYSjwK/Uvflt72zjwvMl6yIcmX/2PW97NCpe/Ve+/uF/+cqvDeGixCSbFIP1d/7R94crg777TW9t40IIIYQQjsIP/fA7H77vLW9v48LzJesiHBmMMoyKL3/11zz8ub/41SFclJhkk4pJdhugmGQhhBBCODoxQ0JH1kU4MjHJwjWJSTapmGS3AYpJFkIIIYSjEzMkdGRdhCMTkyxck5hkk4pJdhugmGQhhBBCODoxQ0JH1kU4MjHJwjWJSTapmGS3AYpJFkIIIYSjEzMkdGRdhCMTkyxck5hkk4pJdhugmGQhhBBCODoxQ0JH1kU4MjHJwjWJSTapmGS3AYpJFkIIIYSjEzMkdGRdhCMTkyxck5hkk4pJdhugmGQhhBBCODoxQ0JH1kU4MjHJwjWJSTapmGS3AYpJFkIIIYSjEzMkdGRdhCMTkyxck5hkk4pJdhugmGQhhBBCODoxQ0JH1kU4MjHJwjWJSTapmGS3AYpJFk7JN3zz6x++8JVf9fCVX/8tbXwIP/1nvM/DCy+88PBlX/GaNj7cP9wDMr/h1ogZcno+9U99/uP9/Nd96Ie38ffALa+LPc9L0nIP7uLC8+NSJtnv+X1/+HGt/tJf9ivb+BH/9X/76Q+f+ukvb+PC/ROTbFKzJhk3+9/wUR/98JN+8sseL8DHi/CXf8jDZ37BK9v0YRvo3CYZGyfm64/88U9r44H5JU3dZGG0+JwLwki7NP8f/wc+6eHn/YL3fzEP34/awIaC8lQXX1lvOeTNw7gzhlyfXXw4Jpijo2uOOE+r+FvZxNMOv/6Bgwn3gBw05tH9HLr4EK7FHjOEfchv/9hPeI97G/e7Lv1z4wjP/D3rwteDwzgs7XdnUbkzz6I9eWbR83J2n6wzAfm7H6bq+UF8jRPkUx+X6ucZTppTzsc98lSTDBML4+tff6+f+DiefP01/+Gvfwz3dB/1X3zMY/y/+/4f+JLwJShDc9nFn4I//cV/4SVtx8zr0lX+4Cd+8ottI1+XJqwTk2xSMyYZRogWKQ8lHkB+mOGnWF2+sA46t0nGfDFPSxtKPRTrJssPW8QJn382r54HfPOiPPrMQ9PT+vriYExa/eQO8kbUS2FDwrgwTl08mxHiq+EZbhtdU13cGqwJvyZ1zSmM69GNMqU75wZe63DpvkObtGEHXf+gMOjuMWGM7hHMfxcfwrWYNUP83tbtD+p+4oisPfOfq0mmNaBzSV0bhHf5ZlF5M89LrVnmros/BXvaxTNX+WD0bFX7R2Xr7cWlMkDzcc5xuAeeYpJhhmms/82f9t6PBtjP+jnv+2KYG057TDLeICPPOU0oN+KAfnTpKqTzfF2asE5MsknNmGQ8gNmIuFnhh5tsxPeD7sUk83DQxgx8behwzMOxrhnyVPNGD+PaPupmk/PcH66V0VyF+0bXUhe3hB8iuU+7GQadWaW6RhvgU6D7Q72uHd2baH/XFrV9rZwQwn0wa4ZwX+A+Ue8PekMFznkfuwXoH/0cPfN1r73nPcFTTLI6/xovOMUP8Uf1XJs97dIzVdcP+/Qunc53o+euX38jM1Lmbs6I+00yGWQYWPWtsf/h5a940SxT2B6T7BK4SaY285ZYl1boLTI3Cbt0YZ2YZJOaMclG6AYIMTL2ge7VJAP9lIgHr8K21CfWyg/vyWiuwn2z9zrQ9bb05iD3Zz8sqK6ZzfUsOriN7gP6STQb6KXnhzb1pKsGYAjhvthjhozQDwe27DXumbVnvu6197wnOKVJBjJxlp6LW1mq55rsaReGFnn4AfbSW156Po8MMPLq+oPu2eyGXI17buwxydxYWvp7Yf/pR/7mF7+/B5Ns699NI550nrdLF9aJSTapU5hk3BS1cGOS7QPtMcn4FUUdjoEHFhul7kGldEsbydEmTOHg4aIre0t9Yq38WRgX/QQMeIjzudtEsGZJo00U7dWmgXy8Qj46lJOXfNok8JWNQPerodqskYeNh/L4xoE4Pqt+6NqtuA6l0eZmtDFh46KNElDnqO0qizzEk07tp4ylv0nXQfpad31VX/O3Zc6E8hCvuVEd1NeVpQ0cX5ln7xvtIrzmEZovpQfWPePVpac80vI9/VUe0ut66eja7Wg8oJu/EV6+zwltpF+jda/rS/1Weq+bMlV+xe8vqnPpVzWErgufk7oWtl6/da6BdlFeTdvh9QD96OZd9Xha2trNqV9ntEN5+Eq81shofWkt657LfHj+CuX4dcj35K3jNdMH2HJ9h+fNKU0yXRda92uwHrnu+Z5rQOuaMC+j3hNH9xIgnHi/RkbXE3A9kYbrnOvIn1V8X+9DiutQGuriM+Oha1b3N9pCf7xMQV1eP3n4POrrOTm1SeZjUuPod/cMGN1fvZ56j2O8umev1oPH6b6sMaaNSsdXX4NbUBtG9+OK6qf9fGbd8pmxGKWFuh68H1o/3dgtxT039phkMol4k6qL73CTjL8DRl79LTDe4Ore3uKNNOLrr0DKzPqYj/24xzRbyhrhRhft0veU26WvbVL6mo6yMAn910/5vvubZyqTcSUfY6Vf5+Qrn2ueoxCTbFKnMMm48bG4eNB08WEdNGuSaZOlhyrooc3X+kDbspHkIUuauqFQOHg4UI/ifGNHPYSxLuqGr0IZ2qh0D+oZNC7AONAX37jWB7X6RlofP42XPnse8HXPJoP+ajPQ9Vnl+bypHuLZdBEOCvd2+waIOLWVuvgslEbj72HAWCuv4kHj37VdZdE/pSOPt2+0Aa/oIO/rlnL57Okon3Tdxm+0TpVHY6yxWWrnqG8+Rt0BX/MPlF/zdOvY4/hKeo0Ddaj9wPdi7fpRHyivix+hutRu9cPDax5tqEHt87Wj+w5tJk5jr7LBx1NldfNc0bj52O65fmmj2kVZGn/SLZmiQtc5dZAX+J5wT8cYaGxUD18VVu9FmketRVA/arznE+q/1rjGRvkdjSVQh48X9SjdbB+2Xt/heXOON8m2XLtAWq1nrVVdO8C9QPc53bcU1117fo3omvU8lK37olC82qB8Xo4bK8SpjV4HKI3uD7RZ5RDPZ76H+vyj7SqTPuv6Jg9xnvYSnNok05jVtfGU57fSKZ/PWZ1n5fG2jZ5ZXr8/I9dQnq7/HVonGhNfAzUtaP3UtaMxpBzd97tx0/jUsXmO7DHJGDuYMaNkkmH6yNDCMJMZ1JU3elNLZfk/DFgra0StQ79CiQFX04LqVrznFZheahdtom1ullXTS20gjdL59+Bv5R2JmGSTeqpJxk1ZN8CtG5TwnqAZk0wPWR7Q9cGjTRcPQg8nbRfueLldONRwPdhrHj+IAu3yTV9FD1kgXz18bYGHOPlZk7TN47x8b4f3jXy+EfDNr7eHvhEOtU/aONTx0PhDt5FgXtiA1/III0/dnI/mSmgjVOO1+WfevC76pLXD+HseldXlUx7CPc8IjefahknjVecRRn33MWa8vI6tffODgW+kvc98r37U+x5t69YMqKwurqbp4kao30vXdofqAu+Hr/u6MaYu6vGx5Xtd63U8NL5d2/zaq3EdKsvn3cugzVuuX90LZg4iQgeKLetd81LHUO0CH0f1T+XXa4R1p/hRHGUqbDS+Wtek9fVOmbTB2zvbBz6TvrYvBOdUJpmuR/C1vITSg9+vdF8Q/pz2evxZAFyrSu/rnnQe53l0XdV8fFWeen8aPfdEvX94O/X8I9zzaH9Rr+9rcSqTjL6rb/UeRZzuU/V5RRmKW3p+ez6fszrPSu9t8/sydXmc7s3gbV5C6b2cJfSs9vWhsG4daM9Y16PWFNeGro+6v1J4XXfPlVmTbO+vGMpcAswff1NLxhThnmfNJJspa0StQ58xt2pakPnFG1989ryCMqifrx6OsUZayvBwbwNxnk9vzYHqPBIxySY1a5JxE+YBDbqpcvO7lQfsvYJmTDI9/LtNIQ8+4urDSpsywjWHFT3o+d7z+kO9g4dn90AnjLI8LQ9Wfzg7bBC0QQHaWjcqS2hcugM5qC0e733rxlMbBMpWmDbTdYMldG14P1X37GZB7av5FF7nSmjDXOM1vuT3cGC+uniVRb/qPGu9gYePUNq1DaDGq2vnqO/K43MlqE91+zwv9Q10Tfhca/5nx54wqJtNR2m6uBHqt6/rLaiubh1rA7y1TPW59k3hXTmaR6hxHSrLx9XL2Hr9jtq6BdW3dh3rcNCtRdD4+v1N7eIaHN0jtR7rfVFr0g9po/EdlVHZ0wfVt3Z9h+fNqUwy3ftG9+IOrdHuvqdnt19HQnX5flfXCNdst+ZH16DK6q4trifiap9U1qivun/MPKe7Pl2Tp5hkHfSv3kuf+vzu1g3jRxzrwMOVh7lTmK+J7pmlNeh5lujqGKH1Wp9fek526159o10ezmfvr9rtfdJY8lVhz5lLm2SYT9Xs0a8b1jJHde0pa0RXh95Ic7MKZFhhxCms5l1D6b3d3obub7yN2nMEYpJNatYk08O7wsOku9mHbaAZk0zjzoOnQ/GeR5uhLdTNgT/UiQOZKTxs1+ae/F4/eUcHNDZ39EHlq84thy6lHx0wu82R983T1njfIKgvbCjq2EO3yVEe4hW2FfKBh6ld3heHemp815cKm3bSeDu7shzioIuraBz4OponUDofQzHqu/KMxljxvvbW+qZ43zx25TjaiIKHK6zrk+jyrbHW7xFL7VG/t5Y5mpOlcpQHalyHyvI61spQvK95hXGP6Q48S3Af0r2Jg8XovuRt5ftKN2d8rzxelqN7WD1cy/jyw+5obBS2dk/19qjdTtcHhfF16foOz5tTmGTaj3I9zqw18gDXR43T+u3iZAr7eud7wjpzQeh+4WV2147QdUuaLeFCbRnFEwcepjzcH7s+X5qnmGTcA+m79l+Me2f+aexP/fxWvK/FLo/mERTmqH1b56OrY4TMsPrc8z53zwXFqW985bM/h3R9eNnqS86H7+LSJtnoD/d3ZY7q2lPWiK4Ole9mGFAf4W5W1bxrdGWsjWmX5yjEJJvUrElW4QGkmyBsvamHl4L2mGRLsEHwPJqnblMm9PAmbRcOHq6H4pLp4lCODnOwtLHlQa0NHCxtQmG0sXG6/o36thTva34J3xhsGX9gTNi8kU6oPE/X9cVRPo/vTMKK8vG1ho3yEQddXIX++RqgzG6zSjjx9LPGjfquPN72tfi1vnXx3aGnQjx0YbP51ljr94il9qjfozJZ26wn4kH3gjqOS+VoHqHGdagsr2OtjFG8rgVgPjk8LN2PHMrUGgD6XsdQbV3DDxRd/yo6nIAOMwqr9+Gu71vuk2JPH7Ze3+F581STjHWsa7AzQpbQ2qzXLOhe2sXpeuCrwrofKlW6MhXW5dN1W+8Do3Ch9o3iiYMarj4A9xCu5zUD/Vw8xSTz8ZWBCvW+fq7ndxffhfG9whXmdOtlia6OEep796yTudjdr7VGFKfx9Xu/3jhz44zP1KnPz52YZO9Zh7+Npje+eMOLz/XXMGteh7z8bTTaK7q3wtbGNCbZ/eom/3A/6KbuN8ewHbTHJOviRmiOljZzenjXTdbSQ33pwdrB5kt5ltoi/DDbxYu1jQd0/VvL18XPbmJgbfwZF6UZ4em7vjjdhnltEw1K4+1cy0ccdHEjWC9+mK4mqMaiG+NR35XH274Wv9a3Lp7PsDT/StOFzeZbY2RQrbHUHvW7jiWHU12/HbUNo3KANa98biiPUD/91yS1FsDTbonnoECZOjjwdUs7gLbTJx8Lvwcu9XuE8qzNI/Fen+6RPi7Q9X1tvJw9fRBr13d43jzFJHODbOu+w9Ga7O57ura6uO56UPqla6QrcymfrlHSbAkXat8onjjo4ijbzTKu3WsYZacyyUDPi3rvGaV3lKYLG+Xr4rswvle4wpxuvSzR1dEhEwuoo6JrqjvH6RmjsdTY+vPSn+d8Vj9z7/9xZk0yN5BmTJt7MslA/8FTf6Bff+us/nfKLi/wh/YV1+FjN2qDiEl2v7pZk0wPZ+jiwzJoj0nW/TRoBA9B8ixt5vRQI20XDh4ObFIJ57BY40bole+ltoj64F1C6UabOz3ofROw1DfQxoJNo8I0ljMb9LXxVzxtqwd1wsHDRnMlug2z8nhfKtoo+08Iu7Ic4qCLW4M2dQcejUf3lsCo78ozGmMd2r3Mtb5prboBsdQ2YP6Ip18eThjQfg93lKaLG6FrEGYONsrTtUfj4mNJ2Zorwv3+M5qTrhxHJpOvtw6v28dd9YKnF931W6Fsbfpn7mNC9xXQmKjfMwcE5RmtRaH51n1M67reN0Zjo7C1tbKnDxXa0F3f4Xmz1yTz+8Dedan13933dG/v4rp7mcKqQe2ovX59qh4vS+i6rfeBUbhQW0bxxEEXJ7h/6X5yDXPjlCYZfVGcP6s09qd+five76tdHs0jKMxR+0b1VLo6OvSM24KPF2gsNSY8J+v4gNYObdHeKff9H2fWJAO9DTXzHxfvzSTT3x+jr7wRxh/Uh/o30Lq8ah9/vL/+l83O8IpJFpNss05lkulmOHo4h2XQjEmmB1G3wRqhB+9SHj286zwuPdTZEChu60Nd7V87GIMOud0DuaID9+ihrDHwer1v9ZAJ2lj4hnHPel8bf7Vha5zaPTrUdxvm0aZR+AHEx+IUm+8lVL6Pjca4O3zIlKjt0Rh3Pwkd9V11M46dadCtqW5NOCqztoMwWLpOlKabnxE+b914CebU1/5Se7o50Zrr1sEoTuWsjRXt78ZfKF1d76oXtl6/I1ROF7eG1p7G0u9bS/1y1MdufB3KU1t1oOvuAz42Ht6t6Y49fehQv/jaxYfnxx4zhDV4CgOH/KBr1anXsdOtY64hwrrrD3QNcg15uOrprgnlqfcBhY/qUvtG9w/ioItzRvVfglOaZNDtldeeCRrH0fO727eO1oHyeNs0vuBpxdIa7OjqqHDtaI/QPSeFng1dH/25wddun6WxYx+isX/Ks+No7DHJZAJhGvl/lqxgoslUujeTDOgf4XqLrP6NMujyLplaMcleSkyySc2YZNxguTnWG5420tA98MM6aMYk00OKOakPRuaHeSCNhy9tyoQe3qPNGXi4qJsODvg8ULv1IoMDZASQD+rDm/iZTbHK7sZFpgtx3ibvW83ncR5OuxQ+2jBVs2Jt/FVeHS+NLXg4KLwzVLRZqXPJxoZwxtXzUa/aWPOMyhLEQRfnMIbU6/Ps9fqa9TXu7dQ8Qm2PygHGTWPJV/V71DeoY6K4umZkTECdf78f+pqBUbjTjcUWNF7AGHl7gXbSD7+OltqjvvNVYaQjjHHytNSl67SOr/KMDnbkpV0qt94DiPc5r21V+bD1+qWN3i/QvI3aKcjHWvLxZc2oD75+dKjwtShoTz1kaMzrGHb4dczX2h/w/nu46qF99R7AOvG1N9MHPtc5JM/eNR2Oy6wZwjrSWvd72B4oA/yeILRWuzhdN/Va07VfrxGuA10/NY/qWbpuu/sA4eDXrVD7RvcP5fUw2s69z8N0v33qOO/h1CaZnot+X3/q87vmYy5G86z0XpbmFzytWFqDHV0dlW4cOrSGuNZqnNaF+lrHDjS2ula7cp4ze0wyjC/ekmI8edOqmjcYZzJ2ZKLdo0lWf2Wy+8+TXV71vb5FprfTwMdsqQ0Qk+x+dXWTTAuLmzjoZgnXeKAeBTRjkgHjrbFnHpgPPZigPsD04O02ZUIPb9J24eDhXTybROjWi4f5gUkPZuj6wve++VxC/VQ+r5ev9RDubVedfPX6u7WtTQdQrvqosHoAVtxo/HXopf+kAb6nbF1nNY/KVP18VZzGlHDPM5obfe7GelSWUN4uzvHNaZ2bWi/fq9/qnz5r7df2qB+aOx8Xfa7zr75prFWu6oLucK98yrslj+KWNrNerspcSu94XuX3/jMufrhSuq58lcVXhfmcUC5xbJwpX2NOuJfj603jVNMwJz52nk5hlNGN6Z7rV9caZVKHp+3qcLivKm1tY62Hfqnvnl5hfPX0GnPSeHiH33+gOzT72Hg4c+J9rv3wOZ/pw8z1HZ43s2aIrg3QGuzoroOKyunue5QxilMb/PoAv85Y75SxdP8B1VPLApVHmhqnfKrHrz+1r8sHxIGH6frUPVf3YcLrs/ISnNok8+ePm4G+nmrfYen5rf2H8im8u8cpztvm68XTCpXZ9adDZemeW+Ga0DOvM7Yc0qq8ei25gQij9aHxhm59P2f2mGSAYSSjDDDLMHM8TH/PC+7RJPO/v0a/ajx0eek3YbyJhtFGe2V0aXxikr2LmGSTmjHJuPlzw+OmqwUG3HzXDhZhGbTFJPv27/qBh2/7xz/++Qu++C88fNAH/5oX5+IX/+Jf8vAf/ycf+eJ8/IN/+uYX0zNPP//n//yH/+q/+fQX83s8/MW/+pqHn/ATfsJjWo/X4YfyPb3nZ8NA+Z/9Z7/s8TMP2P/qj3/qw//1/d51w4Ff9at/7cNv+i2//cWHq+enzb/z//1xD/+Hf+Onvpj+P/8vfttL2vvt3/WDL36/BBsB36TSNjY23QbaNyyscdL5xnFpU0Fexso3BVwf5KmbJW2sRteKri9t1ChTbaZMPnd5tPkBzRtQD2GU4XmAfJgbqgsYL+qv7QaV5eU76n8XV9GYqV7aQFu6eum7p6WN2ujyubZH9yb6QTpfA6Tt5p+0xJOXdVnrW9qoUoenZxz4PMqj8e7a4ch4UhtG6V/3hh94RJ///nf/4MP/9Bf+2uOcU9fP+Tk/5+G93uu9HstgTRLv6d/v/T/gMV7Xo8eTnvx/8I/8Ny+mJ/6vvuZ/f/EaIf7n/l9+3ovrhs//6Uf85pekpzzKpw3E/1vv/X9+TO/xfE/+//4zv+DhQ37th744nqT/hf+3f/9xPBiD2n4+01+l/9uv+ycPv+W3/a4Xx+6DfvmvfPhjn/oZL0lPfuqiDcTTf9Iyb1/857/yJeWP7jdcD762NL5dWtqt+fD06pOnXbpmK/RB/WTtdmkon3jqrnEag65dxHnamT7MXN/h+TJrhnB9aU0toXvZElrHXVqt3S5Oz4ruWie97otqC9fl6HlP2qWylL/GcR359cX3itMYeZijtnmYrm3F8ZXPW8bxHOwxydT2UZs11tyHPHz2+U088L3fOzVm3T1Oafw+qfuyyqqoTUt7D8efRR1aT9RX79cdvo+qcZRBHHXWOME4e91dmufKXpMMeKMMQ0gmDmAM8WuJ9a0rGUf8QXwPF/rVRg+TSYUB5+F6I2umrBH6r5Xk6eLVt/oH+wX5urykd8OQtmJyyeDz8VE/R23QPxGISXZ/utm/SRaeBtpikr3+7/zjh+//gbc+GkvcbH/4m7/1WX3+/n/4T9pxeQpsRHRj7eLD/bC0uRuhg8/IaLhl/v63v/HhLW/6vkdj5zu++80Pb3vd3392n9/4nW94NLp+7s/9uScpzz+/+R+d/n4TQthnhoTjk3URjgznmL0mWQhPJSbZpGKS3QZoi0n2D/7KNz689cM+4uHNb37bw1u/+use3vb+v/BZff6+/+y3tOPyFGKSHYfnZpJ9+zd/58NbP/hXP/zQm77/4W3f+rqHt/7CX/LsPv/LX/SLH772L/2lh2/6wi88SXn++c2/9kPbcQ8hPI2YIaEj6yIcmZhk4ZrEJJtUTLLbAG39m2Tf9Zl/9uFt/+og95Zf8aseXve6f/rsPndj8hRikh2H52aSwev/1fp92wd98MNbf/Eve/j2b/qOZ/f5q/7of/fwt37yT374//1r/9pJyqufuzEPITyNmCGhI+siHJmYZOGaxCSbVEyy2wDN/OH+f/SKV73EMHpun0/J2t+HCPfD0t95GbH299buge/88r/+EkPnOX3m+v3F/2r+/u2f9JM2pd/zOYRwWmKGhI6si3BkYpKFaxKTbFIxyW4DNGOShRBCCCHcIzFDQkfWRTgyMcnCNYlJNqmYZLcBikkWQgghhKMTMyR0ZF2EIxOTLFyTmGSTikl2G6CYZCGEEEI4OjFDQkfWRTgyMcnCNYlJNqmYZLcBikkWQgghhKMTMyR0ZF2EIxOTLFyTmGSTikl2G6CYZCGEEEI4OjFDQkfWRTgyMcnCNYlJNqmYZLcBikkWQgghhKMTMyR0ZF2EIxOTLFyTmGSTikl2G6CYZCGEEEI4OjFDQkfWRTgyMcnCNYlJNqmYZLcBikkWQgghhKMTMyR0ZF2EIxOTLFyTmGSTikl2G6CYZCGEEEI4OjFDQkfWRTgyMcnCNYlJNqmYZLcBOqVJ9pN+8sse6eJuhU/9U5//8MILLzz8ho/66DY+hBBCCMcjZkjoyLoIRyYmWbgmMckmFZPsNkCnNMkwn6CLuxU+/g980mMbf+kv/5A2PoQQQgjHI2ZI6Mi6CEcmJlm4JjHJJhWT7DZAMcnCFr7sK16TcQshhHC3xAwJHVkX4cjEJAvXJCbZpGKS3QYoJlnYwhe+8qsybiGEEO6WmCGhI+siHJmYZOGaxCSbVEyy2wDFJAtbiEkWQgjhnokZEjqyLsKRiUkWrklMsknFJLsN0B6TDKPpp/+M93k0TfhD/Xz+hm9+/aJJxq/r/boP/fDH9MrHH8//yq//lhfTyIihbM/rKL+HUTdlqU1AXZTn6WDNJPsjf/zTHn7eL3j/F8uhzNpOT0savqoNah/5CK95KId42kce2uN5PvMLXvliWh/nUXliy/gKwklDHsaIfHwGvifc0yuuw9OFEEIIt0rMkNCRdRGOTEyycE1ikk0qJtltgGZNMswlGSR8LxPHjaWaR/9REuPmt3/sJzyaPzJmCJMpg2kkk6caNYCBRBx1KYx0yoP5Q9luVlG3lzEyyajb+0A8qBxvp1BZbk6Rx8uhv55HRiBplI6vGkegzZRT00FnlG0dX6GyZZaRpvbVzTXvk9IKLzeEEEK4VWKGhI6si3BkYpKFaxKTbFIxyW4DNGOSuRnjxgvmlQwW8DwyvqrxAirPzRYZN9Vc8jg3ishLmL+BBTLPgDYofGSSUR/hmEHeTvKqXowsz6OylM/HRH0DL08mGdA2f9vN3+gCylAcfSastmF2fEFjBvRN48NXmWEjc6+WFUIIIdwDMUNCR9ZFODIxycI1iUk2qZhktwGaMclkrnRvM7n54+Eyd7o8oDeoZPDobbFqBgFGkKfFlOIz5lJNCzK33GwamWQq200rISOqxqss2iqjyZHh5H33capveNEvxXmbheK8rtnxBc1jN24jYy0mWQghhHsmZkjoyLoIRyYmWbgmMckmFZPsNkAzJhkmSTVcungPkyGDYYWpVJGJ4+aTDKn6thphGE8KIz9h1FHLBdXN910ehckA6ow5obe81spyFE/fFeYmmacVS3HdWO0Z325chNpX+zQKDyGEEO6BmCGhI+siHJmYZOGaxCSbVEyy2wDtMcm6OOjiZcis4YaY3gDzX/lbeitsDX/LSnnc7NHbWEsGkPK5sdSV5XTxTzHJNJad4bWGj6/yeF9ETLIQQghHJGZI6Mi6CEcmJlm4JjHJJhWT7DZAlzLJ3NhZQ4aMv9mlt8v8Vw0742qNzrjqwipdXWv5unj1DTytWIrrxrILW0N5vC9C7at9GoWHEEII90DMkNCRdRGOTEyycE1ikk0qJtltgC7165bd39haQr8myBtQ+lXL+je0ZEL5rzOusWRc+a9yVvTrlmtvpTn6ZwD+RpzqAk8rluI0lm6I7Rlf5YlJFkII4bkQMyR0ZF2EIxOTLFyTmGSTikl2G6AZk0x/iL4zZPQH38HDZRTNmituMHW/agkyz3jLrPvD+R2dseV/ML8zAP0P9/uvLaosDL2ufhl93u5Tm2R7xlfl7DHJ/O2+EEII4V6IGRI6si7CkYlJFq5JTLINetOb3vTwqle96uHlL3/542B9zud8zsMrvuTPPbzmtd/RXtTh/KAZk0ymEIaRm0lukIHncQOq+w+M5PU3rQRmFHkwZahvZITJiMJIq/EYO6O3z6oJpDfFMAK9b5QpU6nmUVldPh8rb9epTbI946tyZkwyUD3ezxBCCOEeiBkSOrIuwpGJSRauwZf8+a94+LzP/zMPn/3Zn/3o++D/fPmXf/nDG9/4xkf/4Sh6skn2ute97tEU0yC94hWveNEs++zP/pyHr/jr/2t7YYfzgmZMMswevU0mI0UmFSaT4mo+N9Ewjcgno0Z5ax5Q2TD6lUrMNMpUOpWtML56+pFJRt+6cvSZvlUTTmXJyFM+b7e/RQanNslgdnwVN2uSKZ/qqGMbQggh3CoxQ0JH1kU4MjHJwqX5wi/58y8xx9z3wQ967Wtf++hBHEFPMsl4g4wBgW/5lm95d+i79G3f9m0Pn/d5n/c4aHmj7PKgGZMMMIowrGQKYQjpDSa9jVXzAOYL8conI4a81XwSMqGgGkMObzbRJjenMLV4g6q+9UR9xHfGHO0gTy2HdnRtdMMNs079V76uzXrza2QwET6Kk0nlv/IpZsZXv77avXmmN/jIW+Mox/vYjWEIIYRwi8QMCR1ZF+HIxCQLl4Q3yDDI1nyfo7xR9iSTjF+xZDDqQEl/7+/9vcf4L/riL20v7nA+0KxJFn4cN8m6+BBCCCHcBjFDQkfWRTgyMcnCJeFXLLf4Pq985SvfHXLfepJJxut1sKQv+IIveByw7uIO5wPFJNtPTLIQQgjhPogZEjqyLsKRiUkWLslnffZnb/Z9jqAnmWQMAr+LuiT+kFtMssuDYpLtJyZZCCGEcB/EDAkdWRfhyMQkC5dkxvc5gvIm2UFBMcn2oz+Yn7/NFUIIIdw2MUNCR9ZFODIxycIlyZtkE5JbyB9r6/Sd3/mdj/F/5gtf0V7c4XygmGQhhBBCODoxQ0JH1kU4MjHJwiX53D/9LgNszff5ki/5kneH3LeeZJLx3wv4Dwf8NwP+WJuLgdJ/Ofj6b/q77cUdzgeKSRZCCCGEoxMzJHRkXYQjE5MsXJL/6cte/fjfLdd8nze84Q3vDr1vPckkQ6997WsfBwR4xY63y/SqHfylr/q69sIO5wXFJAshhBDC0YkZEjqyLsKRiUkWLs2f/eJXLvo+f/Nv/s1HD+IIerJJhnijjFfrNEDAr1jmDbLrgWKShRBCCOHoxAwJHVkX4cjEJAvXgDfKXv6573prTOADHeUNMukkJpmLgeou5HBZUEyyEEIIIRydmCGhI+siHJmYZOGasPbwfY6qmGQHBcUkCyGEEMLRiRkSOrIuwpGJSRauSUyySTFYf/+f/GC4Muiff+/b2rgQQgghhKPw1h9558MPvPUdbVx4vmRdhCPzXf/irY9Gxf/ylV/7aJSFcElikk3qyIMVRVEURVEURVEURdcWRkUI1yIm2YQYrO9/y9vDlUH8BK2LCyGEEEI4Cu/80R97ePs7f6yNC8+XrItwZN7ytnc+GhVf+/Wvefjqr/2GEC5KTLJJMVhv+v4fDlcGvfmt72jjQgghhBCOwjve+WMPP/z2H23jwvMl6yIcGYwyjIq/9jXf8PBXv/pvhHBRYpJNKibZbYBikoUQQgjh6MQMCR1ZF+HIxCQL1yQm2aRikt0GKCZZCCGEEI5OzJDQkXURjkxMsnBNYpJNKibZbYBikoUQQgjh6MQMCR1ZF+HIxCQL1yQm2aRikt0GKCZZCCGEEI5OzJDQkXURjkxMsnBNYpJNKibZbYBikoUQQgjh6MQMCR1ZF+HIxCQL1yQm2aRikt0GKCZZCCGEEI5OzJDQkXURjkxMsnBNYpJNKibZbYBikoUQQgjh6MQMCR1ZF+HIxCQL1yQm2aRikt0GKCZZCCGEEI5OzJDQkXURjkxMsnBNYpJNKibZbYBikoUQQgjh6MQMCR1ZF+HIxCQL1yQm2aRikt0GKCbZdfjb3/LtDy+88MLDz3yfn9XGn5pP/KRPfqyLOl/2spc9fMkrX9WmC2EWrWXWVRcf7p/veP0bH179VV/zONddfAj3QMyQ0/Pyz/+ix/v/h334R7Tx90DWRTgylzLJ/ss//ImP94Jf8Sv/gzZ+xJ/89P/x4bNf/vltXLh/YpJN6qkmGQ9jLkT4E5/2GW2asA46t0mmuVqaJw5f3SaLAxkHb821IIy0S0YPptD7vf8HvJiH70dt+LrXfNNjeaqLr7/1o3/HY3iX/hSoz9DFnxJtYuGDP+RXP45FHesQKlx/XAcyV4F1w3rydJdcy1uhjax1tQtY9x/3Cb8/Rs8OuJ8yhoxpFx/CPbDHDOF+wX3D74PcS7gmuvTPjSPcG/asC+0Xl/aJGpucU+ZgvBi30T5Ve/vuGmQ/4vt54NplL0NcTS9UJvmW5pR46OKE2uD3DPJwjXAvOefZouOpJhkmFsbXe/3En/jYF75+6K//Tx7DPd1v+5jf+Rj/gR/4i14SvgRlaIy6+FPwZX/h1S9pO2Zel67yxz75U15sG/m6NGGdmGSTeopJpgO/boDZqOwHndsk00F1aZ50yK6bLD98Eyc098ADx/OAHnaeT595UHpajDbF8UAjrT/YznWg9r518VvhYUsZtLuLB/U/G7Xnw5Z1sYQbq9rcaR2BX0enWstrsOmkDurr4oF++/XP97Tbw+hPNfrCMmuHlhDugVkzxH9Q1+0P6n7iiKw9S56rSaY1sPQ80tjknDLH0primiOOZzpvOCuc77VHAF2voDDozgzgacjbpQGl6eJog9fne6e6B+nyn4unmGSYYWr3v/Xe7/1ogL3v+/47L4a54bTHJOMNMvKc04RyIw7oR5euQjrP16UJ68Qkm9Rek4wbEDcX4EbHos3DZz/oXkwyDwc9RMGNLB3meMh5OGuHPPWQpw1wbR9181A71098lvo2w2jsHM0Babv4cDy2rIsRbpBVY5XrSJtUradTreU11taxng+k4dqtBre3famcEMIxmTVDuEdw36n3Ct9/nGuPcCvo/j56lmgs9jxrboWYZLfFaE35SxL1utP+gLhuTnQ2GM2H4mSCj36QpnQ1nP2FjDC+dm0gDeVe2lzfa5LJIMPAqm+N/dlXfOmLZpnC9phkl8BNMrWZt8S6tEJvkblJ2KUL68Qkm9Rek0zGGDeZPHyeDrpXkwz0MPOD/Jb6xFr55+RUdY/GztGYkLaLD8djy7rocKOpGmQO92BtUi91Ha2t49FPmCv6afPs2IQQ7ps9ZsiILffJI7D2LNFe/J7vpzHJbotuTbHf0DVXx3zJPHNklJGu7hEIB5XF+aLbRyhdDde+Ym3/cQ32mGRuLC39vbDf9Jv/8xe/vweTbOvfTSOedJ63SxfWiUk2qT0mGTc+Fqlumnn4PB20xyTjVxSZB904eJgwD92DQemW5mm0CVM4eLjoyt5Sn1grfyt68PKVMeCwroc5Y9NtopfqZq1ThkxA4AFcNwaK6yDe58ihbV4O8+mvqRPf1Qe8nUMa4umr6vDNiTYZ9Jv0/vYO6ZWujtXop29LMM8+TpRB/Yqv942K+q02CdqkcWJ8KFd1kKe+pQReFugzrPXtlHOgMjpqWRWtZca0i++gjV6+zwlfl65F6vN1qvR+L+Gz4isqm/QKYyyVt0PjBz7v6jtf69qkXYR7OaKuD9KOfqWjUusBv0YcrSml5St5u7Woa448XA/KQzjxqqvLC1qLWn+6ppXfoQ8+50Af/DoUM32AWm69vkOY4ZQmma750X2hwjpmvfM9a1jrmjDdx8DvJ8RxL/H7oUM48fUaobwuj98XuLZ1nQPf1/uO4jqUhrr4zDVf72e0ZXQ/1r1A5ZGHz6O+npNrmWSEa66B77v729oznzS6R7MeSa+5Bn+mdHM06gN5SOvrizZ06bv6t6yDDl9TfKbNakM3PhrDLc9dlVOvW8LA03Tz5ukE46Tw0bPsmuwxyWQS8SZVF9/hJhl/B4y8+ltgvMHVvb3FG2nE11+BlJn1uz/u9z6m2VLWCDe6aJe+p9wufW2T0td0lIVJ6L9+yvfd3zxTmYwr+Rgr/TonX/lc8xyFmGST2mOS6aGgG9Dawyesg2ZNMj14eYgw9qAHFF/rBkfztjRPPHBJowdiDQcPB+pRnB7+oHXhm4cRlKGHOP3q0mxBdbJ5UHn0ReMC9eE96hsbCYWTn3J8g+KbE6+DevksiKdOvveNCp9pp8rQfHq811c3JGo3aVW36lDbRuOh7/lKP1VPrXNt3gTlKz91At97/9Rewj2vIJx4H1dQW3y9k9b7UDdDKkt5SEOY963bKJ56Dvhe4WqD8HI6SEO+LZtNofaoTfqq70fldW1Uem8r/ecz6Ygjn9JrbLwNyreExtfHds91zEabcMrTGiQ/nz1dh2/8WQPkpXzqqxt42kk62kUa1aOwes3QbpWr9mncPL7WA35v1f1cY6P8nrbOo4+XX1ezfVAcZZIW+J5wTxfCVk5lknHv1xrf+rxS+npNKpxrAhSnaxS6NU+9XDfE69rzPJSt61covj6jvBx/rhFXr2+hNLo30GaVQ7zubVCfe7RdZepeQJvIs3U8T8mlTTK/bzJWxDMOGjPGwtPr+UYez8f4qX7VxVrxedD3fJ3Zd83sRWFUv+fp9j8dKov8fOYrn+u4CJW/NBdCa7+WpTL4XuNNP+o15OmErttbfTbtMcnUzxkzSiYZpo8MLQwzmUFdeaM3tVSW/8OAtbJG1Dr0K5QYcDUtqG7Fe16B6aV20Sba5mZZNb3UBtIonX8P/lbekYhJNqlZk0wHEX/Q6CbqYWEONGOS6cHBA6s+OPTgqfOhh9vSPHm5XTjUcN8oeBzt8ocy7Vr6yY7WFpDPD81b0VoE2uWbDR0Mwdsx6htl8aCtbSaMtPUhPBo7R3NAWg/XJoiNQI3zcRm1m3zdhraOh/LXuan51cfRRsghn8rv4sXa+IzGhjDha9c3t7WdKgvoi18juj7ov+c51xys9XuEyq1tWaK2x/P6+q/3DNLW603zCrVfo7kCrbmt/VVZPrd13Xr9o+uYPhBW+7YFzS8b7C5eUDb1QL0vqF213+ofdNeT8nXXj+L8XjMaX61ryvExoJ3E+bU/04et13cIM5zCJGP96hlQn8dLkF5w7Svc7/Pg16vfD+t1ozaQvl57Hud56n1B+fiqPPV+tPYsqfdNbyd1KNzz6Fm/1TQ5N5c2yRRex9rnwcvVHAD30PpshNE8UOaefRflEVfXndLXtT+qH0brYITKYs3JgBqtPx+bLr7iZXt4LUPXSh2Xmg6UlrI9/FaYNcn2/oqhzCXA/PE3tWRMEe551kyymbJG1Dr0GXOrpgWZX7zxxWfPKyiD+vnq4RhrpKUMD/c2EOf59NYcqM4jEZNsUjMmGTd4burc5PVAB93obvWmdA+gGZNMD8fuAc0DkbhqAujhQTjfd2hTwPee1x9+HTw8fU0IwijL0/Kgqw97wSGNNaa0tJWwLm2H1mJdo0L9843x7INd6esmQ+F17ByNBWk9XPM5uoaUz+O93aMN7tJ46EDcbfRGfezYmnZtfEZjQxj4nAk3tjxcZdXNIzAOKrPboJ56Dtb6PULl1vFYwtvT3RtYBzNlqs+1b6O5Aq25rf3txnVp3UJ3HfMZuvRrqL41k0yH6G4tgsbX72/q3+j68PU4OgT5PbAb36UyKrN90Jraci8IYSt7zBDWOesedA9gvfq9YwvkG10DWv/1QA66lv1+yH2WMJ5B3b3H78kerrK6Z1RnVoPKquFi6b7J9UwceHjXp2vyFJOMNUF/OjSvda0wb3X/IDQPvhZ8PkdjtjQPp9p3wSj9nnUwQmXRXuUbPWNGa32EymZ+PLyW4eV63TUdaJ7J4+G6TiuXfq5d2iTDfKpmj37dsJY5qmtPWSO6OvRGmptVIMMKI05hNe8aSu/t9jZ0f+Nt1J4jEJNsUjMmmX4CUR8MutHx1cPDdtCMSaYLnDHvULzn4UGk8DXqQ8sfUtp06KHJQ6Y7kDvk9/rJ6wc/h4c6ffCHMnm7DWhFfa/tr/GjTY+nXaJLr3JGdYPGoD7AVd5o86GDrZe9pd1L47HU3pmNFPOiuRqZpbA2PmtjU8NrvI+dyqL/nrbG+xrsynH2zsFav0eo3FG/O9baMxrjEVo/dRyXyllacx0qy+tYK0Pxfh2rHL6O5nCExo11PDKPQHVQL22odBv0rn8VmWFeN9cRYeDXFOUQ5mOj9m/Z8M/2Yev1HcIMe8wQfy45rNkZk0f5uvuXro8uTntgrhOF8T1hfi+q6PrZel/Q9ezX+FK4UFtG8cSBhykPY9j1+dI8xSTbgo+3xpO+E17RfPt4Kg8orELemk8szeHMvkt06Zfqh5k6vCw9p0blbhkbZ9TOrgzNhZvKXbruWgPGlnoEz8ou/7m5tEk2+sP9XZmjuvaUNaKrQ+W7GQbUR7ibVTXvGl0Za2Pa5TkKMckmtdUkW7qx60bH1xoXtoH2mGRL8LDwPMwd4UvzNJrn0cNPDy42GR4+gnL84bR0mOUwprUFS5tQMXroLsWP+iZoI2YKeUWXfukaEZoD0irMf8LlaZ2u7LV2w9J4rLV3rWyHsrQ5AebK+6g0S/V1YwMqs4Yvxass+u9pR/HnnIMu3xZU7qjfHWvtGY2xIFxrHEbjuFQOaYnb2t+ujrUyuniuU7+3EDcy4jtkggJrGUOo3p/U1jX8hwZd/yp6u8BNLoXV+17X987AHbGnD8zz2vUdwgx7zJAKa1R7EFi6xhyl79awro+le5vXI+Ngqe6uTIV1+UhHXL2eR+FC7RvFEwc1XH0A9nLcT65lhj/FJOvmTHRzp/Fcw40Zz6OwytI8rM3hUtlb96JL9cNSHRUvy39gQnhNu2VsnFE7uzLou8I1z106yiKsa58z29ZTEZPsPevwt9H0xhdvePG5/hpmzeuQl7+NRntF91bY2pjGJLtfXc0k00aETTw3IYeHKnF85fPazSm8J2iPSdbFjWBuyLM0P6MH+NIDRfO/9UDKg1Z5tqwVP7x28c7oobsUP+ob7dSYjfD0o7FzVB5pFbY0tqIre0u+pfFYa+9a2RWZmppb8DWxVl83NqCyavhSvMoara8ar7ZBTSu69u/Nt4WZa0SstWc0xsyTmyCV2oZROcAbHcRRXo3rUD/9TRDqI2w0Zkvx9MXNsmoyLcFGnPQaC752hlfX7xHKszSPfviQMaeD6+jNbe/72ng5e/oAa9d3CDOcwiQTWv9b7zlav901sHR9qB6+KmzL9d2VuZSPdMSRZku4UPtG8f//9t492LqtLO88VeG/eKE6VhmtSkpMyvwRTMDGlFpEJQJqRytK0HiLsfFSlt2lhFga24jESFJBpUgMpacTFMXCCEFUoqjhJnR7idJEJSQaEVRIKqhcPQc4B1zNb38++3u/97xjzDnmXnvPueZ63qpfrbXGfbxjzDHGfNbcaxMHVRxlR7GMNZRrvkp7nawhkrX8VaE8UMVDbxym6qzKHj2LXmUeZHJZsf/Z37RTcXHfbKH7yvwzByojhkFuS5VOZUZhs2LOOF4HoyJZFJBGRJtTEslA/8FTP9Cv3zrL/52yygv80L7iKqLvWm0QFslO11YXyeYwtTiZB4ItEcnykw49tMnGQ0KmtYH3NhRulAjn5inHtWBTnGqLiBtvFR+ZOhyo3rgpt/omfzGf84ZfpW/5LqIySRvDVV7rUCqhMF5bvTERPX9MtXeq7B5R2NQcVX3xaZnIlG9yOMS5EX2nslrzSyJKFCCqciJLx2DKzy205rb8VTHVnsrHysMNJtdy7L/mT/Zja6wgfuM7dVCO7a3qbfmsuo4zlC3haVTMoS3yf1zX1O+R8pSnNReF6tNTHLyvbvor38iPc+bKkj5kquvbmBGOKZLFdaRakzK9tLo+qrhqPVRYby3SOlQJ7tW6oP7Ea7wXLqq1IUIcVHGC61n7I2tSleY6WUMkGzm7Kg9U8dAbh6kxrMomLWFzz6LHmAeiKkthzOt8XtKXKOwRMTxDPl0X+YsgwiCGQczTGgd9SQe9vWnOOF4HoyIZ6Gmokf+4eGoimX5/jL7yRBg/qA/5N9CqvGofP96f/8tmJXhZJLNINtvmimQ9tGDyWsWbabARkUyHmBGfa6Pt5Wlt4L0NRTd0QLocX6H2T22koE2vumHMaC6yUefNG7SBxxvEVt+qsF6cyukduDQG2U9VuyLKF/3VGxMhf+TxBOWv4mCq7ClyX+M8yWPDZ/kg+0Z5qrmCv4jLPlfdlWAfRZx4iLquMVCa3ryoiGXnQ2SE9spnU+3JYwKaI9W60IpTOVO+4rWKF0qXb8ZULz6bex1X9Po2B/KCPkucm+pXRH2caoPWOdZGzevqJlV9im1ozemKJX2oUL/iXDJmLscUyeKNcRWfUdpq7vbmdbWe6Fptre9ak/P5pbcuKE++RhXeqqtaGyLEQRUXadV/E9ykSBbPJL28EfkGqnjojcOUb6uyq7Be3LHmAbTK4nMVrvSVgBZRumouEw45HGJ7Wul0f8Frqw1zxvE6WCKSSQRCNIr/WTKDiCZR6dREMqB/hOspsvwbZVDl7YlaFsnuxCLZoFkk2wbYiEimgxkbUd7c2RQYi3wDqU2lN06tDXxqQ9FTELqp40aNzY825E0KkUFl6YaOfJC/JSNeG151w5jRXATyxRtGxeXNu9U3heX2q685PSi8daOqMchjJp9U46mb2rntjqjPeTxB+as4mCpbUAdiVGwb/ae95I++kLgRv3VnzBUOuf8KhyhQUa7y5TktPwPjpbbxSlsJz/2+rjEApWnNixaaa9Qb+w60Q+3StT7Vnmr+aY7EMQHGRWOY/as8rWsytiPPDcAPakv2Kah8mHMdUx/p4vpBnOrIa2GGdLmPuvGOh3jaoXbl8QDqyX5UG3L5FfK31rw4TkL9p9wYrnqqa5E2yTejfaC+ude3MXMZFUN0jeb5FvePfE200Pyvri9dR71rL1/LuhbiXgOxbTmP6snhoPWz6g/hUF13al/LD8obw2h7/hJG+0prfb9OblIkA+2xeZ8BPhMf9xWNDcS0kd449MYWqrIVFucWqO05/ZJ50KJVFm3RvI8+jeF5T1a85hdUY6a4HC7iebFKR52xDVUdOu9V+a+TJSIZwhdPSdFWnrTK4g3CmYQdiWinKJLlP5ms/vNklVd9z0+R6ek0iD7rtQEskp2uWSTbKdiISAZxg2TTYBPTzRXkGyDip8aptYFPHQxiPJtg3CiB8iCGxRtXzSGo+sJ7yox1VqgcylBdlBU31XzD3OqbxBTyUi6oXJUX0wN1EU4a9beKrzZtxQH9VX6Vlw8bU2MC8gdl5Tjlr+JgqmwRDxuUFfuRD9kxrfrIe/onf2ffxPS84vtYRzU3FK88cTz0Ofsz5lPeqTxzxgBUbmxHlS5Dv+SXmD+2k3iln2qP8kUf0yflYbyYM1pb5D/CYjmxHtJATsN1Jt8pHfWrTGAsq3HQvNX1xnvy6rqDeB3HPqge5ePz1NohH8u/sY15veCz4qbGAxSX/VOR1/QqjXxDuTEcH6jPVT/imI/0YeT6NmYuo2JIXAd1jcf5Pec6F8oTrwmh+V3F6drL13JcD6trr7pOVE+1Lqg80uQ45VM9vCqutTYI4iCGkZ8w7ataYwmv1ubr5qZFMuZMnkfRDxD9EMc6lhPpjUNvbKEqW3OfNlE28J4xUjtj+l79UNXRoldWfIIz+h5/Rf/xnvygMNqe91ahNFUcxP2rlS63gfrUBs15qPp1nSwRyQDBSEIZIJYh5sQw/Z4XnKJIFn9/jX7leKjy0m/CeBINoY32SuiSfyyS3cIi2aAdUyTLooyZDzZHJPuDt7/njs/P/9GfODz6sZ9xecF/4id+4uFvf97fudx83vrO2+nZaB/60Id+4MJ/5mVYjIdXvOoXDw960IMub5IUz4aj8mP6mJ8NifJ/+Pk/dvGZb+H++dOefvhfH/Hxl+177Kd/xuEJX/HVl4eOmJ82f+0Tn3T4sA/7sMv0T/jyr7yjvX/wjjvbm4kbOnXkg3V1iFLf2DhjOIcnHUYUz2GXfmmjjemVJ9YpPwryEa7+Z7iG4oGNulVnTkuY0uQ4ocNEbgeo31UcEFf1sYJ68kGztR4Qnn0qXxOWfaMyGbs8HnwjWd0Yyc+k5yAX20Z/K3+KY48BTM2LSJ7jb33ney/8Sx76/LCHPeyyDPpGvNLiO+LjuMV48hAfrwPi+az2EU//qZNwPsexVHnE02/iedXTCLE+/PMd3/WMO+fGB9IzPpSJX2J65Y/X8S//f79+2Tb4O1/whQ9oP6/qA+WTjjYxP974e2+5TAvVGqL5Rx7VI//mtKC68LPSxz7FtMwd4vFXDK+gXJVHe6o0lEM85eY4/E141a6cdqQP1HnHGH7gfVWmMXNZIoYwD5mjcc5qLuY520PXebUPa62p4rQuVXOf9NW117rutS60ylL+HEc/1UbgveIoK4dF1LYYltcMXvlc9f8mWDIv1PZem3tjp/U/rnHMEfwQ9xqYs+drja7GQWPbGiPi6E8MU/s0bzVGtEXXQ0zfqx/kryouMzWn9FQYvovhtJm8tI94QTry0PaYPjKnfbp+ct8z+IK2q0zQ2Lb29+tkqUgGPFGGICQRBxCG+LPE/NSVhCN+ED+GC/1pYwyTSIUAF8P1RNZIWS30XyvJU8Wrb/kH+wX5qrykj4IhbUXkksAX/aN+ttqgfyJgkez0bJMimbk62ByR7G1vePPhPffcusljsb3/P/3qWX1+z+++6eJ9Cx2EqsOlOU0YT8iH1R46mDEfqvgt847X/+7h3vfcf+v9H913eN+rX312n3/+F27dSDzlH3/bUcqLn+994+9dvDfGrMcSMcTsH88Ls2e4j1kqkhlzVSySDZpFsm2AzRHJ3vrzv3K47/Gff3jvve893Pfynzvc//F/7aw+v/tL//fSL8Ii2f44N5Hs7f/uxw/3/Z9fe3jvfe8/3PfDP3K4/+Efd3af3/C5jzu86EUvOvz6tz7lKOXFz/d8/T8s/W6MuTkshpgKzwuzZyySmTWxSDZoFsm2ATb3N8ne8eznHu5/zGMP7330Yw+//6bfP7vPlU+ERbL9cW4iGbzrn37H4f7P/N8O73nc5x3e8vvvOrvPL/6Mv3n4jx/+4YeX/dmPOEp5+XPlc2PMzWExxFR4Xpg9Y5HMrIlFskGzSLYNsJEf7n/7C3/yDsHo3D63mPotBnN69H4/poV+r6L6/ZFT4e3/9gV3CDrn9Jnr+LM+MH5/+3P/9qz0Sz4bY9bDYoip8Lwwe8YimVkTi2SDZpFsG2AjIpkxxhhjzCliMcRUeF6YPWORzKyJRbJBs0i2DTCLZMYYY4zZOxZDTIXnhdkzFsnMmlgkGzSLZNsAs0hmjDHGmL1jMcRUeF6YPWORzKyJRbJBs0i2DTCLZMYYY4zZOxZDTIXnhdkzFsnMmlgkGzSLZNsAs0hmjDHGmL1jMcRUeF6YPWORzKyJRbJBs0i2DTCLZMYYY4zZOxZDTIXnhdkzFsnMmlgkGzSLZNsAs0hmjDHGmL1jMcRUeF6YPWORzKyJRbJBs0i2DTCLZMYYY4zZOxZDTIXnhdkzFsnMmlgkGzSLZNsAs0hmjDHGmL1jMcRUeF6YPWORzKyJRbJBs0i2DbBjimQPfvCDL6jitsLdz/rBw1133XX4sid8VRlvjDHGmP1hMcRUeF6YPWORzKyJRbJBs0i2DbBjimSIT1DFbYUnP+WpF2181Kc9pow3xhhjzP6wGGIqPC/MnrFIZtbEItmgWSTbBphFMjOHl7/ql+w3Y4wxJ4vFEFPheWH2jEUysyYWyQbNItk2wCySmTm86MUvtd+MMcacLBZDTIXnhdkzFsnMmlgkGzSLZNsAs0hm5mCRzBhjzCljMcRUeF6YPWORzKyJRbJBs0i2DbAlIhlC00c95KMvRBN+qJ/Pv/H6N3dFMv5c73Me9/iL9MrHj+f/8mted5lGQgxlx7wR5Y9h1E1ZahNQF+XFdDAlkn3H07/78LCHf9xlOZSZ2xnTkoZXtUHtIx/hOQ/lEE/7yEN7Yp7nPu+Fl2mjn1vliTn+FYSThjz4iHx8Bt4THtMrriKmM8YYY7aKxRBT4Xlh9oxFMrMmFskGzSLZNsBGRTLEJQkkvJeIE4WlnEf/URLh5olP+oYL8UfCDGESZRCNJPJkoQYQkIijLoWRTnkQfyg7ilXUHctoiWTUHftAPKic2E6hsqI4RZ5YDv2NeSQEkkbpeJUfgTZTTk4HlVA2179CZUssI03uaxTXYp+UVsRyjTHGmK1iMcRUeF6YPWORzKyJRbJBs0i2DbARkSyKMVF4QbySwAIxj4SvLLyAyotii4SbLC7FuCgUkZew+AQWSDwD2qDwlkhGfYQjBsV2klf1ImTFPCpL+aJP1DeI5UkkA9oWn3aLT3QBZSiOPhOW2zDqX5DPgL7JP7xKDGuJe7ksY4wx5hSwGGIqPC/MnrFIZtbEItmgWSTbBtiISCZxpXqaKYo/MVziTpUH9ASVBB49LZbFIEAIimkRpfiMuJTTgsStKDa1RDKVHUUrISEqx6ss2iqhKSLBKfY9+ik/4UW/FBfbLBQX6xr1L2gcK7+1hDWLZMYYY04ZiyGmwvPC7BmLZGZNLJINmkWybYCNiGSIJFlwqeJjmAQZBCtEpYxEnCg+SZDKT6sRhvCkMPITRh25XFDdvK/yKEwCUCXMCT3lNVVWRPH0XWFRJItpRS+u8tUS/1Z+EWpf7lMr3BhjjDkFLIaYCs8Ls2cskpk1sUg2aBbJtgG2RCSr4qCKlyAzRRTE9ARY/JO/3lNhU8SnrJQnij16GqsnAClfFJaqsiJV/FVEMvmyErymiP5VntgXYZHMGGPMHrEYYio8L8yesUhm1sQi2aBZJNsG2E2JZFHYmUKCTHyyS0+XxT81rISrKSrhqgrLVHVN5avi1TeIaUUvrvJlFTaF8sS+CLUv96kVbowxxpwCFkNMheeF2TMWycyaWCQbNItk2wC7qT+3rH5jq4f+TJAnoPSnlvk3tCRCxT9nnKInXMU/5czozy2nnkqL6J8BxCfiVBfEtKIXJ19GQWyJf5XHIpkxxphzwWKIqfC8MHvGIplZE4tkg2aRbBtgIyKZfoi+EmT0g+8QwyUUjYorUWCq/tQSJJ7xlFn1w/kVlbAVfzC/EgDjD/fHP1tUWQh6Vf0S+mK7jy2SLfGvylkiksWn+4wxxphTwWKIqfC8MHvGIplZE4tkg2aRbBtgIyKZRCEEoygmRYEMYp4oQFX/gZG88UkrgRhFHkQZ6msJYRKiENJyPMJO6+mzLALpSTGEwNg3ypSolPOorCpf9FVs17FFsiX+VTkjIhmonthPY4wx5hSwGGIqPC/MnrFIZtbEItmgWSTbBtiISIbYo6fJJKRIpEJkUlzOF0U0RCPySahR3pwHVDa0/qQSMY0ylU5lK4zXmL4lktG3qhx9pm9ZhFNZEvKUL7Y7PkUGxxbJYNS/ihsVyZRPdWTfGmOMMVvFYoip8Lwwe8YimVkTi2SDZpFsG2AjIhkgFCFYSRRCENITTHoaK+cBxBfilU9CDHmz+CQkQkEWhiI82USbojiFqMUTVPmpJ+ojvhLmaAd5cjm0o2pjFNwQ69R/5avarCe/WgIT4a04iVTxTz7FiH/156vVk2d6go+8OY5yYh8rHxpjjDFbxGKIqfC8MHvGIplZE4tkg2aRbBtgoyKZuU0Uyap4Y4wxxmwDiyGmwvPC7BmLZGZNLJINmkWybYBZJFuORTJjjDHmNLAYYio8L8yesUhm1sQi2aBZJNsGmEWy5VgkM8YYY04DiyGmwvPC7BmLZGZNLJINmkWybYBZJFuOfjDfv81ljDHGbBuLIabC88LsGYtkZk0skg2aRbJtgFkkM8YYY8zesRhiKjwvzJ6xSGbWxCLZoFkk2waYRTJjjDHG7B2LIabC88LsGYtkZk0skg2aRbJtgFkkM8YYY8zesRhiKjwvzJ6xSGbWxCLZoFkk2waYRTJjjDHG7B2LIabC88LsGYtkZk0skg2aRbJtgFkkM8YYY8zesRhiKjwvzJ6xSGbWxCLZoFkk2waYRTJjjDHG7B2LIabC88LsGYtkZk0skg0azvrDd7zHrAz2R/feX8YZY4wxxuyF++9//+E9972vjDPni+eF2TPvuOe+C6HiJS975YVQZsxNYpFs0PbsLJvNZrPZbDabzWaz2dY2hApj1sIi2YDhrNf/93eZlcHe8rb3lHHGGGOMMXuBP6l75733l3HmfPG8MHvmv//BvRdCxYt++hWHH/uplxlzo1gkGzSc9Wu//TazMtjvveWeMs4YY4wxZi/80bvvP7z1Xe8t48z54nlh9gxCGULFC1700sOP/PhLjLlRLJINmkWybYBZJDPGGGPM3rEYYio8L8yesUhm1sQi2aBZJNsGmEUyY4wxxuwdiyGmwvPC7BmLZGZNLJINmkWybYBZJDPGGGPM3rEYYio8L8yesUhm1sQi2aBZJNsGmEUyY4wxxuwdiyGmwvPC7BmLZGZNLJINmkWybYBZJDPGGGPM3rEYYio8L8yesUhm1sQi2aBZJNsGmEUyY4wxxuwdiyGmwvPC7BmLZGZNLJINmkWybYBZJDPGGGPM3rEYYio8L8yesUhm1sQi2aBZJNsGmEUyY4wxxuwdiyGmwvPC7BmLZGZNLJINmkWybYBZJDPGGGPM3rEYYio8L8yesUhm1sQi2aBZJNsGmEUyc2xe+erXH37geS8+/NQrXlPGG/Pn/vxDDnfdddfh+T/5qjLenDZeA8wWsRhyfJ72L551sZZ/xmc9row/BTwvzJ65KZHs677+my/Wgk965KeW8S3+8T97xuFpz7i7jDOnj0WyQRsRybiJ4qJr8SEf+uAyn5kGWyqScfPz+V/8hMubXeCQxIEpp2WMiM83xH//G59ymfeTPvnTLm6sYnyLv/yxD7/M9y3f/vQHxFNO1bZnft/zyrSUQf1KSz7yz22PuRONKz6t4s0+GVkTFI+QkuPWgHbQVq1VoHVgK208JbwGmC1yVTGEs4LWiCr+HNnDtb5kXrTOtcBZk7hzmCdzxl9popAaz/EVuTzyEl6d+SPkI10el6/4middll2dSYTq6X2Bp7NO7gN1E17da6zJVUUyRCyErz/9QR980U9eH/uZn30RHtN98d/7yov4v/rwR9wR3oMy5L8q/hj8mx/60TvajphXpcv8wyc/9bJt5KvSmGkskg3aiEjGDQoTlA2JBSgTF10zBrZEJNM3h3lcFMYmEdMrPN9sxjzQ27hErBvYfGM8m5cOL2pb3MhyHbqhr9Ly3kLZA+GQgn+y73O8r83TQtdNFTfFsdaEY6LDbq8Orm+lA9aD3HbggF3lNzVeA8wWWSqSca7Ia0KVbo/oi2r6X8Wfq0imeZD3F/ylvXTOmfbU4dpo+QLYY+WPGK88nLO150bynksY6VvnTqF0uS0KF7Q7xud0rXNDFNuA9CKG90S2m+YqIhlimPr04X/2Iy8EsI/+ix9zGRYFpyUiGU+Qkec6RagoxAH9qNJlSBfzVWnMNBbJBm2JSMYCVMWb5WCjIlm8Gc7f6LAZcjNMXLUZtjYtCVO8xvgKpVU9ecPUDS+vUeBiQyQst5mb4nyQiX2c2pDPER2K7Zt9oTlfxfU45ppwTLS+9OpQGg7xVTqJPeD5bsxps0QMYX3TTb72PqjS7hHWRfrbOoPLJ6d8Rj+WSMZ+F8+oMf2e0R5fzYHW/Kj810N79dQ+rHS5XIXri/HW+LTyg/rJepDvGwRPkZGuJcKtwVKRTAIZAlZ+auxf3v2cS7FMYUtEspsgimRqM0+JVWmFniKLImGVzkxjkWzQLJJtA2xEJIvfCOWb4QibR/wWRQtMa9Ni09PG1fv2JX6jqY03b5iEwdyNt4XENs+7B9LyvTltdO1UcS2OvSYck95hFyTu0f7euiOhjHRReDfGnBZLxBDWEYQPrRFau3K6vTJ1Btd54JTPSscSyXpi0Z6JT5NlcUjng7wPK/3cM4D286lzp9LlchWufR+qfb+VP54DeueFLbJEJIvCUu/3wj73877o8v0piGRzfzeNeNLFvFU6M41FskGzSLYNsBGRTJsEglYV30ILTGvTYtPTI8ytb3dABxA2uZZQQxjM3XhbLD344SN9kwj4qvWtkvzJq5640YGCfITnPIJNGiFP6Xlt1SO/kQffKQ/hSsO3X1Pl6VqsiH7SISSWHxnxUWw79Uu8BN6PHlYYVwmyQDtob0wjH8QwEccshqtdtEdjE+uo5mMsa3T8NV6qg3x8rurBr6Qhnnp03ZGHtupzxdR1pD7Q3iq+RSyfvmg+aN61xCjqi+2lXsY0pte1WxHXC9U5508pNWfimOA7wvArn+Pcoh+UW/Ujzw+NXavPmTlzGCgPX8a0rTmia5b+0T7l4ZV45a+uUVB/VHZvDaBduQ+M6VX7AHEuAfnmjK85D5aIIXmuaW7FsDkwF7nWec9c15wmLK5LeT1srSNAOPHx+iAv5VV5uJZIwzVOv+I6xHvCY3rFVSgNdfGZa1jXK+0mjLbQn1jmFjmGSKa9kD63xgvwV1yjeF+tfXnfjmsmr3HORPI8U12EMTaxbRq7ap0G7XGUUcVHNLdiWdoHmBsxLRAOrbU8o32/1W+hdLncGK62Vu1q5decrsZq6ywRySQS8SRVFV8RRTJ+B4y8+i0wnuCqnt7iiTTi859ASsz6yq954kWaOWW1iEIX7dJ7yq3S5zYpfU5HWYiE8c9PeV/95pnKxK/kw1f6c05e+Zzz7AWLZINmkWwbYCMimTaP0ZsO8kBr02LT04FAm3uGjZ04xWtzzxumypw6qEyhwyOvVXyGuuLBh3aANlZe8wFUfaAOpSNPLKfytQ4e5CGectTeqh75RAcDDlHUQTjxlEE4VO2WHymXuHhQU/rYTvWLcIXBEh8RT5zaTpqcp3XjnpGPyE8bgfd5jEkDMUyob7zG8FY75SvINwsqa3T8VQdoHGM9+RCnNZS0Kps81Ekcdaj9ihN5PDLKV7Wzh+pSezSXYnjOo7TybUzPe6Wj/3yWT8mn9NE3ypvXpQr5nFeFVX5VXSqbz7Ec/Ek4bcNnzAHKpP9Tvoa5c5iy1H/KVz0Ky3Mkz0VQP4jX+ygSCq5r4kBrhcojX04rX6kOfYY4FqN90E0qviQt0B8+x3TmfFkihmQ0V6u4HsrHHNY8jXOf9QAUp2sO8vUN8frQtRTzULauR6F4tUH5YjlxPyUuX69CaXSt02aVQzyfeQ9bF8quKpJpL6D/rXU8rn34B78x3vITYxLTt/YXvYdq31VcnGfUp3DyKy1tJYx2xzKE5mNVT0ZneNAcUt/iui6UtoqrUB/wWxUvlC6XG8MZC83VXjqFMX8Ja/lp6ywRyegvjIhREskQfSRoIZhJDKrKaz2ppbLiPwyYKqtFrkN/QokAl9OC6lZ8zCsQvdQu2kTboliWRS+1gTRKF99DfCpvT1gkG7QlIhmLE4uXYKFsbUZmHtiISKYLOW8qU7TyaTPSpqfP+eYHdAOkzVoHs7xhatMH5gzx+aA4B22g1U1hhQ4THEDiIZO642El5lEflC/OZ3yguFwebYMYHvPgxxguv0I+iCk++4n3OuBkH7R8n+NzO5b4KLddbeRVh8U5BzjNi3hAbKH6qrhW32M7uaGJvjzm+MfDWr6edI3kPFpDla+1bipNFddCeZauCRDnF23TtZdvrAjPa4PGFXK/NCZV26JPclxFNaezX2N7Yz9im5kbhC25aVRf58xh9T3Xo3ZBnKN5LsY40Hys6lZcvJGv/AW6FnIdzFfi4rwd7YP8ndtujNiCSAZxzYvrNnAdKE7XPMRrA7iGlD5fSzEu5tE1lfPxqjx5P9U6l69lkdeO2E7qUHjMszWuIpKx/mnt6e2D8lP2b/R9zJ/3lxinNRfyeqdwmLO36pxX7UmKI2+Oq9B480p5vG/NG+KAvpMmkuctEE56/JjjIkqXxyKHazxaZ86Yv7WfnQqjItnSPzGUuASIP/FJLQlThMc8UyLZSFktch36jLiV04LEL5744nPMKyiD+nmN4QhrpKWMGB7bQFzMp6fmQHXuCYtkg7ZEJGsx5wbZ1GBbEsm08VcbkTZrHcC0aVUbJhu60gMHA9Llw0QLlU2+uXl6hyTKqOJVD22t6tHBqTpQx7BI9hPIz6MHVbUvX2MK5zWG5/g8jkt8pLZX36T35kuGMkk7xwekgyqu1fdeO+mbyoyHTZU1Mv4SWVq+VztivPoO1UFYKE0V10J5qjHtoXzVPNZBu9XHjPqc+6bwqm3RJzmuQmMV51oso7qJ4LohLs6JVlvnoPqm5jBtyfVG5F+uH4Wpf1yD+WYc4hzO8ZqTVXnRX70yMkv6oLKra8kY2IJIVq152rd74kBcM3R9cL1W8721vqms6rpq7acqK4cLXevVPsZ1ThzE8K1xFZFM55Zq7CKkgypOvo9lTO0vmjOki+HKM3dv1fjl9muOUU8M76Hxpp+aa7l9grgWVZ0qL7a9olVvDmeuauziPlLlr/wmVEaEsKk97ia5aZEM8SmLPfpzw1xmq64lZbWo6tATaVGsAglWCHEKy3mnUPrY7tiG6jfeWu3ZAxbJBm1EJIO8QfBZi9bFhAsLnJkPtiWRLG5acYMhH2GkV5g29t6GybzQQQJ4Xx02IsSrDXNvZNW+3mFCN5KxvepD7FdE8fHwIp8RRnxG/Y2+zn6eS+V3oJxeeYqP+Zb6qNf2Vvsq4txCvKhuLARpoIpr9X3Kx4qPa5XKarVf8XH8+QytAxgH41ym/AQxbWZOmozyxPk2h16+lo9btNLL51Udc30iVMeIXxUf57zKIaxqV4+5czi2lfcZ+YX3VZ5YVkTXZ7z5og2EQWxPVZ78MUeojvl5n6n6oDBet3SDYrbDFkSy6rrX3K3iqht03hMW94aM1opYZnXdCF2fpJkTLtSWVjxxUMVthauIZNpzoRo/kA9Z9/FXRmMcfag8EMsSGstcp/JUbaEu4nhVWBS24hquL3li2jmoL9CaE6A0LZ9l1N+p9rT8UoVLnGRc1PcqXXU2jXHkEaTL+dfmpkWy1g/3V2W26lpSVouqDpUfxTCgPsKjWJXzTlGVMeXTKs9esEg2aKMiWQstxqNPyJhbYFsSyUBjGp9e0gZVCQxzNnDy6cDYE2nYJPX0Tqx/ikqYyFTtVVgrXxUfN+EeUQys/FxBHvpCOqgObqB2tcpTfMy31Ee9tjOfpsqMkF7zAOhfNZcVn8OhaiP02tmKV1mt9ud4xofPkNOKyicK6+WDOWkyylP5sUcvn/rd8iV5iBMt3yu8qmOuTwRlk3bEr614rWfAesS1EW9OelDm1BxWW6eg3pwn9i+jG4q43yqMdsS0VXlz1gCxpA/c7Gn9BuqJe4YxpyiS6VrgVWG9m3ZRlamwKh/piMvXZytcqH2teOKgitsKVxHJ8I98kIUmIR9OwbhWeWJZohpfUJ4cDmpnHn+tm3G9ZG8ibPQLB4luMOfJ9aqdFb25G2n5pRWufqrcKp38RpzCWpCuqmdNLJI9sI74NJqe+OIJLz7nP8PMeSPk5bfRaK+ongqb8qlFstO1zYpkLEKadFW86YONiGR5M5mLxqi1acXyJARw2OCzNtwsbmnTmtuWKDBUm1cUyPIN3xRzNtCqvVP5qnj5bGQDrvwcwTca24rcvqovVXzMV4VlqnJ7bdf13yszwzhTVuxvvpFWeAwTVRuh185WvMpqtT/Hz1nvKp/MyQdz0mSOvSaA+p3LZJyiQJTJ6eXzqg7mgfIx/3N8RoJxFM+n/NqLJy6KZaw9c4WyqTnc8l8P5WnNRaBe+V83TupDvhmqyptTh1jSB4Evolg2up6b/bIXkUzpe9dHVWYvn9arfH22woXa14onDqq4rXBVkYzP8m3lhykfVigPVPGqT/UL5cnhUM0lYM0kXCKdzsusozHdXHptEHPSRNTf3pwH7Yu53Ja/+Ey4BM4qnfyj+5IepKvqWZNRkSwKSCOizSmJZKD/4Kkf6NdvneX/TlnlBX5oX3EV0XetNgiLZKdrmxfJ5ixc5oFgIyKZbhRHN04tDHnTaG162uTYmFqbeiu8h26cqs1LbRm5WRWahz2/6GZy5OkNPe4eb8zVznhTPEXLzxBvfImP3xqqX7l9U76v+rXUR722t9o3Fz3ZArHfCqvmQavvvXaC5l4UEyo/Rarx5zO05qj6pMMuyE8Q02bmpMkce02AysfqA3OVuR/7XwbEaLYAAHnySURBVKUHjUlVB2idifOtIl4jcfym/Epa4nq+Yd5pbiwRc6o5LH+MlKc8U9eSxpt68Qvvq/23Kk/+mjNXlvQhQ30at5H10uyXvYhkCot7Q0ZzP34JoHpiWULXZ14DWuFCbWnFEwdV3FY4hkgW94nsX/mQPSeG91AeqOJbc0Z5cjhorHL7tJYD73X2mNobW6isqg1iTpqI2t6b87kfMa7lrxhHHVW6WO7UXqJ0c/t1E4yKZKCnoUb+4+KpiWT6/TH6yhNh/KA+5N9Aq/Kqffx4f/4vm5XgZZHMItlsO5ZIpgN7vCE088FGRDIWfV3kvceo2UTiBqE8edOIG1MM140f8bqRjSIGtDb7FnGTy0+OaB5x85Y31jnQNpWd2wmUWR1Y1Qf6WNUbxUKF6fCCb2LaHi0/g8a0Kq8Vp3a3bmAVH/Mt9dHSts9F5ce5KdGimuMS8nJ7VE61FrX6Lj+NjH8VFlE74uFWfoKYNqM01fi0iGUfY00A+SX6uAqbipMvWr5SPuZd77pXOnwfw2Pf85oCWlemhB6Vs3Qe5zkscW6qXxH1caoNUfjDr7yv+leVN7UGRJb0oULt4LWKN+fFXkQyXXt5TRJaU7h+Yrjqqa6H1jqk8FZdal9r7SAOqritcAyRDOSrHM4aVoX3iGVV8a0506unmktCZxvmls4ZI2eBSK8NYk6ayJw9QfcO1RcxvWuMMJWt819Op7M3aar9XpCmVc9aLBHJJAIhGsX/LJlBRJOodGoiGdA/wvUUWf6NMqjy9kQti2R3YpFs0EZEMh3Gc7gWQ9jSYnRKYCMiGejGj40if8vExqWNJI5Za5xaB7Z4oIBKeKg2e+qkzHyzTnlqdz7oKZx51tp456ADBuXEgwVlqp+8xjzqQ5VPcflAEG80s/8BH+Rv2lp+Bh0OqD+GUydhxOV2K8/ooXmJj+a0PeepID/1Z1/iX8qI7dGcoFylj22s2hPjyB/zqd+5nfITzB1/rXuE5+spHuJiHvkJYvqM+lCttz2OuSaA+h59rLA8tzmsagxjelAe2hfDBW1TXvyfD76x7ZDbGv2axyPGxXDS5fVJdbTaKejP3Dmsm5w4FwXtoZwYJl/lOVoRfcZr7J9olac5VvUDP8QxGOkDn/MYkmfpnDb7ZC8iGeg6zNcH14CunZxH9eRwoG7i8jULhENcY0TrWhfKW8VthWOJZCB/MD5xXBgnwvNeD3wmPq5fGg+IaUVrzijPyFwCiVCaO63xnEOvDWJOmozaVvmQ9uuayHsstPwlND4ip2MstedRT7WnMH6t/GuyRCRD+OIpKfrCk1ZZvEE4k7AjEe0URbL8J5PVf56s8qrv+SkyPZ0G0We9NoBFstO1VUUyTSoWJRY50EIIPvwuBxsVydgodNOfx0Vh+QZM4XnTUJ5qw44bVrXhVZs95StP1S7CWocQNj+lz1T1Z/BLnJfKG8uPByZQH9j4lZc8OghANb8JU/wc/yuu8jNtioci0nCzSrk6EBCe86i95FX9ile/evkUD/pc+UjxVds1frmeiiiq53qZazFtPOiof2q35mVuj8qLh6iYj9c490B+Gh3/2HbN2149cZ7H8IzaA2pHvmYrGLNjrQmgdkQfxzFhDIjTWMjnMT3k6xtyGsqN/tZ4x7bTn2occvl61XvIc0vjpHpUdzVumdE5rLpieoXxGtPL56SJ4RXyO9D+Kk2rvNguXomP/orzYaQPpFU6yovp+JzXFXOeLBFDmMuae6B5FsOmrl1QvmrNU7lz10OI6091LeU1AVRPLgtUHmlynPKpnnjtta51QRxUcVvhmCIZaByiT1iD4vhonYr7T5xHcXwVFtGY5PqVp2pXay4JrZlwlXurXhuE0sgPmWr+5j2h8mH+Ik2QjvhWmxDdVEYrHWOocoTaG9tAG7e05ywRyQDBSEIZIJYh5sQw/Z4XnKJIFn9/jX7leKjy0m/CeBINoY32SuiSfyyS3cIi2aCNiGT6hiVuLixGhPUWYDMNNiqSCTZQbnzjhsXnSlBSmnyQ1I119UQUY6uxznGgG8acl3zMjbhhMXfYOPOmFW+selTtq6B86sl1cyCpNsx4uKQtUWggX29+E5f9Tzm0NdeFP4hvHXp0jaks2q8285l6ch7aq2uSfPHQRT2EU2bMA6M+UturMdD40e8cV0G71GbV2xpb/BvT4gPq07zM+WgD4fSDayDnzd96wlXGn/pjHfgTX1X16PBHmhyXkUCqNlTlwet+5+2HX3/D7c+/+aZ3Hr7zu7//ck4+9KEPPTzoQQ+6+Iw/iI/pP+ETPvEinn4rv+LpG/n/wTd922V64n/w+T996SPi/8rDHnExpviJz9/6T59xR3rKI55+E/+Qj/6Ll+tTrI959913/8Dhrz/qsZf+VPn4Ax/k9qs9Sv/q1/3e4Qu/9Csufffox3x62R7KYpzUf9Lz+Wde+eo7yn/d77zj8n1kZA6rrnytqU8xbe+azegagHjdR3rlqV3yFWjtaqWd0wfaFa8h8pCuWlfMebJEDIlzqkVvrRaaw1rzIqqjitM+UV0fpK+uJa6/nBZI2ytL+XMc11D0A+8VR1k5LKK2VXFbYcm8UL+qMWNtUnw8E+NHxjOu4cwLxiXPIcognnJiuNB45Hy9eaaxaq3bmh9wlXWz5xsRfVBBP6p8lQ+pD3/0rsOWvyLat6DXdsrI+5LaQBlb23OWimTAE2UIQhJxAGGIP0vMT11JOOIH8WO40J82xjCJVAhwMVxPZI2U1UL/tZI8Vbz6ln+wX5Cvykv6KBjSVkQuCXzRP+pnqw36JwIWyU7PNvubZOZqYEtFMnN1dPitDqXmtGAMGcvW4bPilMf/9b/2hsPb3n7PhbDDAezdr/5PZ/f5Db/9uxdC1yMf+cijlBc/v+2//W7pd2PMcpaIIWb/eF7cQiIaAlAVb04TzhRLRTJjropFskGzSLYNMItk62GRbD+cm0j2mz/984d7Pufxh3e+897DPS95+eHeh3/82X3+n4/+9MNP//t/f/jF7/zOo5QXP7/1C7609LsxZjkWQ0yF58Ut9GRU72krc3pYJDNrYpFs0CySbQPMItl6WCTbD+cmksHvPPPZh3sf9ZjDuz7l0YfXvvZNZ/f5FU/65sN//DN/5vCzf+pPHaW8/LnyuTFmORZDTIXnxe0/NWz9maM5XSySmTWxSDZoFsm2AWaRbD10KGn9loc5HXq/9dJiD+P/28954R2Czjl95jdjHv2B8fuID/nQWemXfDbGHA+LIabC8+L2b3ZxLqnizelikcysiUWyQbNItg0wi2TGGGOM2TsWQ0yF54XZMxbJzJpYJBs0i2TbALNIZowxxpi9YzHEVHhemD1jkcysiUWyQbNItg0wi2TGGGOM2TsWQ0yF54XZMxbJzJpYJBs0i2TbALNIZowxxpi9YzHEVHhemD1jkcysiUWyQbNItg0wi2TGGGOM2TsWQ0yF54XZMxbJzJpYJBs0i2TbALNIZowxxpi9YzHEVHhemD1jkcysiUWyQbNItg0wi2TGGGOM2TsWQ0yF54XZMxbJzJpYJBs0i2TbALNIZowxxpi9YzHEVHhemD1jkcysiUWyQbNItg0wi2TGGGOM2TsWQ0yF54XZMxbJzJpYJBs0i2TbADumSPYhH/rgC6q4rfC0f/Gsw1133XX4/C9+QhlvjDHGmP1hMcRUeF6YPWORzKyJRbJBs0i2DbBjimSIT1DFbYW//41PuWjjJ33yp5XxxhhjjNkfFkNMheeF2TMWycyaWCQbNItk2wCzSGbm8PyffJX9Zowx5mSxGGIqPC/MnrFIZtbEItmgWSTbBphFMjOHH3jei+03Y4wxJ4vFEFPheWH2jEUysyYWyQbNItk2wCySmTlYJDPGGHPKWAwxFZ4XZs9YJDNrYpFs0CySbQNsiUiG0PTn/vxDLkQTfqifz6989eu7Ihl/rvcZn/W4i/TKx4/n/9QrXnOZRkIMZce8EeWPYdRNWWoTUBflxXQwJZJ9y7c//fCXP/bhl+VQZm5nTEsaXtUGtY98hOc8lEM87SMP7Yl5nvl9z7tMG/3cKk/M8a8gnDTkwUfk4zPwnvCYXnEVMZ0xxhizVSyGmArPC7NnLJKZNbFINmgWybYBNiqSIS5JIOG9RJwoLOU8+o+SCDdf8TVPuhB/JMwQJlEG0UgiTxZqAAGJOOpSGOmUB/GHsqNYRd2xjJZIRt2xD8SDyontFCorilPkieXQ35hHQiBplI5X+RFoM+XkdFAJZXP9K1S2xDLS5L5GcS32SWlFLNcYY4zZKhZDTIXnhdkzFsnMmlgkGzSLZNsAGxHJohgThRfEKwksEPNI+MrCC6i8KLZIuMniUoyLQhF5CYtPYIHEM6ANCm+JZNRHOGJQbCd5VS9CVsyjspQv+kR9g1ieRDKgbfFpt/hEF1CG4ugzYbkNo/4F+Qzom/zDq8SwlriXyzLGGGNOAYshpsLzwuwZi2RmTSySDZpFsm2AjYhkEleqp5mi+BPDJe5UeUBPUEng0dNiWQwChKCYFlGKz4hLOS1I3IpiU0skU9lRtBISonK8yqKtEpoiEpxi36Of8hNe9Etxsc1CcbGuUf+CxrHyW0tYs0hmjDHmlLEYYio8L8yesUhm1sQi2aBZJNsG2IhIhkiSBZcqPoZJkEGwQlTKSMSJ4pMEqfy0GmEITwojP2HUkcsF1c37Ko/CJABVwpzQU15TZUUUT98VFkWymFb04ipfLfFv5Reh9uU+tcKNMcaYU8BiiKnwvDB7xiKZWROLZINmkWwbYEtEsioOqngJMlNEQUxPgMU/+es9FTZFfMpKeaLYo6exegKQ8kVhqSorUsVfRSSTLyvBa4roX+WJfREWyYwxxuwRiyGmwvPC7BmLZGZNLJINmkWybYDdlEgWhZ0pJMjEJ7v0dFn8U8NKuJqiEq6qsExV11S+Kl59g5hW9OIqX1ZhUyhP7ItQ+3KfWuHGGGPMKWAxxFR4Xpg9Y5HMrIlFskGzSLYNsJv6c8vqN7Z66M8EeQJKf2qZf0NLIlT8c8YpesJV/FPOjP7ccuqptIj+GUB8Ik51QUwrenHyZRTElvhXeSySGWOMORcshpgKzwuzZyySmTWxSDZoFsm2ATYikumH6CtBRj/4DjFcQtGouBIFpupPLUHiGU+ZVT+cX1EJW/EH8ysBMP5wf/yzRZWFoFfVL6EvtvvYItkS/6qcJSJZfLrPGGOMORUshpgKzwuzZyySmTWxSDZoFsm2ATYikkkUQjCKYlIUyCDmiQJU9R8YyRuftBKIUeRBlKG+lhAmIQohLccj7LSePssikJ4UQwiMfaNMiUo5j8qq8kVfxXYdWyRb4l+VMyKSgeqJ/TTGGGNOAYshpsLzwuwZi2RmTSySDZpFsm2AjYhkiD16mkxCikQqRCbF5XxRREM0Ip+EGuXNeUBlQ+tPKhHTKFPpVLbCeI3pWyIZfavK0Wf6lkU4lSUhT/liu+NTZHBskQxG/au4UZFM+VRH9q0xxhizVSyGmArPC7NnLJKZNbFINmgWybYBNiKSAUIRgpVEIQQhPcGkp7FyHkB8IV75JMSQN4tPQiIUZGEowpNNtCmKU4haPEGVn3qiPuIrYY52kCeXQzuqNkbBDbFO/Ve+qs168qslMBHeipNIFf/kU4z4V3++Wj15pif4yJvjKCf2sfKhMcYYs0UshpgKzwuzZyySmTWxSDZoFsm2ATYqkpnbRJGsijfGGGPMNrAYYio8L8yesUhm1sQi2aBZJNsGmEWy5VgkM8YYY04DiyGmwvPC7BmLZGZNLJINmkWybYBZJFuORTJjjDHmNLAYYio8L8yesUhm1sQi2aBZJNsGmEWy5egH8/3bXMYYY8y2sRhiKjwvzJ6xSGbWxCLZoFkk2waYRTJjjDHG7B2LIabC88LsGYtkZk0skg2aRbJtgFkkM8YYY8zesRhiKjwvzJ6xSGbWxCLZoFkk2waYRTJjjDHG7B2LIabC88LsGYtkZk0skg2aRbJtgFkkM8YYY8zesRhiKjwvzJ6xSGbWxCLZoFkk2waYRTJjjDHG7B2LIabC88LsGYtkZk0skg2aRbJtgFkkM8YYY8zesRhiKjwvzJ6xSGbWxCLZoOGs//q77zArg/2PP7y3jDPGGGOM2Qv3vOf+w9vvua+MM+eL54XZM7/zP++5ECp+7KdediGUGXOTWCQbtD07y2az2Ww2m81ms9lstrUNocKYtbBINmA4623veq9ZGYxv0Ko4Y4wxxpi9cP/73n947/3vL+PM+eJ5YfbMu+69/0KoeNkrXnV4ycteacyNYpFs0HDWW972brMy2Dvvua+MM8YYY4zZC/fd//7Du9/7vjLOnC+eF2bPIJQhVPzsS195+JmX/JwxN4pFskGzSLYNMItkxhhjjNk7FkNMheeF2TMWycyaWCQbNItk2wCzSGaMMcaYvWMxxFR4Xpg9Y5HMrIlFskGzSLYNMItkxhhjjNk7FkNMheeF2TMWycyaWCQbNItk2wCzSGaMMcaYvWMxxFR4Xpg9Y5HMrIlFskGzSLYNMItkxhhjjNk7FkNMheeF2TMWycyaWCQbNItk2wCzSGaMMcaYvWMxxFR4Xpg9Y5HMrIlFskGzSLYNMItkxhhjjNk7FkNMheeF2TMWycyaWCQbNItk2wCzSGaMMcaYvWMxxFR4Xpg9Y5HMrIlFskGzSLYNMItkxhhjjNk7FkNMhefFvnnyU556uOuuuw53P+sHy/i9Y5HMrIlFskGzSLYNsL2JZC9/1S8dPudxj7/YEOFRn/aYy7gXvfilF/Ex/V45p75uid94/ZsvfP/Lr3ldGW9uw4GVa/TLnvBVD4jDj4Q/+MEPvkjzUQ/56N35lOuTuVLFmePQm2Pm/LAYcnx0jXHuquJPAc+LfcP5gTl6rucyi2RmTSySDdpSkYwbCjZi3TgBIohvNJaBLRXJ2Gy48dDmo0PS2t/UqD28MjeYK7oZVTurfHvinPq6NfSNZRRnTU3PV6wtxHH9Es/1/B1P/+4HpDtldI16/7o+fD2ayFXFENYgnT+r+HNkD9fYknnxsId/3OUaHsEPW9iraEfVvgrmdM5f3W+xD7M39/Ys+UVn7yoNEF/VG1Eb4n0GeejbE5/0DbO+CH7u8154ke+c94ClItn33P2sw6d86t84fNAHf/CFD3n9rM/+WxfhVfq98+zn/PBF/z/iIz/ycj7in2/65ic/IC3hxH/tE//BA+LEdz3jX12WEcPxr/wdw+FjPuYvXcb1xoH4Kv8aWCQbtCUimW6agEWYBU+L8TkvflcBWyKS6ZtD0IYFClvrW3uJQ2yoPIkS49hM1d4YfoqoL615v6e+nhocjvF9/lZ9aszOkd7NFeEw5xB8qnB97r2PS5BfqrhRLJKZyFKRjC8F4xnnWPPzFJjau85VJNM80P0IRDGH8CrfTYGIpHaJqs0QzyucnfmstPQp5wfKj/WJmIa8VRpQmiqONsT64n2G7vsUXuWP6N5x7S/w12SJSPZPnvrPL/2MKPSIR/y1O8QhBKMq315BCFPfEZ/wBygM8SymV9yXf+VX3xEekUhG2iocYjgoHBiPHC9a+dfAItmgjYpk2oRZHPM3GCym/tOmZWCjIlkUyPK3ZfoTKeJ63zRdFxLJ2Eir+L1wLv3cEx6zBzJHJMvhZv8cc+wtkpnIEjGEM4+EW82nY83PU2Bq7zp3kSyfdeUv2Jow02pzhHEkDXO+SqcvAoGxz/GKk2DY8oHS5XDuIySEVfd8SkO5U1/Ik45y6AvvqzTnwBKRDCEI32WRBwGHp5nO6WmyKJDlJ8Oe/6MvuhDIiMM3Cr9ukUyCZfUUW0xXxd00FskGbUQkY2FjgQOLYccFGxHJNBZceL3Hydm81ng6QoeTvd8QnUs/94TH7IFYJDMVxxx7i2QmskQMYe5ws64zzbmtTVN7l0WyB4o4+rI4P1G+Nr02A2d34jnn987wEsoq8Ul1qKzqLztiuhyup9i45q4qbKkNa/11y1YYFcl6Is25gQgmwbD3p5OIVVE4vG6RTMIdYhltbKXL4WtgkWzQRkQyL3LXBzYikmlj7D1C3YINlzGUyAYcqhjfKj11kJb3pNE3S4RRTtw8dYirkJiHwMrnqu20jY05ti0SD3/awKtDBuUQlw9GmsO0hTT6hi22Rf5RnMrJ9SiuQml6fQV+o0H9APpd1QWx7ZQbx5Axoaycp8UcPwBjO8cXoDnJq/KpfeQnPOcRI34AzZOcPs5F9ZF2KEzpK5RG0F7NdaAPlFV9QTDlT5XR+nJBfZkzhtwIxfGgjdSf042MXXVzpTwZyoh5e9Cf7MPWn4bQhpi21S9dUxpv2sxn5gC+V1/iuEdIQ3zsq3xUjQ/+0vgAaVvzYG4fWlzlGqJfMT3MXdcZE+UhvXxaEecPbSTvnD5Xc8ycL0vEkLx2ac7FsDnEuc9c1fVPGPNU6eL6RRxzPe4xEV0LKgvIS3lVHq5V0nDd5jWG94TH9IqrUJp4jeX1g7aMnBHW4tgiWW/d0blDPuI1r+3KT3jMK7Sf4N8qvgV5oGozaN619suI5lzeH1RHTBPnd5VOqF/QOreMoP60+nsu3JRIhkhU/YZZ/NNMld37U0Hlj2F6Yiv+ySd1UV5MBxKQELX0O2Iqk6fg+FPSnKcFZZCv196K6xbJeC9fVHW08q+BRbJBGxHJtImfwkZ7amAjIpluYuZsoBEOhLpg2TQpR5sXVAeBGBfzKTweDthYY5kcOvgMmjdsksqrfMqrwwp1sZnHengf+6u4atNVHaSJ4Trw6GCk9hFGPG3kPdAH4uKhN9ZFXNVPUJpWX0H+hKqufKOZ2877nGfutTnlB6jGg1eFzW2ffATVfB31gw5v1EF5ahd5iFM6tYfyFBbboz4LpeHmIrZZ8eoTr7EemPIn4byvRA7qIw6qm6mIyqFs6gTeEx7TLR07ylIY79UHxQFpY94WEnwYF7WVdvI5pov+VvmMq+YA7Y7pdU2RJ+ajb8Qpns8xn6Bs4uNc5DPE6xviekldqofPvFe60T60IB/pNY9UnsqG2G4R20mdOU9Vf4zjlfQaK+qgDKXhvdDc58ZJbazqpJxYn/pGuhhuzpMlYkhGc62K66F8mvvM33yNgeKYs4rLay3E9ZZXXSvKQ9l5bVe82qB8sZwoThCnNsY6QGl0jdFmlUM8n3kPWz+/H1skk8/y3qvxBfkx+l7jxdgqLOYXKofXKr6F6q7aPCc+ojmU13mVwfu4L+a5GNMJ9aua76MwjymLeVjFnxOjIll8eir/1lYLCVPk+8Iv+pIL4UY/Xk+YnrKKZVd/sqnfQkPMUhjpYnsoOwpf+U8OiSc8CnYIUVFgmyuUSeyiT1V8i5sQyZSOPuanyVr518Ai2aCNiGRsIgw0B3IW47jxshHlGy8zH2xEJJPf52ygIt7U5AMD5Sguj6PqyvniwTAfvLQhxwNcjoMYzmac6wDNu9zXVji06tchEqqDK/G0I39zprblA0OvnzEeYrjEOPyX2y9xAWI7cttjnA5JhCusx5QfQP7NY6txh5gvl6mbaYg38bHdS/ygsZg67Ks9eWymxkyHw+xj+io/58PelD/V/2p8FJfnVkaH9aqMzNKxq3xCOOTwKaiDfNXciqjufJNBPvpKXJwb8ZqijjjPhPamao4oLuZTebEexl7heU3kM+3W59E+tMjzaM41xHv5eum6nuNymiqOsmlj7peuW+qN4b05Zs6PLYhkEK+ZuOdAFB20/kK8/kDXOOnjeke6GBfzaI3O+eKakdcTrjXCW9dQXj9iO7V3ER7zbI1jiWT0XWcF1qI4LoAP8VcM5732hzgvRveTOZAH8voJGmfIcRWttTWXoTmX52JOB0pL2TF8CWrfMco6dZb8JpmeoALEpSxERSR8Qf5Bf4lnUQhC4CKsEp4UF/+0UYJTFrYknmWRSCIZILbFNqn8KML1UDkIUlV8i5sQyUD10K9eujWxSDZoIyKZBlqw2bKQapOAvKmbeWDXLZLpAJg3UjG10cZDg9DBK29+vcNc6wCgm7kYBro5zHVoE+8dMnL96iN15YNuD5WXD5i9fsZ4iOE6vLUODepbjFfbud7ygY++VPW0mPKDbghawo3GPd5c99oHOvjHebTEDwq7LpFM85B0OY5+VfFT/oz5crx80BIqhNo9dZNzlbGrfEI45PAplK+aCxH8AlWcrv14qI/XVGsOSOjMNwPyDXM0hqu8OKatMipG+9BC4zByDV11Xe/t2UpTxfVQvtiH3hwz58cWRLLqTKPzbHW9MneJi+uO1hSu/+qajetVDFdZ1TqtNSNfKyqrdQ311o/RM8JaXEUkq8BX1Z7cQj6M66LC5u4nc1D74p4jWnOmxdQar8+x3OiTnA50HeT2qc+Z3rlEZY2Mw15ZIpIBAhcClPzdEsskqEVhK6InuCRW6WkxwnNa1ae0CGF85qmwnBYkesV2SSSj/PyEFeUSBzG8hdIuFcloA+8rEOpIw/uYd0Qki2mjGJjTrYlFskFbIpKxqefFTps6eCEcB7tukUyHsnhzHImbXwzv1aXNmdcYrs24OszFjTqGV2Ggm8Bch/pTtatVf+swMQfyQQzr9TPG53wKa10r1Y3vVNtVZhWXmSorxvM+QzjxvK/yxLJyfDxo8hmW+IGDVzX2otWe3pgprnforYS9qb4D/c75uJEhrHWDFSGedKTnAN9KH9vC+wzhuR28V55YFhAOOXwK1cNra3yjv2MbhXwW29W6piLxxjWGS/jKwpDKi/NJ7Z8SY5f0oQXpe2kVH68htfOY67qo8s1BbYplT/XNnBdbEMmquV/NXVGt4dU1mdG6HctUPbEsQTri8rXSChdT1xhxUMVthauIZAg19F2iDH6fWr8zlY/Zv1Re3He1n1RjOAX5oJpnagPkuIrWuFdlaA5HcbZKV81ZwBfUI/TFTc4v1JepL/fOhaUiGSAyITpFsQxRJ4pPfCYcwYq0GYlkUWhSefFPLqs/tSS/6szlgurmfZVHYRHioIrLKO1SkWwOuZ0jIhlIKIxCYiv/GlgkG7QlIlm1qIM2ptFNydyMSNba9CIqtwqr8mlzzocEbYx5045xEMMlPuSbPcrohVftatU/dYgUHASoj/SCfBDT9foZ42O+1k1rpCp3qu1TZUamyor97RG/iZ9bpuKX+gE0V4B1h3Zk0ajVnt6YVaJcRuXymsN6+VgXSUN7FcYcI6x3gxWh7bqOlY+wmEZtmWLu2Cl9Dqdu0mcUzzUUD9DE5WtYYzFFPNDHPLGsTLUfKSyLdiov+nLOeglL+tBiah5V8dexrosqX4brDh/TNiE/x7Kn+mbOi1MUyTSHeVWY9qIYlqnKVFiVj3TE5WulFS6mrjHioIrbClcRyaJ/tbdCXu8jnEPYC/EdSETKPtReFvew1n4yB7WtmmcaZ8hxFa1xr8qgrQpX3VU6yiKsmp+RqbbKn3nvP1euIpIJiWXye/zzvrmCUBTEJOzEP7nsPRU2RXyKbUsiWRTvMhLDriqSxafj1M4q3VpYJBu0EZFMm0S1qMPcRdU8EGxEJNPmPOJrXait8QOlqcKqfNqcczu0cVaHtdamGg81bKyUqTlVfQuluKpdrfrV3qpdwA2fym0R0/f6GeNjvlb/I1W5U22fKjMyVZbiea3iK+aWqfilfohxUSxjjkShrNWeXplTfQCl4TWH9fKBrlsO5nxW+0e+WKCP1KeyIB5Aq/ZN0Wu/6sjhsf5ITkfboljGta243li0mDNvQH1SfRJlq7VE5VF2L6xiSR9a9MahFT+nnUpThY3mi+hJihax7Km+mfNiLyKZ0sewTFVmLx/piMvXSitcTF1jxEEVtxWOJZKBBJq45wj2g9YeBtmHOp/qy47efjIH1VPNM/Z4xeus0EP9bD0hHcMgz5Mqncqc+nJHczLnB/qhL3Hi2eycOYZIJuJvlSlMgtCIkCQhKP7JpZ4uq35frCc2ZY4pkukpuJH64SZFMsh9bqVbA4tkgzYikrGgMtDxCYQq3t8YjIONiGTawEY2aI1P64Zcmz6bWgwnDKrNXJttPuj1DnOtTZUDC3XTN22shFF2tcH2+tOqf+oQqTI5GOTDCeEQw3r9jPE5n8JaBwc90RQPKFNtV5lVXGaqLMVXh8sWU2VWf+rGZxjxQyY+sRTb22rPnLnZu65oC2nmPokViT6gz7zP19sI8g/o2+xjj53Kz+Gj4Ftd19oj5G+u85y+Reuayugbc/lXvq/2L5VH2QrDF4RNCZhL+tBiyTU01c4l67pQmipObeVayXWrTbHsudeIOQ/2IpIpLF6TGa178UyhemJZQmtKvlZa4WLqGiMOqritcEyRLD41pf0R2Hs1JvgsxrV8rP0aeN/bT+agsqp5BhLwpsqPfcnrsOqIYRDzqL85HWUpPPon08oPEhZHziJ755giGQKWfK8wCULV75X1kADFE2b6U8v822MSf+KTa1McUyTT021zf+hf3LRIxrhIZOzlXwOLZIM2IpJpA65uWOMG0ltQTQ02IpLFjal3E8cmpU2YjYr0rQ2rNb6qp9rMlYfXGK72VYe1alNV2MhmWt0wCokHuX61d8khsopTu1s3yFVfQQeglqBM+4iPB6SrtD0zVZYOSBykuLarNBmVSd+qPFWfl/ihoppvrT72xqx1qBbxcBlveKb8KSRYUPexDpDyEf3i81XGrmo/4ZDDl6B6eOVz3DfU/ila11SFxFN8orlWjavKi22YWi/Fkj60kH9o69xraKqdKnNkXRdKU/ksz7upuN4cM+fHXkQyrePVfgKUQzzrcQxXPbEsoTz5WlF4q66pa4w4qOK2wjFFMtAeEP3c8u9UnL4gY8x7+8kcyAtVm0FjObWPK101J1RHDoc4V1rp5DteW22Qv6r8Krt3j3JuHFMkk5iFIKMw/mSSsJYo1UL5eK3+1BJiffEJsx7HFMmi4ERbqjRAu0mrzzctkkHsdy/dTWORbNBGRLJ4AxkP6Sye2jxam7Ppg42IZKCbIzbRLCIwJhKRNFa6QYecXjfWkDftVjhoo40HEOgdNKpNlfbSDzb6uYcOHU7JF/Oo31X98WAQw4Xy5QOBfA0xHBRetbt1gJCIR9uzX9X+fDia2/YqLjNVFugQSN+zP2hzvulWmcChKvpDcblPS/zA53zoUtooFPT6SDhUY6a1LPeBNlBWVeYcfwodPOXf3O8W1EHboi9oH/6gnNjWpWPX81UO70Ed9DMKidF/cf/QtZX9DXwmPpZD2XPbpPkln7fGR+XFsYj1xHBg/jHn9Hm0Dy00DlVZisvXw3Ws66IarxyXr0Wty7nskWvE7J+9iGSgNTivt1ybWotzHtWTw4G6iauuFcIhrzMwdY0pbxW3FY4tkmk9YhwUJv+yxsa0jF1vr9B6qjFt+XkO5IeqzUBbNK9oU94/iI9n3aocxeVwoX600lFnbENVh/bYnJ/5SVj0uxkXyRCsIP6GGPDbV/qPjPHJrvibWNV/uERAir89JvSfK3miDBGsJYTpiTPqzPEISq2nz44hkoEEPNqX+0d7JPZFgW8NkQzkq6l0N4lFskEbEckgLsosmmwSWkRZDKuN20yDjYpkbJK6oQfGgfEAhfWEDMaLtHGjrG6GFFdtkCovH/R0CKkOEYqDGB5v6CLMM/qR66f/arv6rs+6ac31Tx0i5U/KIS3wnvJVds5DWYSrDbwqrtVXUD7I1xKv+VA01XaVVcVlpsqCeEBS2tzGmF5lyl/KI79B72Yb5vhBcZQby89pe31UneRRfYqLh1PlV3qgjaSJ5c3xp4iHStpepamI+XKbmO8x7dKxq9qvMnJ4D+pXvjym2X+8Jyynj/MmjmvvmsrooC6q+QeKz2uM1hHI/Yi+Gu1Di6XXkPIp75w8ist9jsRyVabSaz7STs4FpCUNYfJFLLs3x8z5sUQM0RwTzCfNKTHnOlO+au6r3CpOc5jXGE5alcn1QBlxPcjrM6ieXBaoPNLkOOVTPbwqbuoaIw6quK1wbJEs7ucS9AnT+oiv8BtrGOk0bi0fqixo7SdzUBlVmwVzOa7jWttBYbRnal+r4oB8StNKl9tAfWpD9EX2l/aH+GWSGRfJJDIBogsijsQx4H0WqxCIFI+YRB4JRZCFLBFFnSi8RRDTKFPpVLbCeI3pjy2S0Vfar3xz+qe4mxbJ4jj00t0kFskGbVQkAxbWeABgAWWTiTc+ZgxsVCQTjAfiTtyw+Jy/4ReESwwC8lUilNAGWR0+tRG2Do2UG8Oh+oaJMLU/HgTyRpz7RL7YF+al0vA5169DQXVoBeYwfVGfqZu01KO2VHliG2KdVV8j+C9fS6ovp1XbK5+C/FTFZab8IGgHaeQPoL0cfHIb4wGduZLHpXcYHPGD2qT+aozy/Oz1sTdmiqePud+tdW6uP4H2q8zRAyT1RD/xHt9VaUfGTtdxNbcIr+b9FIx39DHtoO7Kf4Th22oO5Hkj/xEfw1swH0lPH6q6QT7KfoHsc7Urz7eRPrS4yjW0dF2v+hxhzHSt0YaYPvtG9akf0Ue9OWbOjyViSJzfLeZca5r7+RoG1VHFaV5Xay7pudZ1rQDXMddITguk7ZWl/DmOdSb6IV5PU9eY2lbFbYUl80L9qsYM5Ou437KOxfFiTjC++LfnQ5UFrf1kDlNtFtTBuGofE6y71V4emTPe6g9pq3jBPMYnKhO0v1X3GnP3l3NjyZ9bIrYg/GRxqnpSTOipripP9YQYREGO/FUa4Gk1RLQoqiHW8RQXcTGthKKWMKf2VXE9Kp/wufozTMKJn/JX1U49YUc9MRzmtD0++VbF3zQWyQZtiUhmjg+2VCTbAzp8tg4mHAZ68WZ94g1+FW9uo4OmD5Am4mvInAtLxBCzf7Y+LyREIg5V8ea2yIuQV8WfM8f8TTJjRrFINmgWybYBZpGs/WTNVLxZH9/gz4NvZO0nU+FryJwLFslMxdbnhZ6Qmvt08Dmip9OqpyTPHYtkZk0skg2aRbJtgJ2zSMY3T3q6hqfFuFkU+nMeXq/yeLu5XnyDPw8dslt/hmPOF19D5lywSGYqtjwv9AUXe3gVb26BfzjP+7z+QCySmTWxSDZoFsm2AXbOIhnoNyIkIghuGLl59Ia7bXSA9J/EttGfIfiQbSp8DZlzwSKZqdjyvGBdZn32F1xmKRbJzJpYJBs0i2TbADt3kcwYY4wx+8cimanwvDB7xiKZWROLZINmkWwbYBbJjDHGGLN3LIaYCs8Ls2cskpk1sUg2aBbJtgFmkcwYY4wxe8diiKnwvDB7xiKZWROLZINmkWwbYBbJjDHGGLN3LIaYCs8Ls2cskpk1sUg2aBbJtgFmkcwYY4wxe8diiKnwvDB7xiKZWROLZINmkWwbYBbJjDHGGLN3LIaYCs8Ls2cskpk1sUg2aBbJtgFmkcwYY4wxe8diiKnwvDB7xiKZWROLZINmkWwbYBbJjDHGGLN3LIaYCs8Ls2cskpk1sUg2aBbJtgFmkcwYY4wxe8diiKnwvDB7xiKZWROLZINmkWwbYMcUyR784AdfUMVthbuf9YOHu+666/BlT/iqMt4YY4wx+8NiiKnwvDB7xiKZWROLZINmkWwbYMcUyRCfoIrbCk9+ylMv2vioT3tMGW+MMcaY/WExxFQsmRd8IcxZ8uWv+qUHxD33eS88ifPwMZhzplaaz3nc4y/DHvbwj7v0UUUuj7yEf8fTv/uO8Az5SJfH5YlP+obLsvmyPMZFVE81ruKXX/O6iy/acx+om3DGv8q3FhbJzJpYJBs0i2TbALNIZubAgcF+M8YYc6pYJDMVS+aFzrsvevFL7wjnrCQBrSfG7AUEo5Yv4Dde/+ZLf8R45UFo4lyZQdSK5RBGes7wMTyjdLktChe0O8bndFVfIIptQHoRw3si201jkcysiUWyQbNItg0wi2RmDhwY7DdjjDGnikUyU3EskQxBSE8XndNPetDX1vmwdeau/NdDItRVRbKPeshHX7y2xqeVH9RPRL+WAMpTZKRriXBrYJHMrIlFskGzSLYNMItkZg4WyYwxxpwyFslMxbFEsp5YtGfi02RZHKqeIgOlr8SoColXVxXJ9LvEUD3t1crPn3kSTn+29JTYHCySmTWxSDZoFsm2AbZEJGOT0rcxbBh85hs0bTxVHjYV/tZfGyav+dsWNiXiKDvmjSh/DKNuylKbgLqqzXdKJGMjjL8zQJmtb4W0afKqNqh95Kt+O0GHCdpHHtoT88TfMoh+bpUn5vhXEE4a8uAj/QYD8D4fABRXEdMZY4wxW8Uimak4hkim8yDnR852Ob3gXBfPmLyvnkqqzorxPMjnnAeI4/zHe8pVXToTxrZRBnGEKyzCWVBtrOIjOlfGsiRIVedtwqE6p1dIvGr1W7RErhiutlbtauXX2br1BNmWsUhm1sQi2aBZJNsG2KhIpg1EG4w27bjp5zzaKNlk+Ht+NjkJM4RJlGHz1kaUhRrQj6HGDZt0ysPGR9m8tjY0HQry5kjdsQ/Eg8qJ7RQqK4pT5Inl5N9VYOMlnDRKx6v8CLSZcnI6qISyuf4VKlsHBdLkvkZxLfZJaUUs1xhjjNkqFslMxVVFMp3rqvOWiGdMzk6c0ziv6ewXxSVonRX1HvL5EhSn8x3lU5/Cya+0tJUw2h3LEJRPfFVPRqIe6PyovmXBCZS2iqtQH/BbFS+ULpcbw+O9Ri+dwnTv0fLT1rFIZtbEItmgWSTbBtiISBbFmHgQYAPRhgMxjzYjyE81qTw2JYVpY682ZcVFoUgbWnwCC2if6qUNCm+JZDoMcICI7SRvPGzEPCpL+aJP1DeI5bHxKpy2xY1YwpagDMXpW8rchlH/gnwG9E3+4VUHsOx/tTuXZYwxxpwCFslMxVVEMs5ZnL94nwWXiM6L+WwVz10xf++sGM+XOr8JhUM8K+tMTHg8L0vIymfoGBfPtj10VuZVwlLrzEgc0HfSRMif0xNO+mOIZHzWeOQzdZW/dd9wKlgkM2tikWzQLJJtA2xEJNPmUT3NFDf0GC5xp8oD2oQl8GhjzRsXaINXWjZuPiMu5bSgDTuKTa3NrnfIkRCV4+Mmmw8qoINP7Hv0Uz540C/FxTYLxcW6Rv0LGsfKby1hTe0+1UOCMcaY88Yimam4ikims2El7ERIB1Wczl2xjN5ZEXS2y2dW5anOhDoTR6FJ59jcfp2vq7N4C51h6afOmbl9grgWVZ0qL7a9olVvDo/n+njervJXfhMqI0JYPHOvjUUysyYWyQbNItk2wEZEMm0ArcVf8TFMGw6bDBtMptrotenEg4HEM4QnhZGfMOrI5YLq5n2VR2HUTVjvMKCnvKbKiii+dfCJaUUvrvLVEv9WfhFqX+5TK9wYY4w5BSySmYqriGT6ohLiOSui8xPnsXxGA4kw8XylPBDLEjrH5TqVp2oLdRHHq8KisBW/gNVfV8S0c1BfoHdeVJqWzzLq71R7Wn6pwiVOMi7qe5WuOv/HOPII0uX8a2ORzKyJRbJBs0i2DbAlIlkVB1V83DR6REFMm2x8LF1h8RsfbfhTxG/UlId2KUyHnBiWUb64SVZlRap4Nk7CIKYVvTj5Mm6+Cpsi+ld5Yl+E2pf71Ao3xhhjTgGLZKbiKiIZZyOd9bLQJOK5r0d8uj/miWWJ6jwIypPDQe3MZz/91UM8X+sL1tEnoiS6QfUnnEJpqnZW9M6tkZZfWuHqp8qt0slvxCmsBemqetbEIplZE4tkg2aRbBtgNyWSjWwYpCUPm5fC9HRZPIC0Nvwe1WY3ZwOs6prKV8WrbxDTil5c5csqbArliX0Ral/uUyvcGGOMOQUskpmKq4pkfNa5qjojLTk/KQ9U8apP9QvlyeFQnWNBT1RJpNOfWsa/3Bih1wYxJ01E/a3OrRGJXrnclr/4TLgEziqd/EOamLeCdFU9a2KRzKyJRbJBs0i2DbCb+nPL+A3VHLTRsVnrTy3jt2ygDZ+nzGJ4D+WhXQrTJtk7EOhx66mn0iJ6XD0+Eae6IKYVvbhq817iX+WpDhtqX+5TK9wYY4w5BSySmYpjiGQILPoyN5+tdH6KX/xOoTxQxVfnQVCeHA46s+b20Xbl473OrtXvms1BZVVtEHPSRNT2eJ7O5H7EuJa/Yhx1VOliuVNnbaWb26+bwCKZWROLZINmkWwbYCMiWfVIttA3LRDDtdmOiitRYKr+1BIknrUeca/QRhvbEx8PrwRAytbhJ/7Zosri4FPVL6EvtpuNU3XFtKIXV23eS/yrcvJBCdS+XJ7CRw55xhhjzFawSGYqjiGSQTzfxfAossTwHrGsKr46D0KvHp1Zq7OfvgjmvKqz6+ifWopeG8ScNJE55339dEr1hXfLX0CYytZ9Tk6nszZp4n1AhjStetbCIplZE4tkg2aRbBtgIyKZNlg2ibh5RoEMYp4oQFXfSpGXzSeH63FvNmvqa22M2swR0nI8m1Tr6bMsAumAwAYZ+0aZ2lxzHpVV5Yu+iu3SZgwKi/Tiqk1+iX9VTnVQUvtyX0H1xH4aY4wxp4BFMlNxLJEMWmc/fdmbz4rAZ+Kj+DJ1VqzOg6A8ORzUtursJxFKZ+rqDDiXXhvEnDQZta3yIe3H58TzPsZBy19C4yNyOsZSAhr1xC+/he5bqvxrYpHMrIlFskGzSLYNsBGRLG4SwKajTQuRSXE5XxTR2FzIpw1LeXMeUNnABlalYVPSxggqW2G8xvQ6JJAmhtO3qhx9pm/xwAMqi3YqL3liu/NGysapuBguenFqT958R/2ruOqgpPaRJscpn+rIvjXGGGO2ikUyU3FMkQx0Fo7nqHx+5j3x8by4pkgG8QxciUBz6bVBKI38kKnO/Pm8X/mw+tIdSEd8q03xC+dWOsZQ5Qi1N7aBNub7hTWxSGbWxCLZoFkk2wbYiEgGLPxsXtqo2Bj0BJOexsp5gA2H+LjBsbGQt7WZaEOH3marb+HiJsXmyWaZv23S49iVMEc7yJPLoR1VG9U++sHmrf4rX9VmbcT4IccB4a04bc7xICVG/KtvzKonzyhbeXMc5cQ+Vj40xhhjtohFMlOxZF7orFWdxzjnKT4+1cQZinMj50OdozhvcibL58Wps6LOYjmfzq9Vu3T+bYlkOhtCdeadS883Ivqggn5U+SofUh/+6N0ntPwViV8499pOGfmeQ22gjKv47jqwSGbWxCLZoFkk2wbYqEhmbhNFsireGGOMMdvAIpmp8Ly4hUQ0BKAq3pwmFsnMmlgkGzSLZNsAs0i2HItkxhhjzGlgMcRUeF7cQk9G9Z62MqeHRTKzJhbJBs0i2TbALJItxyKZMcYYcxpYDDEVnhe3/9Sw9WeO5nSxSGbWxCLZoFkk2waYRbLl6FDh3+Yyxhhjto3FEFPheXH7N7uu8oP9ZptYJDNrYpFs0CySbQPMIpkxxhhj9o7FEFPheWH2jEUysyYWyQbNItk2wCySGWOMMWbvWAwxFZ4XZs9YJDNrYpFs0CySbQPMIpkxxhhj9o7FEFPheWH2jEUysyYWyQbNItk2wCySGWOMMWbvWAwxFZ4XZs9YJDNrYpFs0CySbQPMIpkxxhhj9o7FEFPheWH2jEUysyYWyQYNZ93zjd88i7e96GfuuNjf+spfKtP1+P03/o87ynjnM//vMl0L0sf8UKXrscV+YO/9v76lTNvC43Eb9+MW7sdt3I/buB+3cD9u437cxv24xU324/3f8uTD/f/oyWWcx+MW59iP1rzweNzG/bjFKfbj3d/0jw4///Vff3jFE590eMXX3eJl3/bUB4gZipvLS5559x35/8P3P6dM1+NnfuLFd5RBu6p0LdyP22y1HxbJBu3CWXd9oNgZcIHnhaBK1+MPf/W/3lHGfY/85DJdC9LH/FCl67HFflxYka6Hx+M27sct3I/buB+3cT9u4X7cxv24jftxC/fjNu7HbdyPW7gft3E/bjPaj5//C3/hDl71mX/zgWJGSjMFokjMj0BSpevxsz/ygjvKoF1Vuhbux2022w+LZGNmkWwb/biwIl0Pj8dt3I9buB+3cT9u437cwv24jftxG/fjFu7HbdyP27gft3A/buN+3Ga0H7PEjJRmCotLt3E/blH2wyLZmI2IZP/z677x8Gu//bZLfu9pzyzT9fivr/zVO8r4o094ZJmuBeljfqjS9dhiPy6sSNfD43Eb9+MW7sdt3I/buB+3cD9u437cxv24hftxG/fjNu7HLdyP27gftxntRxYzXv7pn3n4kR9/yR3kNFP89Nd83R35//03f1uZrscLvv9H7iiDdlXpWrgft9lsPyySjRnOeuvjv2gWb/zeH7pjIXj9815cpuvxulf/1h1l/I9v+NYyXQvSx/xQpeuxxX5gf/QFX1KmbeHxuI37cQv34zbux23cj1u4H7dxP27jftziJvtx/9/90sN7v/hLyziPxy3OsR+teeHxuI37cYtT7Mc7/84XH37+y77s8JIv/LuH//AnvPhrv/4BYobi5vIT3/6dd+T/sWd8b5mux7977o/dUQbtqtK1cD9us9V+WCQbNJwVL26zDtjvveWeMs4YY4wxZi/80bvvP7z1Xe8t48z54nlh9szr//u7LoSKF7zopQ8QMIy5biySDZpFsm2AWSQzxhhjzN6xGGIqPC/MnrFIZtbEItmgWSTbBphFMmOMMcbsHYshpsLzwuwZi2RmTSySDZpFsm2AWSQzxhhjzN6xGGIqPC/MnrFIZtbEItmgWSTbBphFMmOMMcbsHYshpsLzwuwZi2RmTSySDZpFsm2AWSQzxhhjzN6xGGIqPC/MnrFIZtbEItmgWSTbBphFMmOMMcbsHYshpsLzwuwZi2RmTSySDZpFsm2AWSQzxhhjzN6xGGIqPC/MnrFIZtbEItmgWSTbBphFMmOMMcbsHYshpsLzwuwZi2RmTSySDZpFsm2AWSRbh596xWsOd9111+HP/fmHlPHH5u9/41Mu6qLOD/nQBx+e+X3PK9OdEp//xU+46M+3fPvTy/g1uMq4anye/5OvKuOvg6f9i2dd1PkZn/W4Mv6mkf+Yo1X8MaCvN+XnJf69CR+sBX06Vr+OWdZ1ofFnrarizc1iMeT4bG0PWYLnhdkzNyWSfd3Xf/PFWvBJj/zUMr7FP/5nzzg87Rl3l3Hm9LFINmgjIhmHYC66KW7yxnIvYNctkumGtCdk/MDzXnyRJh+yuFmsxp8w0vaEHkShv/yxD7/Mw/tWG5g7lKe6eOWm5jrnlPoMVfwx0SEWPumTP+3CF6d8oBX0hT4x1lX8GlxlXJWPMqr46wDfUSe+rOJvmpu4LjRvbsLPS/x7k2vDTXPMfp2Cj7Z2fZ07S8QQziFf8TVPuvwSA9hDt7TvrMke5viSeaHzYu+cKN9s6Yu8UwB/4bfWOVVn++oaZP+M53ng2uVM39vzVSb5emNKPFRxQm2IawZ5uEZYS276fvWqIhkiFsLXn/6gD77oC6+P/czPvgiP6b74733lRfxfffgj7gjvQRnyURV/DP7ND/3oHW1HzKvSZf7hk5962TbyVWnMNBbJBm1EJGOhYWFpoQl804vOHsCuWyTTGPUOlLopJG0VrjgRNz82nJgHtNnFfPqcv9FHaFMcGxpp48bGATmmPxaxb1X8XJj3lEG7q3hQ//d2UFO/tnSz0htXzdscLpSPMqr462BrNzjHui56aN7chJ+X+PcmfLAWx+zXKfhoa9fXqaCb5GOv7aNiSPyirjofnMMTglNnjD3M8SUimeZAbx+Rb449j/dOb05xzRHHOf+Vr379ZTjvuV/UuOh6BYVBdc8AMQ15qzSgNFUcbYj1SRiDeF9CeJX/uriKSIYYpnZ/+J/9yAsB7KP/4sdchkXBaYlIxhNk5LlOESoKcUA/qnQZ0sV8VRozjUWyQRsRyXroCZnegmbaYKciksVw0CYKUcjS4Zo5EcPZvMiTv5nSATi3j7rZ1K5LfD3WjXDLdxGNAWmr+FNlzty6aXrj2goXir/JcdJ11Js/N8mxroseN3k9LPHvTfhgLY7Zr1Pw0daur1NBfjv22j4qhnAtMnZ5rVD7YO9f0Go9as3hPcxxi2TbojWndM/HuT1fd6RVXDUmujdojYfiJIJTV04T0+Vw7jEkhPFatYE0lHvT4vpSkUwCGQJWfmrsX979nEuxTGFLRLKbIIpkajNPiVVphZ4iiyJhlc5MY5Fs0I4lkmlRbC1mpg92qiIZaDOLT0jNqU9MlX+dHKvulu8i8glpq/hTZWSsb4reuLbCheJvcpxah9G1ONZ10eMmr4cl/r0JH6zFMft1Cj7a2vV1Kshvx17bl4ghLfQF296e0M5oPWrN4T3McYtk26KaU4hiuuayz3viWURCGekQrGIc4aCyuL/IaWK6HK6n2PITbltgiUgWhaXe74V97ud90eX7UxDJ5v5uGvGki3mrdGYai2SDdgyRjIWQSVstdmYe2BKRjD9RZPPSwsFmwqZWjYPS9Q4JrUPY1M1iVfac+sRU+XPRxssrPuBbIm3m+KY6RPfqZm5ThkRAYAPOBwPFVRAfxyhC22I5jGd8TJ34qj7g6TzSEE9fVQd5dDjRIYN+k16PxwPplS77qvXtW4s41pQZ+8B71VNBHn3rp7pbYjvt5BH9OemrcW2NA8T+xjDGRPXhH/xUXV89KCf6hPlEOfEJS/xAHG2sxqP3u38j6wBoLqh8XvM8q/ynvLoeWuOUiT4E9V1tjvUK5uzcPuU5p/7EtEv8m31AGeo7eZmLLR8TTrzSq57euNAG2h3HJc8TQThp6DvjoDyEx3S5zaqfzxDTTrGkrDlzU34mLuaNqH8xjDLob/RxnseCOomnLTkOmG9xjlJmy/ekJQ2vaoPaRz7Ccx7KIV7zkvbEPHH+RT+3yhNz/CuIo07eM2fUX8LoQzUmFS0fjnBMkUz96Pkpkv0gXxOG75QO30YfHfN6x9+k4frF13H94n3eMxVXoTTUxeeRNQ7mrJ83xVoiGeEaa+B9tb/l61jXHj7TmJGPMOYj6TXWQHqlq8ao1QfykDbOL9pQpa/qnzMPKuKc4jNtVhsq/8iHXAs5LqNy8nVLGMQ01bjFdAI/Kbxau9dmiUgmkYgnqar4iiiS8Ttg5NVvgfEEV/X0Fk+kEZ//BFJi1ld+zRMv0swpq0UUumiX3lNulT63SelzOspCJIx/fsr76jfPVCZ+JR++0p9z8srnnGcvWCQbtGOIZNoA5iyKpgYbFcnkdzYRNpC4yfOaDzjazKvNRuhgrA0xh0MMB+pRnDZ/0OYaDw8tKEObOP2q0sxBdXJ4UHn0RX6BPE9bfeMgoXDyU048oMTDSayDevksiKdO3seDCp9pp8rQeMb4WF8+kKjdpFXdqkNta/lD73mln6on1zk1boJ8pM8+iPXkAwtjHttNW+NNRp4H5Fd5pCGP8kOe19W4ahwUznsR+6p4la/6YrjSTqEDq/JRjvrBe6XTWFFXjI/jUR1uR9cB+pn9GOtQusp/cczmXqfqF5BX+WmD6o3XEsQ0tA9URvQZ0B+lZXypj7ZRdhzTJf6NPlCbeO21B6KPqz5QRh4X2h7LhFhGTq/y4virbTmNylRf1ReIZfZYUtbcucmr+hrHTGgtJo/Coo+pR+OusLxeavyjfyDOacVD9H1uk8pass+QRul4jfOPNlNOTgeVADTXv0JlxXyqT3mUlj4Tp/YpLeS+LeFYIhn7gtpfzZ0KpY9+iL6mf7oes4/ini3iXORVflKeaiwUrzYoXywn7pnEqY2xDlAazUvarHKI1xhCXuNou8qkz5RBm8gz15/H5KZFsnj94yvi8YN8hi9i+uo6Jh/+U/2q61jnLq1/QJ05fe53q/6YJ8+DFiqL/Hzmlc/ZL0Ll98ZCaO7nslQG7+Vv+tFaz2KYrtvqOt0CS0Qy9XNEjJJIhugjQQvBTGJQVV7rSS2VFf9hwFRZLXId+hNKBLicFlS34mNegeildtEm2hbFsix6qQ2kUbr4HuJTeXvCItmgXVUkiweUfBNs5oONiGTaONiw8sahjScfBrS55fBILLcKhxweDwoxjnbFTZl29eYINwFKS77qW6optKED7YqHjShWxHa0+kZZbLS5zYSRNm/CLd9FNAakjeE6BHEQyHHRL612k6860GZ/KH8em5xffWwdhDLql/JoTvKq+cHhJeZR23J4zBN9wXvCW/6hDzE8+ieGQytcKB7izSk+oh7C5xwy8bfKyfOZz/FabI0V6JomXGGgPuJ/+Vy01gGNex5byoph2X9xXHLeFq3+40eVBXlM8XH2F3mUvpqrU+NxFf8CbYrtjHMhtzX6KY4LdbZ8yBjSxpie9xqvLJLkay7GAW0ijjZGf+EntRtinhZLypLv5s5NheX1IMZFH6j/edw1LhDr1fiTL6bXTVWeE+RVvYxBzJPnUvSJfAWxvN5c0hwWcT5pfcttGPUvqHyYu66pr7msq3IMkSxeT3k/7iEfQPSDfC3wo+LwkcLjuMLS613lxXy8Kk++FuKYx3CR52Vsp+YE4THP3PXzprhpkUzhI+cQ1cc1E6990RoHylxy7qI84vK8U/o891v1Q2setFBZzDmtla35F31TxWdi2TE8l6FrJfslpwOlpewYvhVGRbKlf2IocQkQf+KTWhKmCI95pkSykbJa5Dr0GXErpwWJXzzxxeeYV1AG9fMawxHWSEsZMTy2gbiYT0/NgercExbJBu2qIllrkTNjYCMimTbHaoNmQyQuH6q1eRDO+wodCngf88bNr4LNMx4OBWGUFdOy0eXNXnBzoMM60NZ4wzCF5iP5qvaof/FgPLqxK30+ZCg8+y4iX5A2hms8Wxu78sX42O7WAbfnj9aNL7T62ELty4c1UD3ZL9QLMUwoTz4UtSAtxD5G/8S00AoXio/zROiQ2RqriA6Vc/rRGytd0xDDR9cB5kkOa5H9p37PHRNQn6p5QR91refroYXmWZzvVVjFEv9GH1Q+1vjG/pGOMPqW64HevKxQu/NNnPrdukYVX83h0TYsKeuYc1PzRPuGfFzNK9BcjXuH/EhfYtreHGzN0d5cgql9Jvskzr9qv1NcrGvUv6ByRtY19TWHX5UlYgj9Z/xAPqaPo23r+YHyiKvWOV0Hca1Zer2rrGoOt/ZMlZXDRW9etta4qk9rchWRjDlBfyo0rnmuMG4Qw0R1Donj2fJZbxxUJnXma1dlzz13tdIvmQctVJbWQdA6nGnN9RYqm/GJ4bmMWG6sO6cDjTN5Yriu08xcXx+LmxbJEJ+y2KM/N8xltupaUlaLqg49kRbFKpBghRCnsJx3CqWP7Y5tqH7jrdWePWCRbNCuIpKx+Grh3MoGe6pgIyKZLnA2mQrFxzxsRAqfIm9acZPSoUNjzyZTHdQj5I/1k7e6GQDmFX2ImzJ582Zfob7n9uf41qEnpu1RpVc5rbpBPsgbuMprHT44zOey57S7549ee0cPUuoX9eW4qh6FcaAhT0Y3bFXbKlR/9GvPP61wofhYnqB9xPGa4zJq15z1UeW2+qw2VWHyWybnUVgWXCqi/zQe1Y1jD/W/da1X49ZD7ec1hzGXeuUo3Yh/e3MoxlO3wlRPz1da2+b0W3Xkdst30RcR4qC1pii+isssKUthtK+iyiO/xP2Ea4eweDOj/PgglwuVb3ivPAqrxi8jMWqqrIjiR/aZXlx146f01FVRlaewat4pD69zwq/KEjEk7ksR/DNyBlW+yg+aO1Wc1sHoC/ln9Hqv5qggHXF5frXChdrSiicOYpjyTK2fN8VVRLI5RH/Ln/Sd8IzGO/pTeUBhGfLmfKI3hqPnLqjS9+qHkTpiWVoLW+XO8U2k1c6qDI1FFJWrdK29Fd9Sj2A/qfJfNzctkrV+uL8qs1XXkrJaVHWo/CiGAfURHsWqnHeKqowpn1Z59oJFskG7ikimb0R6B0wzD2yJSNaDzSLmYWMgnI0phkdaG3hr89PGNXcOUE7cnFo3XSCxTGl7h1AxdTio4qc2dtrIXCevqNK3fBfRGJBWYfEbrpg2UpU91W7o+WOqvVNlR9Qv6stxU23vUX3LzrzghiiOB/OP9JSrdD3/tMKF4mN5Qj6t+poZEUNU7sh4KKxHXAeqG/4W0X/qR/XkRQ/Ni1b/p+IJp62iNc/UL2Au0M4sqpOH+BH/Rh/E8F78HB/3+s16QPvV5+pGDVq+EMRBFQdT8ZElZSmsR96j1Nco4iosCq0ayynifFWe6Mfqy4eM8kU/V2VFqvipudSL01jH+aL0PbJ/FV7Nu6qfvfCrskQMyXCtaH6MtFHpKz9UvhaVL5Ze7wqr8pGOuDh/euFC7WvFEwc5fM76eVNcRSSrxkxUYyd/ToF/qjwKy/TGYWoMe2XPPYv26odeHZlYFnNCZwHCc9o5vom02lmVEQVEjXOVjrIIq9oXGW3rsbBI9sA64tNoeuKLJ7z4nP8MM+eNkJffRqO9onoqbMqnFslO1zYlkunGNB5EzTKwJSJZFddizubR2sB7G4rmQetpkQwbrfJMbWSgG5mq7kxr0+3Ft/pGO+WzFjF9y3cRlUdahfV8K6qy5+Tr+WOqvVNlR9Svajx7bW/V3UJ/3taCcpW2559WuFB8LE/Ip1VfM71yMr2xApU1FdajN06Z6D89zQNTT41GVF+r/6141hIdxita8yze7CHGxxu9Jf6NPojhvfg5Pq76jV+1Llbkdk/Vo3xVHEzFR5aUNZWnQv7EDwrTPKjGsufjTDX+VVimqmsqXxU/NZd6cRrrOF966VsoTyxHVP3shV+VY4hkQm3MomCLnh8qX4vKF0rf809VZi8f6YgjzZxwofa14omDKo6ye+vnTbGGSNbyV4XyQBUPvXGYqrMqe/QsepV5kMllxf5nf9NOxc05J1RfioDKiGGQ21KlU5lR2KyYM47XwahIFgWkEdHmlEQy0H/w1A/067fO8n+nrPICP7SvuIrou1YbhEWy07XNiGRaYDiUrLGR7g1siUjWexIro002HhIyrQ28t6FwQ0t4vLGZQmJHry0ibrxVfGTqcKB646bc6pv8xWabN/wqfct3EZVJ2hiu8lrXkoTCrXyjmVG/qvGs6lHYyJxRXzi85z+tqfza808rXCg+lifUjqqvGbVrzp8C9cYK1KYqbO46oDryobQi+0/XDmM2d81X/1sCem/c2FvIF+ua43t8oadVOTArfIl/e3MoxlOfwub4WMKP1hX6qDDyx/FUHbnd8l3LF8RBa24ovorLLClrKk8LCYX4RuJsvuGRj+P4TlGNfzV+GQkH8cvAqqzIyD4jenEaa8pQmNKP+Fd5YjlCfcrzqRV+VY4pkkXfVn3L9NJWvhaVLxQ2cr1D7/pVf/L8aoULtaUVTxxUcYL5VK2fN8UaItnIOUR5oIqH3jhMjWFVNmkJm3sWPcY8EFVZCqvu/7R+Tz08Efe8fD4iDGIYxDytcYhf6PXWxjnjeB2MimSgp6FG/uPiqYlk+v0x+soTYfygPuTfQKvyqn38eH/+L5uV4GWRzCLZbFsqkmnRXmMT3SPYiEimQ0zc8KfQmPXytDbw3obCxqU40uX4CrV/zlOI2vTYHKv4iDbv1o28NvB4097qWxXWi1M5vQOXxiD7qWpXRPmiv3pjIqoDjlD+Kg6myo6ofdXcqupZMmdUR5W+ilO9ENOCwqdu+qu65NPedST0reacdbI3VqA2xbDRdWBE0K78p/qyaNFCYkHVfw778cCr8J5/e3ERtT36UnlH/Bt9kG9OoBrfKR+rzLieVe2diuMz4S1faKyqNUVthBxXsaSs0bkposAk/+Z6455QrfMV1fhz/RMG1VoQb8ri+Kssxviq+4zoxWmsKUNhS/yrOmI5Qn3K5Sl8zho2wjFFsnhjXMVnlLbyQ+VrUflI83/keofe9as8ca7G8FZdal/OJ4iDKi7Sqv8muEmRbMk5RL6BKh564zDl26rsKqwXd6x5AK2y+FyFK/3U2qx01VwmHHI4xPa00mlt5LXVhjnjeB0sEckkAiEaxf8smUFEk6h0aiIZ0D/C9RRZ/o0yqPL2RC2LZHdikWzQlohkUwdLMw42IpLpYMZGlDd3NgU2knxjoU2FuBgeaW3gUxtKvllkXrD50Ya8SempKND8IR/kG1HiteHNOaRrAwXyxfmpuLx5t/qmsNx+9TWnB4W3rguNQR4z+aQaT900zm13JB4ocpzyV3EwVXakN7da9ciPeZyAz3k+qI78raOuBYi+6/lHZeVrRFTlCfm06msmtiGXRT/i0we9sQKVE8NG1wHCSEue3H58PfWkIuOi/HME7lhGHDfqUjkQ2y4/RN/kPLHthOU5oWsmrhlL/BvbTz2xnTEuhoPaSf3xmqUPElBiH1QW14LCgLxa/3K7NYfzOAr1l7bE6yteLxDztFhS1ujcFPiIfPiJvBB9KOTH7GOgvtbTZ9mPelIsr0OUKR/nPCqryhd9FdsV54vCIr04tSP6cYl/VUdOD2o3rzFc7a5uZq/CqBiCD2hb9DXEayqPU4ueHypfi5aPGAPC517voHpyOMjnVX8Ih+wHUPtaflDeGEbb56yfN8VNimRAHwmfew7R2EBMG+mNQ29soSpbYXmdU9tz+iXzoEWrLNqieR99GsPxafSd4jW/oBozxeVwoWuqlY46YxuqOuJ9SI67TpaIZAhfPCVFW3nSKos3CGcSdiSinaJIlv9ksvrPk1Ve9T0/Raan0yD6rNcGsEh2urYJkUwLc2sBNuNgIyIZxA2STYPxYENQWL6JJZ7wfEiItDbwqYNBjGcTjBslUB7EsHiA10YMVV94T5mxzgqVQxmqi7LipppvHFp9080TeSkXVK7Ki+mBuggnjfpbxVebtuKA/iq/ysuHjakxAfmDsnKc8ldxMFV2RG2nvhzXqofxzGNMmjhWsc9RSOSQRV2qV+VEv/b8I7+A6ox5FRfDhPJWfa2I12ke1+gTlRvDIiojh4+uA7q5jumjz5Wu5T9uqBSe52RF7r/axquusehnylR68uIXlaG80ffyZe5LvmaW+Fc+yO3We6BtMU/MB7Qjj0nOw7WgdpOWtjLHyat8ud18Jjz6IpKvL9KrDvyuuCpvZmlZcew1PrGcltCqsqHyLzC2GnugbFAYrzF9a/zpW1WOPtNe0sQ8Kot2Ki95Yrvn7jOiF6f2xOsERv2r8FwOqE95PkX/qA6IaZYwKoZorQD6mPtajVML5an80PI1tHwUxxZf5bZVc1j15LJA5VV+Vj7Vw6vi1L4qHxAHMSyPreYw4XPW92Nz0yJZXts0t+K1HP0QxzqWE+mNQ29soSp79Czaqx+qOlr0yopngeh7/BX9x3vyg8Joe14jhdJUcRDPMK10uQ3UpzZozkPVr+tkiUgGCEYSygCxDDEnhun3vOAURbL4+2v0K8dDlZd+E8aTaAhttFdCl/xjkewWFskGbYlIpgWmtyGZMbA5Itnrfufth19/w+3P3/dDP3r464967OUF/wmf8ImHv/m3Pu9y8/nNN73zMj0b7UMf+tDDt/7TZ1zmj/Hw4z/zqsODHvSgi7Qxng1H5cf0MT8bEuV/z7Off/GZb+G+9dufdvgrD7u14MCjH/Pphy/80q+4PHTE/LT5q/+PJx7+lz/zYZfpv+Tvffkd7X3d77zj8n1F3NCpIx+sqzmrvjGvYziHJx1GFM9hl35po43plSfWKT8K8hGu/me4qYkHNupWnTktYUqT44QOE7kdoH5XcUBc1ccK9bm66VU91WFEPq76XI0V/YlpqZd0Gvfo19a4CokQpKHM6GOFV+NEH4mjzhzXIrdbfYzlq9zWeKhNVRzla24BaSmH8Co9PtOYxfT5aS/iqvmlb4LpU46ryNcR+Rl79TmPdW4f9dAXwvkc5xnjhi/lH16zb2GJf+UD8tDeWA/96c0B8sb0wBi1xiT3Q+VTr9oQ05OW8FZ5ULVZvpN/c54WS8sanZug6xny3IjIZ5pbwFxhfsXrGXrjT9/Ik8uR/3N6tY9+Mc7qv/JVbaY9xNP/HAeEt+LkvzynYcS/6l9VjvxTzWnS0y+VX6UZZYkYor7SBvWXdtH2apxa9PygsaziNO6a9xHSx+sDaGtrnuv6bZWl/DmOfsb5Fudzb46D2hbD5q6fN8WSeaG299rcGzt8SrzmODBH8EO+lnUdEx/DI4w5aapx0Ni2xog4+hPD1D7NW40RbdH1ENP36gf5q4rLTM2p1lmANpM3rk1KV63PkTnt0/WT+57BF7RdZYLGNj9BeRMsFcmAJ8oQhCTiAMIQf5aYn7qScMQP4sdwoT9tjGESqRDgYrieyBopq4X+ayV5qnj1Lf9gvyBflZf0UTCkrYhcEviif9TPVhv0TwQskp2ebeY3ycxxweaIZK//tTcc3vb2ey6EJRbbd7/6P53V57f9t98t/SJ0EKoOl8YYY8xV8T5zdZaIIWb/eF6YPcN9zFKRzJirYpFs0CySbQNsjkj2mz/984d7Pufxh3e+897DPS95+eHeh3/8WX1+6xd8aekX4ZsXY4wx14n3matjMcRUeF6YPWORzKyJRbJBs0i2DbC5v0n2O8989uHeRz3m8K5PefThta9909l9rnwifPNijDHmOvE+c3UshpgKzwuzZyySmTWxSDZoFsm2ATbyw/2//ZwX3iEYndvnFlO/xWCMMcZcBe8zV8diiKnwvDB7xiKZWROLZINmkWwbYCMimTHGGGPMKWIxxFR4Xpg9Y5HMrIlFskGzSLYNMItkxhhjjNk7FkNMheeF2TMWycyaWCQbNItk2wCzSGaMMcaYvWMxxFR4Xpg9Y5HMrIlFskGzSLYNMItkxhhjjNk7FkNMheeF2TMWycyaWCQbNItk2wCzSGaMMcaYvWMxxFR4Xpg9Y5HMrIlFskGzSLYNMItkxhhjjNk7FkNMheeF2TMWycyaWCQbNItk2wCzSGaMMcaYvWMxxFR4Xpg9Y5HMrIlFskHDWWxIZl0wHQ6MMcYYY/bK/e97/+G9972/jDPni+eF2TPvvPe+C6HiJS9/1eE/vOyVxtwoFskGDWfdd//7zcpg73vfH5dxxhhjjDF74Y//+I8P73+/zzzmTjwvzJ5BBEaoeNWr/l9jbhyLZIOGs97ytneblcHeec99ZZwxxhhjzF7ghvHd731fGWfOF88Ls2fe9q73XggVP/vSVx5+5iU/Z8yNYpFs0CySbQPMIpkxxhhj9o7FEFPheWH2jEUysyYWyQbNItk2wCySGWOMMWbvWAwxFZ4XZs9YJDNrYpFs0CySbQPMIpkxxhhj9o7FEFPheWH2jEUysyYWyQbNItk2wCySGWOMMWbvWAwxFZ4XZs9YJDNrYpFs0CySbQPMIpkxxhhj9o7FEFPheWH2jEUysyYWyQbNItk2wCySGWOMMWbvWAwxFZ4XZs9YJDNrYpFs0CySbQPMIpkxxhhj9o7FEFPheWH2jEUysyYWyQbNItk2wCySGWOMMWbvWAwxFZ4XZs9YJDNrYpFs0CySbQPMIpkxxhhj9o7FEFPheWH2jEUysyYWyQbNItk2wCySGWPM9fNRD/now1133XX45de8rowf4cEPfvAFVdxWuPtZP3jR3y97wleV8cbcNBZDjo+u88953OPL+FNgy/NC+8bLX/VLZXwFaV/04peWceb8uCmR7Ju++ckXc/VTPvVvlPEtvusZ/+rwPXc/q4wzp49FskEbFcl+4/VvPjz5KU89POzhH3dxAQI3CBy+j3HDca5g1y2ScXBivL7j6d9dxgObOWnyIYuxZZw15oIw0j73eS+8I30kzxfet9rAgYLyVJfm1sihxBhjemgtOsbNi8qq4rYCazBtfNSnPaaMN+amWSKGcA554pO+4VKsAM4TzO8q/bmxh+t8ybyI58sIfuidd0dRuSP7xpI8o+i8PHpO1j0B+av7N90PEJ/jBPnUx179nONJc8zxOEWuKpIhYiF8fdAHf/CFP3n9rM/+WxfhMd2Xf+VXX8Q/4hF/7Y7wHpShsazij8Hzf/RFd7QdMa9Kl/knT/3nl20jX5XGTGORbNBGRDIEsrgZsQFBFDQsZiwDu26RjLFinHoHSm2K+ZCl8DjuceyBw2vMA9V80ef8VANCm+I4BJM2HoYtwh4HHYyu89BmzDHhYM2cPdbNsNaUY1wDKquK2woWyZbBecZ+ux5GxZD4RV11PjiHpySn5uO5imSaA5w36XueG4RX+UZReSP7hubsdd4bLWkX93PKB9X5HdT+Vtl6erFXBmg8zv0e8SoiGWKYfP0RH/mRFwLYx3zMX7oMi4LTEpGMJ8jIc50iVBTigH5U6TKki/mqNGYai2SDNiKS6UaFDYcFVuFRPMtPIJl5YKciksVw0MEMopCl+cLmGMP1NGKeK9qMc/uom/llAfY4aB6MHKiMWROtMb21awTKOtY1oLKquK0g/+V13fRp7Yfm6oyKIYwF45CvWc1t2PsZYWo+7uE6v4pIlueG/AWIOTFuCa161mZJu3Q+1xNenNOrdPpStbX3Kj+0xEiJu5zxq/hzYqlIJoEMASs/Nfbs5/zwpVimsCUi2U0QRTK1mafEqrRCT5FFkbBKZ6axSDZoIyIZGy+Ts1ospzZv0wc7VZEM9C1RfJR6Tn1iqnxzPDQuIwcqY9ZEN39z1pI5aK05xjWgsqq4rSD/eX8eo7UfmquzRAxpoS/Y4vljj0zNxz1c58cUyUAizjG+wO/VsyZL2qUHG/gCu/eUl54Uawlg5NX1B/EBChEFuRx3biwRyaKw1Pu9sC/8oi+5fH8KItnc300jnnQxb5XOTGORbNBGRLLeNwr6Uzk/SbYMbIlIht8legAbFuNTbVRK17vRbB3CFA4xXFRlz6lPTJU/Ahs9m7E2fmBe9g4QHAR0aADeV37kQEHZOhTw2iqbsdE1M5VWh4iWr8gLMYy2kIcy9XSe+qx5ENPzWW3JtOqNUEf2aybnmesDzZXWt70t/4zMf+LkQ/4sQHlU56g/I7RvSTvivCMM/1Z5ILcJqLPyGdcA/aDMWHZ8onMK8qid+DleH5TdKwt/xPS0uVU/4aShzfRFbSY8rgsZ+h7LGRkDpemtCZnoe9qoslVWlWfOOKiPlB3zRpQ/hlE3ZcX5UF1bQFuJzz4TI+Ola5FXtUHtIx/hOQ/lEB+vrZiH+aW00c+t8sTIPCecNOTBR+TjM/Ce8JhecRUxnVnGMUUyzd3eXIkwr5grvGfN0XwjjPmndHHdI459o1pPgHDiVRaQV+tETn8d8zFe5/napC3xOovoOlJ55OFzq6/XybFFsuiTHEe/o4+UrtpTIdYzd0/UfIhx1XqodLzGOTgHtaHqf4Xqp/181nkIX7TSQp4PsR+aP5XvenHnxhKRTCIRT1JV8RVRJON3wMir3wLjCa7q6S2eSCM+/wmkxKyvfeI/uEgzp6wWUeiiXXpPuVX63Calz+koC5Ew/vkp76vfPFOZ+JV8+Ep/zskrn3OevWCRbNBGRDI2BSYRG0rcwFk4tVnMXaTNnWCjIpkOWdpUQePAa97QdAPZ24AZP9LkA4XCIYYD9SguzgvqISzPlwrK0EGl2qjnojkK+IB+xENrNT/lRyC9/ATRV/RBbaTMXHarzKod+bAgX7XGRvlimMaE8uO46z3E34igTtqhPqhdMHV4idc46Wln1ceYZ8QH6j+HqViGUN3xkK/yKZP8oHS85vlPOCgfaZSX+FF/CsXjV/lT6bNPQHGx/TEP5eU80f+qJ7Yrzmv8qnS0l/7pkErY1LUoVHZup+YPr/HgD7GdQPqcJ9evvsd6KINw0vJKmOJUZhyL7BvgM/A+1geKq9aDilye2hP7mvPMHYe49lVjozWNuhRGOuXBb5TNq8Ly9Uw84dkXS8ZLZdEXpSNPLCdfJ61rS34E2kw5OR1U4sfoPFfZmmekyX2N8zn2SWlFLNcs41giWbyJr66fCqXPa47CmU+gOMZccdUeFa/HOFeUh7LzfqT4Y85HXZu0WeUQH6+zuIcCbVeZuo5oE3nm+vOYHFskk8/yGqL1AzTGcQ7gg5geFKd0yhfHLI+z8sS2tdbDWH9eQ3soz9z9TPNEPolzIKcFzZ88d+RDygHeV36Tf7JvzpElIhm+gxExSiIZoo8ELQQziUFVea0ntVRW/IcBU2W1yHXoTygR4HJaUN2Kj3kFopfaRZtoWxTLsuilNpBG6eJ7iE/l7QmLZIM2IpKBNnRgoWXR1AKaD+ZmPtiISKZNlg06bzwaI8YnhpO2Co/EcqtwyOHa2HMe2qW5AbQr31RHtMkC+ZbMJ/rGITbXo5unfMCNN1rxQEjbNb8Vpr7kQwA+iGG6qaVM4mLa2MfYRuoirDU2yhPD4pjkuuIBMM8PzYPcth5qd/Zfq92jPuBVYbm9iqMshanvI/Nf5UM1t5b6k7S5PB06Id9oKBzwRcxDWYTnw6j6xLUW68c38boijjJAYUJ9yNdpC7URoi+pQ9d8vhZ0Y0l8rJ886gPXUcyj+ViVJ1rzTCwdgznXgPxGHbEcxkjjBTHP6DjIN9WNkeLiXJHP8jzRHII4T+S/PPZLxktlKV/0ifoGsbzetaW1WcRx1FqR2zDqX8jzTP7hVfM5+1/tzmWZq3MMkYyx19jlvamH5gHE6yruTRDXo7ie5DmnNsR5BbF9sSy4jvmYr83YTupQeMyj6y+vJWtxLJGMvqtveT0kjjDi4vgDZSgurkWgenK+OGZ5nJU+tk3jCNQV4+IaGtvcQ+ljOT10lo3zQ2HVPNA+keej5hTXhq6PvFYrPM+7c2VUJFv6J4YSlwDxJz6pJWGK8JhnSiQbKatFrkOfEbdyWpD4xRNffI55BWVQP68xHGGNtJQRw2MbiIv59NQcqM49YZFs0EZFMsg3B7zfygZ7qmAjIpk2/3iDItj4iMublQ5lhPO+Qhs972PeuKlXsHlWGzphlBXTsrHGzTnCASHOLdqaDypLUPvzRq3+TtXB/FZ7qviIxqZ1Qy9/xHgdblt5iIMYFsekmge0lbh8cFL9cw9UoD7lPJpreb4s8UFrLHTjEg+fS+Y/YZAPemKpP1uoj3ltVB35cA46dEa/cA0pT+u6EfJVVTaoD1PlgOqsytL1wLUaw3XtVj6iH1W8/NQ7RE9dHy2mxmDOWKqMyg9xzsTw0XHorS/ymdLqpoNrIKcFzaF4Hcl/9CWmXTJeKou2Vmu+ruPY9+infG3peoVqHVZcrGvUv6BxrPxGvcRl/6jdOdxcnSViCHOAsQDNM8Z6dF0gH1TzR3Mn7jdCcyiuJ7oeuVaq66G1RqisY87H3rUZr7MYXvVpTa4iklXQv7gOgNaPKT/meJVZzZvWnqg8cQ3trYegORjz9KjqaKH5mvdbCWHVvG/tT3yO/VW7Y5/ky9FrdK/ctEiG+JTFHv25YS6zVdeSslpUdeiJtChWgQQrhDiF5bxTKH1sd2xD9RtvrfbsAYtkgzYqkrHZaFNlQdSiyEJZHXDNPLARkUwXOBtPheJjHo3bHPLhIG7qxIFuoNhsq40+Qv5Yf2++cLijDypfdVYH0BFUVhU2VbZ82hJYIiozH8xEdUBT+bzGtEJlxrA4JjFcyN/54NQK79HKowNX7AsQBiM+UFi+adDNUDzEq3z8VaH4WI7CWv1e6s8WagevMVx1VOVUedSufKitUBs56FJGRuv1nD6QrpdW8RpjtZM6clohcZO2KExtjmEZ4qbSVLTyEQYjfmjNZcXHsCXjoPUurqW6OYljT37CqCOXC5U/ea88Cls6XlVZEcXHmy3VBTGt6MVVvlri38ovQu3LfWqFm6uzRAzhGmQ8Moz3iMijfHF+CM2TKo75RlycQ7wnLM73jK7t656PaksrnjiIYcqDD6s+3zRXEclYJ+m7rn/8Xs0L+b51BtW5BmK4wlp+UnzcK6o8GkdQWETtmzseVR0tJIZloS/2uToPK05907UYz2u6PmLZ6svUPcK5cNMiWeuH+6syW3UtKatFVYfKj2IYUB/hUazKeaeoypjyaZVnL1gkG7QRkYxFTpt9XATZZBVebfhmGmyJSNaDMYl5tFn1xkibN2mrcIjh2hQ5lMTwFpQj0QNaN54gsUxpe4fQDOVyACK/UDlK0zoIVVQ3ixVzyqx8rPa1yq/KbI2JaB20WuE9JGDlMVC7Y/hSH+jQBTqkKSzPL6Xrkee/wlv9XupPQTj+EEqfx1R1VOXInzGPfB991UJ1TjHnwKq0rf7m+DntrPrX8lOkyldxjDHIKG0VB1X8knHQWhqFeIXFmzn6EstokfdowuLYLB2vqqxIFY+fCYOYVvTi5Ms4VgqbIvpXeWJfhNqX+9QKN1dniRiSYXx1jbTGtkLpq+u/mm9CczvWM+dsUJV5HfNR7WvFEwc5XH0A9lrWhqt+KbmUq4hk0b+smQrP50zdr1RjLJS3Cmvlq+KrMN4rXGGRar70qOpoob5XZ2+Ji5V4qDmiOPk37jP6UicKZ3zOZ7FzxiLZA+uIT6PpiS+e8OJz/jPMnDdCXn4bjfaK6qmwKZ9aJDtdW1Uk0wJafTMTb4yrxdf0wZaIZFVci96hTGjzbh3Oqjp7G2sFhy/l6bVF6GauqjtD2epnC6WdOqhE5vgO5pRZ+ViH21b5VZlTdanNpJsT3iMKWOSnnbo54QAUr/mlPgC1TXNJY5+f4Jsqv0J5Wv2eanfLb7RVB8+KPKYKr9pRzQOFZV9VtNq4hF47q/g57az6pzbHsEyVL3LMMcgobRUHVfyScSAteVgbFaY+xRvWKV9UKE8cmyosU9U1la+KV98gphW9uMqXVdgUyhP7ItS+3KdWuLk6xxDJhObc3Jtx0kI1f3pzS/XEOdSbV6Iqs5dv6XxU+1rxxEEVR9lRLOPLzDWEsmOJZKAzCq8xvJU+ojRVWCtfFV+F8V7hCotU86VHVUeFRCygjoz2myhyCZ3F5Ev5Nn4RwXxR+XxWP7P/z5lRkSwKSCOizSmJZKD/4Kkf6NdvneX/TlnlBX5oX3EV0XetNgiLZKdrq4lkUQSr4oFFlvi5Yom5DbZEJBsRJDU+vcOcNjXSVuEQw4HxJjze3E2hR757bRF54+2hPrLJx80bqjIUNnUY1OFz5M8tW2XqsBEPIlPlq8wY1hsTkC/ywakV3iMeNiVwcqDiczUHiYcRH4DmksL11GFrLEfmv/K0+r3En8qDL2h77K/GNM9x1VG1o8qjOuKf3LVQG4+xBvfaGa9J9XlOOxlX0jD+ClObs58iLV/Csccgo7Stuab4GLZ0HHRtMd+rb+VBfRq58VAe2qWwpeNVlRXR2h7XMtUFMa3oxcmXcayW+Fd58lwAtS/3qRVurs4xRbI4v+I8adFLW803obkf55DCemcDiQ9xH7uO+ai2tOKJgypOsM5p311D3DimSEZfFBfXb/m++sIfdL/DuMVwlVXNjRgf96Aqj8YRFBZR+1r1ZKo6KnSOm0Pe7+RL+YS9KvsHNHdoi/aCY5xH9sKoSAZ6GmrkPy6emkim3x+jrzwRxg/qQ/4NtCqv2seP9+f/slkJXhbJLJLNtrki2dSiDlocWxuPaYONiGTydXXAaqGNt5dH45wPWb3xjzfMU5u0UPvjzVcL3SxWG3JG7Zgbp5vSqU2ceNLNEQKnytQ4xL6rj/glpgUd2CCGT12TrYOWwkcOLqSf03exxAcQ55L6XdW7ZP6r3NYcXeJP3ZRU7WjFqY6qHVWe1kG/QodS2lrFj6A6q2u0uh6m2snYjt4sCvmlummrfDYVRxi05kJEc62ay/IDxPCl46B8vOqGJtcb18N4M9ZDfojtWTpeKouxr+qvrv2pa6sXV113S/zbm2dqXy5P4dUaZK7GMUUyXRNQxWeUtrr+q/kmqvWkWgsjmkP5/HId81Hty/kEcVDFRVr13wTHFMmgOitobW2JgPJj/oJC9czdE0F5YtvkX4hpRW8OVlR1ZFrreUbrd9VHxamv2T8g37FGy/dz96lzYIlIJhEI0Sj+Z8kMIppEpVMTyYD+Ea6nyPJvlEGVtydqWSS7E4tkgzZXJIsLbLWxsKASN3JwN7fBRkQybVL4O2+M+J+NKt6kQO9QJrR5tw5nEMNFPnRw08WGShvyfNBcAd2ckQ/y5k28Ntpq3mVUbq5T7YMYrg2dtsYbRfLTTvmQz5r/2X+0OR4W4rWQx0Y3d/k6oW7CIYrM1K96QeEwNSatg5b6PMefYvTQtsQHQk+v9ISwJfOf9NDqA+FKU8VXPpAv6VNMy5zQuOX2q46qHSov51Hd+CbPG+rWdRPnEWOgdAKf5La2UDm5LOrQYTm3M45dvp7UB15jHoXnsiIaG+rNcfLZscYgo/IpK/ZJc1DEPEvHgTaTh35SH1TXiPzPNZzj6VO+eVEfsu+XjJfKqvJFX8V2afxAYZFenNoRx2qJf3vzTO3LfQXVE/tprs6oGMLYMHZ5HLhmdD1U41ehMa2u/2q+Cc3vPIe0zuTrMbYt57mO+aj2tfygvDGMtsczB3DtkG7kjHAsji2SaZ2Oe4fWWcjrRxRcc3kKz/kYi9Y4K30sS+MLMa3ozcGKqo5M5YcKzSHW9hyneaG+VmuvfKvzW1XOObNEJEP44ikp/MmTVlm8QTiTsCMR7RRFsvwnk9V/nqzyqu/5KTI9nQbRZ702gEWy07VVf5Ms3hSwsbKQgw4IQJoqr+mDjYhkEIUfNi3GQhsT5A1MG291KBPavElbhUMMr+I5JEKcF1NzRRszVH3hfTx8ttBNH2VQJvCeerWxx/SUGetRO/U5+irOf7VRZUIsN5ZB+XxW33nlIBHTg9oOpFe7eNX7mH5qTNSGfHCK+VR2b04Ah8A4dkJ+qK77JT6A6Gdo3ZyOzn+FZ3+IJf6Mh23agx/VLrUl+1bpq3aQtspDPdF3ua+xrOg/pVXbIQsoLZRe9cjHMTxfk63rvpdH8b05GMtVO4C4Y49BplojdN3jS8XlfEvHQWUD/ajSxPkAKlthvMb0mlekieFLxktl0U7lJU9sd14Ppq6tXpzak8dq1L+Kq+aZ2keaHKd8qiP71ixjVAyJ+yPzkrGI12U1V1soT3X9a7yrOM39PIfi/NY8iW2rrmPVc8z5qPZV+YA4iGHkJ0zrqq5jwlt79HVybJEsrnFRDJSvIPcd8hoGitP+onwKr+ag4mLb4nyJaYXKrPpTobJ0XWQ4Q+n6qYStCGlVXj57RQERWvND/oZqfp8zS0QyQDCSUAaIZYg5MUy/5wWnKJLF31+jXzkeqrz0mzCeRENoo70SuuQfi2S3sEg2aCMiGbBos9jGRZCNgk1j7oJuHgg2KpIBGzmboMaCcWF8qg1+ziapzZu0MVw3opQfwyM6YOggwgbLN0/xsKi5Um2utDnPLfo2talHOKCwKastlEV9tIWyqvbnPECbaXs+8Gj+K538nb+JBdpd9T0fPAR1Uaf6T3odMKq26zBT9QnUzuq6xNfqL69V+yPqB3XRFhF9RttzvlEfAH6QD6ijSiNG5r/a2qp7qT/znKC/1K9rKc9ftaO6BkhLXHWwpH34Tr4B+l5dH2pTlTbP6RbKR1n5mqquDaF5HOcGPqGMKg99Ik01ZhH8Fedh9NHoGMgvrUN+hnZH39M3lal6cx5YMg70S2nJX6UBzYfsZ3yf5zj1EU9bYjiMjpfaRz/wX/Z71eapa4vwVpyu72qsRvyreZbnAlC28uY4yol9rHxoxlkihmi9j+PNnOtdTxWa69Wc0lhXcZr7rTlUrc+tde065iNl5bCI2hbD8r7CK5+r/t8ES+aF2t5qs3ydzyice6IvKYfPrXWXeOA9c0HzSD6r5qDSxDV5aj1Um3rrf4RrgPQtNJ+oL+8NFcw70tPHHEcZxFFnjhP4OdZdpTlXlopkwBNlCEIScQBhiD9LzE9dSTjiB/FjuNCfNsYwiVQIcDFcT2SNlNVC/7WSPFW8+pZ/sF+Qr8pL+igY0lZELgl80T/qZ6sN+icCFslOz1YXycz1gM0Ryd76zvcc/vAD6PO973nfWX1+173jQqK5GhzU2DA47FWHQH272DrwmdOEMYW5B3VzHkSRrIo3Zg5LxBCzfzwvzJ65ikhmzFWxSDZoFsm2ATZHJHvbL7z6cP9r//OFWPaee95zuO8rvuqsPr/7u55R+sVcHxLJWt8cTsWb08QimamwSGaOgcUQU+F5YfaMRTKzJhbJBs0i2TbA5ohkf/Bbbzrc98hPPrzvV3/1cN/jP//wrqf/y7P6/I5nP7f0i7k+eHpMj/Pzyk2y0J8F8BSZH6vfFxbJTIVFMnMMLIaYCs8Ls2cskpk1sUg2aBbJtgE29zfJ/uA33ni4/2P/yqVgdG6fzc2DUMbNscQywWd+i2PO71yY06L3uz3mfOE3lpgXrd89MmYOFkNMheeF2TMWycyaWCQbNItk2wAb+uH+33/XeX82xhhjzEliMcRUeF6YPWORzKyJRbJBs0i2DbAhkcwYY4wx5gSxGGIqPC/MnrFIZtbEItmgWSTbBphFMmOMMcbsHYshpsLzwuwZi2RmTSySDZpFsm2AWSQzxhhjzN6xGGIqPC/MnrFIZtbEItkMe8tb3nJ44QtfeLj77rsvnPW933v34d/+yPMP//k33lBe1Ob6wSySGWOMMdfDb7z+TYfnPf8FF2cen33WxWKIqfC8MHvGIplZg5/4yZ85fP/3P/vwPd/zPRdnH/SfF7zgBYc3v/nNF/rDXuzKItlrX/vaDxwMv/fSSc95znOCWPa9h5/7f36xvLDN9YJZJDPGGGOOzy/+8mt89tkQFkNMheeF2TMWycxN8/x/98I7xLF89vmVX/mVCw1iD3YlkYwnyHAIvOY1r/mT0Fv267/+64d//a//9YXT/K3qzYNZJDPGGGOOC0+Q+eyzLSyGmArPC7NnLJKZm4QnyBDIps4+e3mi7EoiGX9iiTOyo2T/5b/8l4v45/7wvy0vbnN9YBbJjDHGmOPCn1j67LMtLIaYCs8Ls2cskpmbhD+xnHP2ed7znvcnIadtVxLJeLwOevZ93/d9Fw6z2Ww2m81mO3Xz2cdms9lsWzBEMmNuAp4iO6ezz5VEMpzA36L2jB9yI50xxhhjzB7w2ccYY4wx58Tcs88ezE+S2Ww2m81ms800n31sNpvNZrOdk53b2edKIpnUQn6srbLf+q3fuoh/7nOf+ychNpvNZrPZbKdrPvvYbDabzWY7Jzu3s8+VRDL+ewH/4YD/ZsCPtUXDUfovB2984xv/JNRms9lsNpvtdM1nH5vNZrPZbOdk53b2uZJIhv3Kr/zKhUOAR+xQGfWoHfzCL/zCn6S02Ww2m81mO33z2cdms9lsNts52Tmdfa4skmEoizxaJwcBn/0tqs1ms9lstj2azz42m81ms9nOyc7l7HMUkcxms9lsNpvNZrPZbDabzWY7ZbNIZrPZbDabzWaz2Ww2m81mO3uzSGaz2Ww2m81ms9lsNpvNZjt7s0hms9lsNpvNZrPZbDabzWY7e7NIZrPZbDabzWaz2Ww2m81mO3uzSGaz2Ww2m81ms9lsNpvNZjt7s0hms9lsNpvNZrPZbDabzWY7e7NIZrPZbDabzWaz2Ww2m81mO3uzSGaz2Ww2m81ms9lsNpvNZjt7s0hms9lsNpvNZrPZbDabzWY7e7NIZrPZbDabzWaz2Ww2m81mO3uzSGaz2Ww2m81ms9lsNpvNZjt7s0hms9lsNpvNZrPZbDabzWY7e7NIZrPZbDabzWaz2Ww2m81mO3uzSGaz2Ww2m81ms9lsNpvNZjt7s0hms9lsNpvNZrPZbDabzWY7e7NIZrPZbDabzWaz2Ww2m81mO3uzSGaz2Ww2m81ms9lsNpvNZjt7s0hms9lsNpvNZrPZbDabzWY7e7NIZrPZbDabzWaz2Ww2m81mO3M7HP5/Zh1B/oINe/8AAAAASUVORK5CYII=;" vertex="1" parent="WIyWlLk6GJQsqaUBKTNV-1">
          <mxGeometry x="19" y="670" width="784.67" height="463.12" as="geometry" />
        </mxCell>
        <mxCell id="VKCGDPAT1vk8IowQwXdB-36" value="&lt;font style=&quot;font-size: 12px;&quot;&gt;What is EHRSS and CIMS2?&lt;/font&gt;" style="text;html=1;strokeColor=none;fillColor=none;align=center;verticalAlign=middle;whiteSpace=wrap;rounded=0;shadow=0;labelBackgroundColor=#FFFFFF;fontSize=24;fontColor=#000000;" vertex="1" parent="WIyWlLk6GJQsqaUBKTNV-1">
          <mxGeometry x="54" y="600" width="200" height="50" as="geometry" />
        </mxCell>
      </root>
    </mxGraphModel>
  </diagram>
</mxfile>
